<svg width="51" height="51" viewBox="0 0 51 51" fill="none" xmlns="http://www.w3.org/2000/svg">
<path d="M7.07992 30.1097H24.5299C24.7235 30.1097 24.9092 30.0328 25.0461 29.8959C25.183 29.759 25.2599 29.5733 25.2599 29.3797V13.8597C25.2573 13.6678 25.1792 13.4847 25.0426 13.35C24.906 13.2152 24.7218 13.1397 24.5299 13.1397H7.07992C6.98453 13.1384 6.88983 13.156 6.80132 13.1916C6.71281 13.2272 6.63225 13.28 6.56433 13.347C6.49641 13.414 6.44248 13.4938 6.40567 13.5819C6.36886 13.6699 6.34991 13.7643 6.34992 13.8597V29.3797C6.34992 29.5733 6.42683 29.759 6.56374 29.8959C6.70064 30.0328 6.88632 30.1097 7.07992 30.1097ZM16.8999 21.6197L23.7999 15.4797V27.7597L16.8999 21.6197ZM22.6199 28.6197H8.99992L15.8099 22.5597L22.6199 28.6197ZM15.7999 20.6197L8.99992 14.5897H22.6199L15.7999 20.6197ZM14.7099 21.6197L7.79992 27.7597V15.4797L14.7099 21.6197ZM7.07992 44.6497H29.3799C29.5735 44.6497 29.7592 44.5728 29.8961 44.4359C30.033 44.299 30.1099 44.1133 30.1099 43.9197V34.2297C30.1099 34.0361 30.033 33.8504 29.8961 33.7135C29.7592 33.5766 29.5735 33.4997 29.3799 33.4997H7.07992C6.88632 33.4997 6.70064 33.5766 6.56374 33.7135C6.42683 33.8504 6.34992 34.0361 6.34992 34.2297V43.9197C6.34858 44.016 6.36654 44.1115 6.40275 44.2007C6.43896 44.2898 6.49268 44.3708 6.56074 44.4389C6.62879 44.507 6.7098 44.5607 6.79898 44.5969C6.88816 44.6331 6.98369 44.6511 7.07992 44.6497ZM20.0799 39.0797L28.6799 35.3397V42.8097L20.0799 39.0797ZM25.9099 43.1997H10.5699L18.2299 39.8697L25.9099 43.1997ZM18.2599 38.2797L10.5699 34.9997H25.8799L18.2599 38.2797ZM16.4299 39.0797L7.79992 42.8097V35.3397L16.4299 39.0797ZM43.9199 33.4997H34.2299C34.0363 33.4997 33.8506 33.5766 33.7137 33.7135C33.5768 33.8504 33.4999 34.0361 33.4999 34.2297V43.9197C33.4999 44.1133 33.5768 44.299 33.7137 44.4359C33.8506 44.5728 34.0363 44.6497 34.2299 44.6497H43.9199C44.0162 44.6511 44.1117 44.6331 44.2009 44.5969C44.29 44.5607 44.3711 44.507 44.4391 44.4389C44.5072 44.3708 44.5609 44.2898 44.5971 44.2007C44.6333 44.1115 44.6513 44.016 44.6499 43.9197V34.2297C44.6499 34.0361 44.573 33.8504 44.4361 33.7135C44.2992 33.5766 44.1135 33.4997 43.9199 33.4997ZM43.1999 43.1997H34.9999V34.9997H43.1999V43.1997Z" fill="white"/>
<path d="M48.77 1.5H2.23C2.03639 1.5 1.85071 1.57691 1.71381 1.71381C1.57691 1.85071 1.5 2.03639 1.5 2.23V48.77C1.5 48.9636 1.57691 49.1493 1.71381 49.2862C1.85071 49.4231 2.03639 49.5 2.23 49.5H48.77C48.9636 49.5 49.1493 49.4231 49.2862 49.2862C49.4231 49.1493 49.5 48.9636 49.5 48.77V2.23C49.5 2.03639 49.4231 1.85071 49.2862 1.71381C49.1493 1.57691 48.9636 1.5 48.77 1.5ZM48.05 48H3V9.74H48.05V48ZM48.05 8.25H3V3H48.05V8.25Z" fill="white"/>
<path d="M44.12 6.34965C44.3107 6.34798 44.4934 6.27275 44.63 6.13965C44.698 6.07143 44.7516 5.99026 44.7877 5.90094C44.8238 5.81162 44.8416 5.71596 44.84 5.61965C44.8419 5.52477 44.8243 5.43051 44.7882 5.34275C44.752 5.255 44.6982 5.17565 44.63 5.10965C44.4915 4.98868 44.3139 4.92201 44.13 4.92201C43.9461 4.92201 43.7685 4.98868 43.63 5.10965C43.4969 5.24624 43.4217 5.42894 43.42 5.61965C43.4186 5.71589 43.4366 5.81142 43.4728 5.90059C43.509 5.98977 43.5627 6.07078 43.6308 6.13884C43.6989 6.20689 43.7799 6.26061 43.869 6.29682C43.9582 6.33303 44.0538 6.351 44.15 6.34965H44.12ZM40.24 6.34965C40.3844 6.34965 40.5255 6.30683 40.6456 6.22662C40.7656 6.14641 40.8592 6.0324 40.9144 5.89901C40.9697 5.76562 40.9841 5.61884 40.956 5.47723C40.9278 5.33563 40.8583 5.20555 40.7562 5.10346C40.6541 5.00137 40.524 4.93184 40.3824 4.90368C40.2408 4.87551 40.094 4.88997 39.9606 4.94522C39.8272 5.00047 39.7132 5.09403 39.633 5.21408C39.5528 5.33413 39.51 5.47527 39.51 5.61965C39.51 5.81326 39.5869 5.99894 39.7238 6.13584C39.8607 6.27274 40.0464 6.34965 40.24 6.34965ZM36.36 6.34965C36.4562 6.351 36.5518 6.33303 36.6409 6.29682C36.7301 6.26061 36.8111 6.20689 36.8792 6.13884C36.9472 6.07078 37.001 5.98977 37.0372 5.90059C37.0734 5.81142 37.0913 5.71589 37.09 5.61965C37.0901 5.52413 37.0706 5.4296 37.0327 5.34189C36.9949 5.25419 36.9395 5.17515 36.87 5.10965C36.7315 4.98868 36.5539 4.92201 36.37 4.92201C36.1861 4.92201 36.0085 4.98868 35.87 5.10965C35.7369 5.24624 35.6617 5.42894 35.66 5.61965C35.6611 5.81341 35.7363 5.99942 35.87 6.13965C36.0036 6.26503 36.1771 6.33937 36.36 6.34965ZM43.92 28.6496H42C41.8064 28.6496 41.6207 28.7266 41.4838 28.8635C41.3469 29.0004 41.27 29.186 41.27 29.3796C41.27 29.5733 41.3469 29.7589 41.4838 29.8958C41.6207 30.0327 41.8064 30.1096 42 30.1096H43.93C44.1236 30.1096 44.3093 30.0327 44.4462 29.8958C44.5831 29.7589 44.66 29.5733 44.66 29.3796C44.66 29.186 44.5831 29.0004 44.4462 28.8635C44.3093 28.7266 44.1236 28.6496 43.93 28.6496H43.92ZM29.38 30.1096H38.11C38.3036 30.1096 38.4893 30.0327 38.6262 29.8958C38.7631 29.7589 38.84 29.5733 38.84 29.3796C38.84 29.186 38.7631 29.0004 38.6262 28.8635C38.4893 28.7266 38.3036 28.6496 38.11 28.6496H29.38C29.1864 28.6496 29.0007 28.7266 28.8638 28.8635C28.7269 29.0004 28.65 29.186 28.65 29.3796C28.65 29.5733 28.7269 29.7589 28.8638 29.8958C29.0007 30.0327 29.1864 30.1096 29.38 30.1096ZM43.92 23.4796H38.11C37.9164 23.4796 37.7307 23.5566 37.5938 23.6935C37.4569 23.8304 37.38 24.016 37.38 24.2096C37.3826 24.4015 37.4607 24.5846 37.5973 24.7194C37.7339 24.8541 37.9181 24.9297 38.11 24.9296H43.92C44.0154 24.931 44.1101 24.9133 44.1986 24.8777C44.2871 24.8421 44.3677 24.7893 44.4356 24.7223C44.5035 24.6553 44.5574 24.5755 44.5942 24.4875C44.6311 24.3995 44.65 24.305 44.65 24.2096C44.65 24.1138 44.6311 24.0189 44.5944 23.9303C44.5577 23.8417 44.504 23.7612 44.4362 23.6935C44.3684 23.6257 44.2879 23.5719 44.1994 23.5352C44.1108 23.4985 44.0159 23.4796 43.92 23.4796ZM29.38 24.9296H34.23C34.4219 24.9297 34.6061 24.8541 34.7427 24.7194C34.8793 24.5846 34.9574 24.4015 34.96 24.2096C34.96 24.016 34.8831 23.8304 34.7462 23.6935C34.6093 23.5566 34.4236 23.4796 34.23 23.4796H29.38C29.2841 23.4796 29.1892 23.4985 29.1006 23.5352C29.0121 23.5719 28.9316 23.6257 28.8638 23.6935C28.796 23.7612 28.7422 23.8417 28.7056 23.9303C28.6689 24.0189 28.65 24.1138 28.65 24.2096C28.6526 24.4015 28.7307 24.5846 28.8673 24.7194C29.0039 24.8541 29.1881 24.9297 29.38 24.9296ZM43.92 18.3096H42C41.8976 18.2976 41.7939 18.3074 41.6956 18.3383C41.5973 18.3692 41.5066 18.4207 41.4296 18.4891C41.3526 18.5576 41.2909 18.6416 41.2487 18.7357C41.2065 18.8297 41.1847 18.9316 41.1847 19.0346C41.1847 19.1377 41.2065 19.2396 41.2487 19.3336C41.2909 19.4277 41.3526 19.5117 41.4296 19.5802C41.5066 19.6486 41.5973 19.7 41.6956 19.731C41.7939 19.7619 41.8976 19.7717 42 19.7596H43.93C44.0323 19.7717 44.1361 19.7619 44.2344 19.731C44.3327 19.7 44.4234 19.6486 44.5004 19.5802C44.5774 19.5117 44.639 19.4277 44.6812 19.3336C44.7235 19.2396 44.7453 19.1377 44.7453 19.0346C44.7453 18.9316 44.7235 18.8297 44.6812 18.7357C44.639 18.6416 44.5774 18.5576 44.5004 18.4891C44.4234 18.4207 44.3327 18.3692 44.2344 18.3383C44.1361 18.3074 44.0323 18.2976 43.93 18.3096H43.92ZM29.38 19.7596H38.11C38.2876 19.7388 38.4514 19.6534 38.5702 19.5197C38.689 19.3861 38.7547 19.2135 38.7547 19.0346C38.7547 18.8558 38.689 18.6832 38.5702 18.5496C38.4514 18.4159 38.2876 18.3305 38.11 18.3096H29.38C29.2776 18.2976 29.1739 18.3074 29.0756 18.3383C28.9773 18.3692 28.8866 18.4207 28.8096 18.4891C28.7326 18.5576 28.6709 18.6416 28.6287 18.7357C28.5865 18.8297 28.5647 18.9316 28.5647 19.0346C28.5647 19.1377 28.5865 19.2396 28.6287 19.3336C28.6709 19.4277 28.7326 19.5117 28.8096 19.5802C28.8866 19.6486 28.9773 19.7 29.0756 19.731C29.1739 19.7619 29.2776 19.7717 29.38 19.7596ZM38.11 14.5896H43.92C44.1136 14.5896 44.2993 14.5127 44.4362 14.3758C44.5731 14.2389 44.65 14.0533 44.65 13.8596C44.65 13.7642 44.6311 13.6698 44.5942 13.5818C44.5574 13.4938 44.5035 13.414 44.4356 13.347C44.3677 13.28 44.2871 13.2271 44.1986 13.1916C44.1101 13.156 44.0154 13.1383 43.92 13.1396H38.11C37.9181 13.1396 37.7339 13.2152 37.5973 13.3499C37.4607 13.4847 37.3826 13.6678 37.38 13.8596C37.38 14.0533 37.4569 14.2389 37.5938 14.3758C37.7307 14.5127 37.9164 14.5896 38.11 14.5896ZM29.38 14.5896H34.23C34.4236 14.5896 34.6093 14.5127 34.7462 14.3758C34.8831 14.2389 34.96 14.0533 34.96 13.8596C34.9574 13.6678 34.8793 13.4847 34.7427 13.3499C34.6061 13.2152 34.4219 13.1396 34.23 13.1396H29.38C29.1881 13.1396 29.0039 13.2152 28.8673 13.3499C28.7307 13.4847 28.6526 13.6678 28.65 13.8596C28.65 14.0533 28.7269 14.2389 28.8638 14.3758C29.0007 14.5127 29.1864 14.5896 29.38 14.5896Z" fill="white"/>
</svg>
