<svg width="61" height="61" viewBox="0 0 61 61" fill="none" xmlns="http://www.w3.org/2000/svg">
<path d="M54.4119 42.2115V43.3095C54.4119 45.0175 53.0699 46.3595 51.3619 46.3595H10.1259C8.41793 46.3595 7.07593 45.0175 7.07593 43.3095V27.2055M51.7279 16.1035C53.1919 16.2255 54.4119 17.5675 54.4119 19.0315V30.0115" stroke="black" stroke-miterlimit="10" stroke-linecap="round" stroke-linejoin="round"/>
<path d="M41.2359 40.2598H7.07593" stroke="black" stroke-miterlimit="10" stroke-linecap="round" stroke-linejoin="round"/>
<path d="M10.126 27.2061V37.3321H41.236" stroke="black" stroke-miterlimit="10" stroke-linecap="round" stroke-linejoin="round"/>
<path d="M49.2881 19.1543H51.3621V30.1343" stroke="black" stroke-miterlimit="10" stroke-linecap="round" stroke-linejoin="round"/>
<path d="M35.99 46.2383L36.844 53.5583" stroke="black" stroke-miterlimit="10" stroke-linecap="round" stroke-linejoin="round"/>
<path d="M24.644 53.5583L25.498 46.2383" stroke="black" stroke-miterlimit="10" stroke-linecap="round" stroke-linejoin="round"/>
<path d="M38.1861 55.7536H23.3021C22.6921 55.7536 22.2041 55.2656 22.2041 54.6556C22.2041 54.0456 22.6921 53.5576 23.3021 53.5576H38.0641C38.6741 53.5576 39.1621 54.0456 39.1621 54.6556C39.2841 55.2656 38.7961 55.7536 38.1861 55.7536Z" stroke="black" stroke-miterlimit="10" stroke-linecap="round" stroke-linejoin="round"/>
<path d="M30.744 44.4079C31.3504 44.4079 31.842 43.9163 31.842 43.3099C31.842 42.7035 31.3504 42.2119 30.744 42.2119C30.1376 42.2119 29.646 42.7035 29.646 43.3099C29.646 43.9163 30.1376 44.4079 30.744 44.4079Z" stroke="black" stroke-miterlimit="10" stroke-linecap="round" stroke-linejoin="round"/>
<path d="M14.6399 28.7918V31.9638C14.6399 33.1838 15.6159 34.0378 16.7139 34.0378H41.2359M40.5039 6.46582H16.7139C15.6159 6.46582 14.6399 7.44182 14.6399 8.53982V15.0058" stroke="black" stroke-miterlimit="10" stroke-linecap="round" stroke-linejoin="round"/>
<path d="M46.8479 28.792V20.374" stroke="black" stroke-miterlimit="10" stroke-linecap="round" stroke-linejoin="round"/>
<path d="M37.0879 11.9561H14.6399" stroke="black" stroke-miterlimit="10" stroke-linecap="round" stroke-linejoin="round"/>
<path d="M16.958 9.27246H17.812" stroke="black" stroke-miterlimit="10" stroke-linecap="round" stroke-linejoin="round"/>
<path d="M19.52 9.27246H20.374" stroke="black" stroke-miterlimit="10" stroke-linecap="round" stroke-linejoin="round"/>
<path d="M22.082 9.27246H22.936" stroke="black" stroke-miterlimit="10" stroke-linecap="round" stroke-linejoin="round"/>
<path d="M59.1699 40.3818V31.9638C59.1699 30.9878 58.3159 30.1338 57.3399 30.1338H49.4099L43.3099 26.8398L44.1639 30.1338H43.1879C42.2119 30.1338 41.3579 30.9878 41.3579 31.9638V40.3818C41.3579 41.3578 42.2119 42.2118 43.1879 42.2118H57.3399C58.3159 42.2118 59.1699 41.3578 59.1699 40.3818Z" stroke="black" stroke-miterlimit="10" stroke-linecap="round" stroke-linejoin="round"/>
<path d="M44.7739 39.04H55.6319" stroke="black" stroke-miterlimit="10" stroke-linecap="round" stroke-linejoin="round"/>
<path d="M44.7739 36.2344H55.6319" stroke="black" stroke-miterlimit="10" stroke-linecap="round" stroke-linejoin="round"/>
<path d="M44.7739 33.5498H55.6319" stroke="black" stroke-miterlimit="10" stroke-linecap="round" stroke-linejoin="round"/>
<path d="M1.83008 16.9579V25.3759C1.83008 26.3519 2.68408 27.2059 3.66008 27.2059H11.5901L17.6901 30.4999L16.8361 27.2059H17.8121C18.7881 27.2059 19.6421 26.3519 19.6421 25.3759V16.9579C19.6421 15.9819 18.7881 15.1279 17.8121 15.1279H3.66008C2.68408 15.1279 1.83008 15.8599 1.83008 16.9579Z" stroke="black" stroke-miterlimit="10" stroke-linecap="round" stroke-linejoin="round"/>
<path d="M8.66211 24.2776V17.9336L12.9321 21.1056L8.66211 24.2776Z" stroke="black" stroke-miterlimit="10" stroke-linecap="round" stroke-linejoin="round"/>
<path d="M52.4601 12.9324C52.4601 17.2024 49.0441 20.6184 44.7741 20.6184C44.1641 20.6184 43.4321 20.4964 42.8221 20.3744L39.2841 22.4484L39.8941 19.0324C38.0641 17.5684 36.9661 15.4944 36.9661 13.0544C36.9661 8.7844 40.3821 5.3684 44.6521 5.3684C49.0441 5.2464 52.4601 8.6624 52.4601 12.9324Z" stroke="black" stroke-miterlimit="10" stroke-linecap="round" stroke-linejoin="round"/>
<path d="M22.814 15.25H34.404" stroke="black" stroke-miterlimit="10" stroke-linecap="round" stroke-linejoin="round"/>
<path d="M22.814 19.0322H36.6" stroke="black" stroke-miterlimit="10" stroke-linecap="round" stroke-linejoin="round"/>
<path d="M22.814 22.6924H36.6" stroke="black" stroke-miterlimit="10" stroke-linecap="round" stroke-linejoin="round"/>
<path d="M22.814 26.4736H36.6" stroke="black" stroke-miterlimit="10" stroke-linecap="round" stroke-linejoin="round"/>
<path d="M22.936 30.1338H38.186" stroke="black" stroke-miterlimit="10" stroke-linecap="round" stroke-linejoin="round"/>
<path d="M42.334 16.1045C42.212 16.1045 42.212 15.9825 42.09 15.9825C42.09 15.8605 41.968 15.8605 41.968 15.7385C41.968 15.6165 41.968 15.4945 42.09 15.3725C42.212 15.2505 42.212 15.2505 42.456 15.2505C42.578 15.2505 42.578 15.2505 42.7 15.2505C43.31 15.4945 44.042 15.7385 44.774 15.7385C45.994 15.7385 46.604 15.3725 46.604 14.5185C46.604 14.2745 46.482 14.1525 46.36 14.0305C46.238 13.9085 45.994 13.7865 45.75 13.6645C45.506 13.5425 45.14 13.5425 44.774 13.4205C44.164 13.2985 43.798 13.1765 43.432 13.0545C43.066 12.9325 42.822 12.6885 42.578 12.4445C42.334 12.2005 42.212 11.8345 42.212 11.3465C42.212 10.9805 42.334 10.6145 42.578 10.2485C42.822 9.88246 43.066 9.63846 43.554 9.51646C43.92 9.27246 44.408 9.27246 45.018 9.27246C45.75 9.27246 46.482 9.39446 47.092 9.63846C47.336 9.76046 47.336 9.88246 47.336 10.0045C47.336 10.1265 47.336 10.2485 47.214 10.2485C47.092 10.3705 47.092 10.3705 46.97 10.3705H46.848C46.36 10.1265 45.75 10.1265 45.14 10.1265C44.53 10.1265 44.164 10.2485 43.798 10.4925C43.432 10.7365 43.31 10.9805 43.31 11.3465C43.31 11.5905 43.432 11.8345 43.554 11.9565C43.676 12.0785 43.92 12.2005 44.164 12.3225C44.408 12.4445 44.774 12.4445 45.14 12.5665C45.75 12.6885 46.116 12.8105 46.482 12.9325C46.848 13.0545 47.092 13.2985 47.336 13.5425C47.58 13.7865 47.702 14.1525 47.702 14.6405C47.702 15.0065 47.58 15.3725 47.336 15.7385C47.092 16.1045 46.848 16.3485 46.36 16.4705C45.994 16.5925 45.506 16.7145 45.018 16.7145C43.92 16.5925 43.066 16.4705 42.334 16.1045Z" fill="black"/>
</svg>
