<svg width="61" height="61" viewBox="0 0 61 61" fill="none" xmlns="http://www.w3.org/2000/svg">
<path d="M56.3884 21.3132H33.306V34.5624H56.3884V21.3132ZM18.3488 38.2834C18.3488 37.1244 19.3248 36.1484 20.4838 36.1484C21.6428 36.1484 22.6188 37.1244 22.6188 38.2834C22.6188 39.1374 22.0698 39.9304 21.2768 40.2354L21.3378 42.8584H27.694V30.8292H4.61156V42.8584H19.6908L19.6298 40.2354C18.8978 39.9304 18.3488 39.1374 18.3488 38.2834ZM19.9958 38.2834C19.9958 38.5884 20.2398 38.7714 20.5448 38.7714C20.8498 38.7714 21.0328 38.5274 21.0328 38.2834C21.0328 38.0394 20.7888 37.7954 20.5448 37.7954C20.2398 37.7344 19.9958 37.9784 19.9958 38.2834ZM19.9958 17.092C19.9958 15.933 20.9718 14.957 22.1308 14.957C22.9848 14.957 23.7778 15.506 24.0828 16.299H31.659V11.419H17.3118V21.9842H28.548C28.975 21.9842 29.341 22.3502 29.341 22.7772V43.6636C29.341 44.0906 28.975 44.4566 28.548 44.4566H21.3988L21.4598 47.2016L44.0542 47.2626V40.4184H32.513C32.086 40.4184 31.72 40.0524 31.72 39.6254V20.4592C31.72 20.0322 32.086 19.6662 32.513 19.6662H44.0542V17.8972H24.0828C23.7778 18.6902 22.9848 19.2392 22.1308 19.2392C20.9718 19.227 19.9958 18.251 19.9958 17.092ZM21.5818 17.092C21.5818 17.397 21.8258 17.58 22.1308 17.58C22.4358 17.58 22.6188 17.336 22.6188 17.092C22.6188 16.787 22.3748 16.543 22.1308 16.543C21.8868 16.543 21.5818 16.787 21.5818 17.092ZM28.914 50.8006C29.89 49.8246 31.476 49.8246 32.452 50.8006C33.428 51.7766 33.428 53.3626 32.452 54.2776C31.476 55.2536 29.89 55.2536 28.914 54.2776C27.938 53.3748 27.938 51.7766 28.914 50.8006ZM30.073 51.9596C29.707 52.3256 29.707 52.8746 30.073 53.1796C30.378 53.4846 30.988 53.4846 31.293 53.1796C31.598 52.8136 31.598 52.2646 31.293 51.9596C30.927 51.5936 30.378 51.5936 30.073 51.9596ZM33.306 36.1484V38.7714H56.3884V36.1484H33.306ZM20.7888 25.5832C21.8258 25.5832 21.8258 27.1692 20.7888 27.1692H7.72256C6.68556 27.1692 6.68556 25.5832 7.72256 25.5832H20.7888ZM12.6636 39.1374C13.7006 39.1374 13.7006 40.7234 12.6636 40.7234H7.66156C6.62456 40.7234 6.62456 39.1374 7.66156 39.1374H12.6636ZM15.8478 36.0264C16.8848 36.0264 16.8848 37.6124 15.8478 37.6124H7.72256C6.68556 37.6124 6.68556 36.0264 7.72256 36.0264H15.8478ZM18.1658 32.9764C19.2028 32.9764 19.2028 34.5624 18.1658 34.5624H7.72256C6.68556 34.5624 6.68556 32.9764 7.72256 32.9764H18.1658ZM22.8018 48.8486L27.6208 53.4846C27.8038 53.6676 27.8648 53.8506 27.8648 54.0946V56.3638H43.92V48.7876L22.8018 48.8486ZM26.352 56.4248V54.4728L20.5448 48.8486H17.3118V56.4248H26.352ZM19.8128 47.2626L19.7518 44.5176H17.2508V47.2626H19.8128ZM4.61156 29.2432H27.694V23.619H4.61156V29.2432ZM3.81856 21.9842H15.6648V3.8428C15.6648 3.4158 16.0308 3.0498 16.4578 3.0498H44.7984C45.2254 3.0498 45.5914 3.4158 45.5914 3.8428V9.772H57.1326C57.5596 9.772 57.9256 10.138 57.9256 10.565V17.1042C57.9256 17.5312 57.5596 17.8972 57.1326 17.8972H45.6524V19.6662H57.1936C57.6206 19.6662 57.9866 20.0322 57.9866 20.4592V39.5766C57.9866 40.0036 57.6206 40.3696 57.1936 40.3696H45.6524V57.169C45.6524 57.596 45.2864 57.962 44.8594 57.962H16.5188C16.0918 57.962 15.7258 57.596 15.7258 57.169V44.5176H3.81856C3.39156 44.5176 3.02556 44.1516 3.02556 43.7246V22.7772C3.01336 22.3502 3.39156 21.9842 3.81856 21.9842ZM49.3734 30.6584C48.4584 31.1464 47.6654 29.8044 48.5804 29.2554L51.2034 27.7914L48.2754 25.8394C47.4214 25.2904 48.2754 23.9484 49.1904 24.4974L53.1554 27.1814C53.7044 27.4864 53.7044 28.2794 53.1554 28.5844L49.3734 30.6584ZM44.1762 31.2074C43.7492 32.1834 42.2852 31.5124 42.7122 30.5364L45.5182 24.5462C45.9452 23.6312 47.4092 24.3022 46.9822 25.2172L44.1762 31.2074ZM41.0652 29.3042C41.9802 29.7922 41.1872 31.1952 40.2722 30.7072L36.4902 28.5722C35.9412 28.2672 35.9412 27.4742 36.4902 27.1692L40.4552 24.4852C41.3092 23.8752 42.2242 25.2172 41.3702 25.8272L38.4422 27.7792L41.0652 29.3042ZM33.306 11.358V16.238H56.3884V11.358H33.306ZM17.3118 9.772H44.0542V4.6358H17.3118V9.772ZM33.306 6.4658C34.343 6.4658 34.343 8.0518 33.306 8.0518H28.06C27.023 8.0518 27.023 6.4658 28.06 6.4658H33.306Z" fill="black"/>
</svg>
