<svg width="64" height="64" viewBox="0 0 64 64" fill="none" xmlns="http://www.w3.org/2000/svg">
<path d="M53.9899 16.9899H50.9499V9.98988C50.9499 8.68988 49.8899 7.62988 48.5899 7.62988H15.4099C14.1099 7.62988 13.0499 8.68988 13.0499 9.98988V16.9899H10.0099C7.19991 16.9899 4.90991 19.2799 4.90991 22.0899V46.8699C4.90991 49.6799 7.19991 51.9699 10.0099 51.9699H20.2499L17.9699 55.5999C17.8699 55.7599 17.8699 55.9499 17.9599 56.1099C18.0399 56.2699 18.2099 56.3699 18.3899 56.3699H45.6099C45.7899 56.3699 45.9599 56.2699 46.0399 56.1099C46.1299 55.9499 46.1299 55.7599 46.0299 55.5999L43.7499 51.9699H53.9899C56.7999 51.9699 59.0899 49.6799 59.0899 46.8699V22.0899C59.0899 19.2799 56.7999 16.9899 53.9899 16.9899ZM14.0499 9.98988C14.0499 9.23988 14.6599 8.62988 15.4099 8.62988H48.5899C49.3399 8.62988 49.9499 9.23988 49.9499 9.98988V12.9399H14.0499V9.98988ZM14.0499 13.9399H49.9499V30.4999C49.9499 31.2499 49.3399 31.8599 48.5899 31.8599H15.4099C14.6599 31.8599 14.0499 31.2499 14.0499 30.4999V13.9399ZM54.0899 46.9699H9.90991V21.9899H13.0499V30.4999C13.0499 31.7999 14.1099 32.8599 15.4099 32.8599H48.5899C49.8899 32.8599 50.9499 31.7999 50.9499 30.4999V21.9899H54.0899V46.9699Z" fill="black"/>
<path d="M16.0301 9.34961C15.1901 9.34961 14.5101 10.0296 14.5101 10.8696C14.5101 11.6996 15.1901 12.3796 16.0301 12.3796C16.8601 12.3796 17.5401 11.6996 17.5401 10.8696C17.5401 10.0296 16.8601 9.34961 16.0301 9.34961ZM16.0301 11.3796C15.7401 11.3796 15.5101 11.1496 15.5101 10.8696C15.5101 10.5796 15.7401 10.3496 16.0301 10.3496C16.3101 10.3496 16.5401 10.5796 16.5401 10.8696C16.5401 11.1496 16.3101 11.3796 16.0301 11.3796ZM20.1401 9.34961C19.3001 9.34961 18.6201 10.0296 18.6201 10.8696C18.6201 11.6996 19.3001 12.3796 20.1401 12.3796C20.9701 12.3796 21.6501 11.6996 21.6501 10.8696C21.6501 10.0296 20.9701 9.34961 20.1401 9.34961ZM20.1401 11.3796C19.8501 11.3796 19.6201 11.1496 19.6201 10.8696C19.6201 10.5796 19.8501 10.3496 20.1401 10.3496C20.4201 10.3496 20.6501 10.5796 20.6501 10.8696C20.6501 11.1496 20.4201 11.3796 20.1401 11.3796ZM24.2501 9.34961C23.4201 9.34961 22.7401 10.0296 22.7401 10.8696C22.7401 11.6996 23.4201 12.3796 24.2501 12.3796C25.0901 12.3796 25.7701 11.6996 25.7701 10.8696C25.7701 10.0296 25.0901 9.34961 24.2501 9.34961ZM24.2501 11.3796C23.9701 11.3796 23.7401 11.1496 23.7401 10.8696C23.7401 10.5796 23.9701 10.3496 24.2501 10.3496C24.5401 10.3496 24.7701 10.5796 24.7701 10.8696C24.7701 11.1496 24.5401 11.3796 24.2501 11.3796ZM21.8271 22.2456H22.6611C23.8971 22.2456 24.9031 21.2396 24.9031 20.0036V16.5206C24.9031 16.2446 24.6791 16.0206 24.4031 16.0206C24.1271 16.0206 23.9031 16.2446 23.9031 16.5206V20.0036C23.9031 20.6886 23.3451 21.2456 22.6611 21.2456H21.8271C21.1421 21.2456 20.5851 20.6876 20.5851 20.0036V16.5206C20.5851 16.2446 20.3611 16.0206 20.0851 16.0206C19.8091 16.0206 19.5851 16.2446 19.5851 16.5206V20.0036C19.5851 21.2396 20.5911 22.2456 21.8271 22.2456ZM35.2301 22.2456H36.0641C37.3001 22.2456 38.3061 21.2396 38.3061 20.0036V16.5206C38.3061 16.2446 38.0821 16.0206 37.8061 16.0206C37.5301 16.0206 37.3061 16.2446 37.3061 16.5206V20.0036C37.3061 20.6886 36.7481 21.2456 36.0641 21.2456H35.2301C34.5451 21.2456 33.9881 20.6876 33.9881 20.0036V16.5206C33.9881 16.2446 33.7641 16.0206 33.4881 16.0206C33.2121 16.0206 32.9881 16.2446 32.9881 16.5206V20.0036C32.9881 21.2396 33.9941 22.2456 35.2301 22.2456ZM26.4831 22.2456C26.7591 22.2456 26.9831 22.0216 26.9831 21.7456V16.5196C26.9831 16.2436 26.7591 16.0196 26.4831 16.0196C26.2071 16.0196 25.9831 16.2436 25.9831 16.5196V21.7456C25.9831 22.0216 26.2071 22.2456 26.4831 22.2456ZM28.6131 23.3716C28.6691 23.3916 28.7261 23.4006 28.7821 23.4006C28.9871 23.4006 29.1791 23.2736 29.2531 23.0696L31.7931 15.9866C31.8861 15.7266 31.7511 15.4406 31.4911 15.3466C31.2311 15.2566 30.9441 15.3896 30.8511 15.6486L28.3111 22.7316C28.2181 22.9916 28.3531 23.2776 28.6131 23.3716ZM39.9021 21.6816C40.0001 21.7796 40.1281 21.8276 40.2561 21.8276C40.3841 21.8276 40.5121 21.7786 40.6101 21.6816L42.4521 19.8396L44.2941 21.6816C44.3921 21.7796 44.5201 21.8276 44.6481 21.8276C44.7761 21.8276 44.9041 21.7786 45.0021 21.6816C45.1971 21.4866 45.1971 21.1696 45.0021 20.9746L43.1601 19.1326L45.0021 17.2906C45.1971 17.0956 45.1971 16.7786 45.0021 16.5836C44.8071 16.3886 44.4901 16.3886 44.2951 16.5836L42.4531 18.4256L40.6111 16.5836C40.4161 16.3886 40.0991 16.3886 39.9041 16.5836C39.7091 16.7786 39.7091 17.0956 39.9041 17.2906L41.7461 19.1326L39.9041 20.9746C39.7091 21.1696 39.7091 21.4866 39.9041 21.6816H39.9021ZM39.0001 25.9526H45.6821C45.9581 25.9526 46.1821 25.7286 46.1821 25.4526C46.1821 25.1766 45.9581 24.9526 45.6821 24.9526H39.0001C38.7241 24.9526 38.5001 25.1766 38.5001 25.4526C38.5001 25.7286 38.7241 25.9526 39.0001 25.9526ZM18.3181 25.9526H34.3861C34.6621 25.9526 34.8861 25.7286 34.8861 25.4526C34.8861 25.1766 34.6621 24.9526 34.3861 24.9526H18.3181C18.0421 24.9526 17.8181 25.1766 17.8181 25.4526C17.8181 25.7286 18.0421 25.9526 18.3181 25.9526ZM45.6821 27.1786H24.9841C24.7081 27.1786 24.4841 27.4026 24.4841 27.6786C24.4841 27.9546 24.7081 28.1786 24.9841 28.1786H45.6821C45.9581 28.1786 46.1821 27.9546 46.1821 27.6786C46.1821 27.4026 45.9581 27.1786 45.6821 27.1786ZM18.3181 28.1786H20.7251C21.0011 28.1786 21.2251 27.9546 21.2251 27.6786C21.2251 27.4026 21.0011 27.1786 20.7251 27.1786H18.3181C18.0421 27.1786 17.8181 27.4026 17.8181 27.6786C17.8181 27.9546 18.0421 28.1786 18.3181 28.1786ZM18.3181 30.4036H45.6811C45.9571 30.4036 46.1811 30.1796 46.1811 29.9036C46.1811 29.6276 45.9571 29.4036 45.6811 29.4036H18.3181C18.0421 29.4036 17.8181 29.6276 17.8181 29.9036C17.8181 30.1796 18.0421 30.4036 18.3181 30.4036ZM13.7581 43.0316H12.4041C12.1281 43.0316 11.9041 43.2556 11.9041 43.5316C11.9041 43.8076 12.1281 44.0316 12.4041 44.0316H13.7581C14.0341 44.0316 14.2581 43.8076 14.2581 43.5316C14.2581 43.2556 14.0341 43.0316 13.7581 43.0316ZM50.4501 43.0316H17.2421C16.9661 43.0316 16.7421 43.2556 16.7421 43.5316C16.7421 43.8076 16.9661 44.0316 17.2421 44.0316H50.4501C50.7261 44.0316 50.9501 43.8076 50.9501 43.5316C50.9501 43.2556 50.7261 43.0316 50.4501 43.0316Z" fill="black"/>
</svg>
