<svg width="61" height="61" viewBox="0 0 61 61" fill="none" xmlns="http://www.w3.org/2000/svg">
<path d="M38.3964 25.8399C38.3964 20.126 33.7531 15.4773 28.0459 15.4773C25.7199 15.4773 23.5708 16.2498 21.8406 17.5515C20.1104 16.2498 17.9614 15.4773 15.6355 15.4773C9.92808 15.4773 5.28491 20.126 5.28491 25.8399C5.28491 30.0803 7.84319 33.7318 11.4946 35.3344C11.5885 40.9677 16.1919 45.5224 21.8407 45.5224C27.4896 45.5224 32.0931 40.9678 32.1869 35.3344C35.8382 33.7318 38.3964 30.0803 38.3964 25.8399ZM30.0066 33.8799C29.3649 34.0374 28.7066 34.1171 28.0459 34.1173C26.3245 34.1173 24.7247 33.5869 23.3997 32.6816C24.5777 31.3431 25.4179 29.7004 25.7823 27.8862C27.9984 29.0955 29.6036 31.291 30.0066 33.8799ZM21.8406 31.2987C20.8266 30.144 20.1269 28.7065 19.8799 27.1199C20.5088 26.966 21.1651 26.8826 21.8406 26.8826C22.5162 26.8826 23.1724 26.966 23.8013 27.1199C23.5543 28.7065 22.8546 30.144 21.8406 31.2987ZM17.8989 27.8862C18.2633 29.7002 19.1035 31.343 20.2815 32.6816C18.9566 33.5868 17.3568 34.1173 15.6355 34.1173C14.9748 34.1171 14.3165 34.0374 13.6748 33.8799C14.0778 31.291 15.6829 29.0955 17.8989 27.8862ZM21.8406 24.7972C21.1503 24.7972 20.4761 24.8665 19.8234 24.9962C20.0019 23.2373 20.7344 21.6408 21.8406 20.3812C22.9468 21.6409 23.6793 23.2373 23.8579 24.9962C23.1936 24.864 22.5179 24.7973 21.8406 24.7972ZM7.37032 25.8399C7.37032 21.2758 11.0781 17.5627 15.6355 17.5627C17.3568 17.5627 18.9566 18.0931 20.2815 18.9984C18.7096 20.7843 17.7423 23.1136 17.6998 25.6653C14.6514 27.0033 12.3657 29.7688 11.6938 33.1137C9.12038 31.7095 7.37032 28.9755 7.37032 25.8399ZM21.8406 43.437C17.5676 43.437 14.0416 40.1728 13.6182 36.0035C14.2825 36.1358 14.9582 36.2024 15.6355 36.2025C17.9615 36.2025 20.1104 35.43 21.8406 34.1283C23.5708 35.43 25.7199 36.2025 28.0459 36.2025C28.7362 36.2025 29.4104 36.1332 30.0631 36.0035C29.6398 40.1728 26.1137 43.437 21.8406 43.437ZM31.9876 33.1137C31.3157 29.7688 29.0298 27.0033 25.9815 25.6653C25.939 23.1136 24.9716 20.7843 23.3997 18.9984C24.7246 18.0932 26.3244 17.5627 28.0459 17.5627C32.6033 17.5627 36.311 21.2758 36.311 25.8399C36.311 28.9755 34.561 31.7094 31.9876 33.1137ZM59.6731 7.98535C58.8691 7.52017 57.4566 7.34226 55.2936 9.13545C53.8848 10.3033 52.444 12.0846 51.2336 14.1549C51.2245 14.169 51.2157 14.1835 51.2073 14.1981L41.9243 30.3032L41.9203 30.3111L41.9165 30.3171C40.6478 32.598 39.6271 35.0403 38.8774 37.5848C38.4163 37.7305 37.9828 37.9523 37.5949 38.241C35.3384 39.9233 34.6006 42.3446 35.3388 45.6432C35.4256 46.0308 35.4702 46.3938 35.4061 46.9062C35.2771 47.937 34.1649 50.0326 33.4942 51.1115C33.048 51.8293 33.6669 52.8084 34.5173 52.6958C37.7756 52.2614 40.5215 50.6795 42.6786 47.9939C44.2177 46.0779 44.8875 43.6022 44.4705 41.3715C44.4425 41.2242 44.4093 41.078 44.3711 40.933C46.2408 38.9803 47.878 36.8359 49.2423 34.5504L49.2459 34.5435C49.2474 34.5411 49.2491 34.539 49.2504 34.5366L58.5333 18.4314C58.5419 18.4165 58.5501 18.4013 58.5579 18.386C59.7422 16.3013 60.5618 14.1613 60.867 12.3557C61.3354 9.58525 60.4764 8.44987 59.6731 7.98535ZM41.0527 46.688C39.7321 48.3321 38.2085 49.4606 36.4347 50.1009C36.9081 49.1399 37.367 48.0305 37.4753 47.1656C37.5611 46.4802 37.5309 45.8889 37.3739 45.1879C36.8193 42.7099 37.2719 41.0832 38.8413 39.913C40.5195 38.6619 42.1074 40.0797 42.4206 41.755C42.7274 43.3957 42.2161 45.2397 41.0527 46.688ZM41.0892 37.4815C41.6586 35.686 42.3775 33.9414 43.2384 32.2659L44.3636 32.9167L46.895 34.3807C45.8614 35.9899 44.6924 37.5081 43.4009 38.9188C43.1882 38.6513 42.0068 37.6845 41.0892 37.4815ZM56.7234 17.3936C56.7165 17.4058 56.7099 17.4181 56.7034 17.4304L47.9652 32.5905L44.251 30.4426L52.9915 15.2786C52.9986 15.2672 53.0057 15.2556 53.0126 15.2439C55.4748 11.0155 58.0998 9.4858 58.6292 9.7904C59.1598 10.0975 59.1492 13.1419 56.7234 17.3936Z" fill="black"/>
<path d="M42.6387 58.1316H1.04271C0.766163 58.1316 0.500947 58.0217 0.305402 57.8262C0.109856 57.6306 0 57.3654 0 57.0889V3.91087C0 3.63433 0.109856 3.36911 0.305402 3.17357C0.500947 2.97802 0.766163 2.86816 1.04271 2.86816H42.6387C42.9153 2.86816 43.1805 2.97802 43.376 3.17357C43.5716 3.36911 43.6814 3.63433 43.6814 3.91087V25.9625H41.596V4.95358H2.08541V56.0462H41.596V51.3945H43.6814V57.0889C43.6814 57.3654 43.5716 57.6306 43.376 57.8262C43.1805 58.0217 42.9153 58.1316 42.6387 58.1316Z" fill="black"/>
</svg>
