<svg width="419" height="168" viewBox="0 0 419 168" fill="none" xmlns="http://www.w3.org/2000/svg">
<path fill-rule="evenodd" clip-rule="evenodd" d="M245.53 155.022C245.53 155.022 246.824 152.673 247.393 151.944C247.961 151.215 249.52 149.721 250.22 149.326C250.919 148.932 252.653 149.234 252.653 149.234C252.653 149.234 253.967 147.995 255.059 147.641C256.151 147.287 257.715 147.474 257.715 147.474C257.715 147.474 259.445 146.058 260.425 145.645C261.405 145.231 262.61 144.816 263.675 144.906C264.74 144.996 266.688 146.235 266.688 146.235C266.688 146.235 268.018 145.881 268.876 145.614C269.733 145.347 271.24 145.171 272.126 145.468C273.012 145.764 274.253 147.033 274.845 148.07C275.437 149.107 275.819 150.582 275.937 152.21C276.054 153.837 275.848 154.043 275.435 155.878C275.022 157.713 274.52 158.955 273.928 159.661C273.336 160.367 272.775 160.638 272.422 160.077C272.102 159.616 271.746 159.18 271.359 158.774C271.282 159.414 271.122 160.04 270.884 160.638C270.53 161.436 269.821 161.525 269.2 161.319C268.667 161.16 268.125 161.031 267.576 160.934C267.466 161.473 267.327 162.006 267.161 162.531C266.896 163.358 266.688 163.446 265.595 162.856C264.501 162.265 262.877 161.111 262.877 161.111C262.877 161.111 262.61 161.259 262.316 162.177C262.022 163.094 261.517 163.21 260.573 162.737C259.629 162.264 258.799 161.938 257.942 160.875C257.085 159.811 256.347 159.159 255.49 158.065C254.632 156.97 252.86 154.929 252.86 154.929L245.53 155.022ZM396.527 154.849L400.755 151.046L403.57 148.451L406.029 152.433L407.549 155.072L396.527 154.849Z" fill="white"/>
<path fill-rule="evenodd" clip-rule="evenodd" d="M45.8153 140.994C45.8153 140.994 44.7775 139.513 45.1465 137.724C45.3387 136.803 46.1709 135.729 47.1453 134.877C49.0134 133.242 65.1151 119.339 65.1151 119.339L83.7864 108.064L93.1692 106.752L108.717 104.844L117.954 102.445L175.035 112.255L196.291 118.497L202.122 121.336L207.165 124.754L210.576 128.668L213.234 132.854L218.414 154.928L70.0659 155.037L45.8153 140.994Z" fill="white"/>
<path fill-rule="evenodd" clip-rule="evenodd" d="M155.037 4.27027C149.948 4.63188 147.542 2.67763 141.968 4.10485C136.395 5.53207 132.38 6.20529 122.965 15.0687C121.485 16.5863 118.264 20.9084 116.47 25.1997C114.892 29.2178 114.041 33.6322 112.592 38.2582C111.315 42.2574 109.737 46.154 107.872 49.9145C104.797 55.9273 102.64 58.9972 100.717 62.244C99.179 64.8272 97.6222 67.8952 97.1379 69.9956C96.8477 70.8997 97.949 78.5532 97.6934 84.139C97.5223 87.305 93.8265 90.2441 93.8265 90.2441C94.4298 90.5961 95.1136 90.7862 95.8118 90.7962C96.8996 90.7808 98.1758 90.1826 98.1758 90.1826C98.1758 90.1826 97.4204 91.7733 95.316 93.6775C92.8828 95.8799 88.9545 98.5824 87.2958 100.968C84.2035 105.411 85.8025 107.963 85.8025 107.963L92.8156 106.738L110.355 104.701L117.689 102.568L118.458 103.235L174.839 112.322L182.682 114.805L190.383 117.156L195.926 118.779L196.212 115.615L194.19 112.137C194.19 112.137 189.478 108.773 187.483 105.432C186.294 103.431 185.845 101.076 186.213 98.7767C186.213 98.7767 186.904 100.058 188.148 100.669C189.391 101.281 191.19 101.229 191.19 101.229C191.19 101.229 189.726 99.069 191.538 95.9607C192.753 93.4775 195.959 91.8002 198.615 89.8498C201.472 87.734 203.704 85.974 204.528 83.6331C206.85 77.6703 206.398 74.2831 204.842 69.8379C204.104 67.7221 203.473 64.6984 202.535 60.736C200.925 53.4402 200.037 33.6668 197.258 26.8019C196.051 24.2322 192.165 14.6648 186.795 9.19054C182.43 4.76653 176.113 1.40813 169.421 1.02728C163.296 0.709906 157.665 4.19141 155.037 4.27027Z" fill="#262525"/>
<path fill-rule="evenodd" clip-rule="evenodd" d="M160.403 99.41C160.403 99.41 166.227 102.501 170.955 98.7291C172.959 97.1307 176.834 93.5222 179.251 90.2658C182.04 86.5111 183.366 83.0162 185.401 80.1348C189.003 74.7491 189.184 64.8374 189.659 62.2714C191.088 54.5775 186.497 50.4959 186.318 47.1048C186.278 45.791 184.056 37.295 183.424 34.6021C182.77 32.1016 178.606 30.8783 173.622 30.3147C168.081 29.6896 162.125 31.0841 159.413 33.5846C156.473 36.4333 147.209 52.2424 147.209 52.2424C147.209 52.2424 139.46 59.6036 137.488 60.5134C134.325 62.0272 134.429 61.1039 135.972 59.0323C137.515 56.9607 132.741 52.3924 132.741 52.3924C131.54 51.8059 130.268 51.3784 128.957 51.121C124.175 50.3939 122.638 54.5314 122.246 56.3587C120.466 65.5183 129.858 70.1346 129.858 70.1346C129.858 70.1346 135.338 81.2139 142.977 88.5346C150.617 95.8554 160.403 99.41 160.403 99.41Z" fill="white"/>
<path fill-rule="evenodd" clip-rule="evenodd" d="M118.152 103.296C118.152 103.296 122.296 101.314 123.341 99.9334C124.387 98.5523 126.116 95.5094 126.845 93.4436C127.573 91.3777 128.767 87.9905 129.209 85.3649C129.651 82.7394 130.139 79.2637 130.218 77.9172C130.297 76.5708 130.012 69.7578 130.012 69.7578L168.642 99.5545C168.248 100.453 168.028 101.42 167.997 102.401C167.922 104.107 167.77 106.044 167.847 106.877C167.924 107.71 168.074 108.774 168.074 108.774L174.898 112.265C174.898 112.265 172.692 119.241 166.997 124.402C161.754 129.153 153.298 132.171 146.521 131.096C140.093 130.076 132.13 126.91 127.056 120.842C120.977 113.573 118.152 103.296 118.152 103.296ZM0.594788 155.049L15.2205 115.437C15.2205 115.437 21.4283 117.614 22.4353 117.816C23.4424 118.018 28.7642 119.309 29.9731 119.591C31.1819 119.874 35.4947 120.518 36.6997 120.68C37.9048 120.842 43.1496 121.205 43.1496 121.205C43.1496 121.205 40.6108 129.774 38.6466 138.236C36.6824 146.697 35.0161 155.091 35.0161 155.091L0.594788 155.049Z" fill="white"/>
<path fill-rule="evenodd" clip-rule="evenodd" d="M34.4165 154.975L35.7714 152.948L49.932 135.804C49.932 135.804 53.2243 137.15 54.781 138.258C56.3378 139.366 60.1931 142.319 61.6691 143.771C63.1832 145.252 64.6049 146.824 65.9262 148.479C66.9332 149.786 70.187 155.06 70.187 155.06L34.4165 154.975ZM201.105 155L185.942 154.902C185.942 154.902 184.068 156.552 182.882 157.462C181.696 158.372 180.014 160.155 178.279 161.132C176.543 162.109 175.552 162.958 173.797 163.067C172.042 163.177 171.779 163.369 171.166 162.815C170.747 162.402 170.401 161.92 170.145 161.39C170.145 161.39 169.031 163.008 168.008 163.648C166.986 164.289 165.8 165.616 164.432 166.064C163.063 166.512 162.143 166.618 161.741 166.32C161.339 166.022 161.145 165.664 161.237 164.619C161.33 163.575 163.009 159.307 163.009 159.307C163.009 159.307 161.126 160.93 159.742 161.548C158.358 162.165 156.527 163.086 155.898 162.794C155.27 162.502 155.466 160.899 155.666 160.224C155.866 159.549 156.221 158.03 156.221 158.03C156.221 158.03 154.326 158.528 153.457 158.741C152.589 158.955 151.826 158.214 151.801 157.678C151.776 157.141 152.702 154.706 153.286 153.831C153.871 152.955 155.764 149.057 156.479 148.174C157.194 147.291 158.433 145.454 159.446 144.656C160.459 143.857 162.4 143.117 163.317 143.071C164.234 143.024 166.046 144.084 166.046 144.084C166.046 144.084 168.852 142.707 169.648 142.27C170.443 141.834 172.11 141.538 173.153 141.63C174.197 141.722 177.014 142.857 177.014 142.857C177.014 142.857 179.666 142.324 180.641 141.997C181.615 141.67 182.603 141.918 184.016 142.382C185.428 142.846 189.928 146.067 189.928 146.067C189.928 146.067 192.928 145.792 194.1 145.889C195.272 145.985 196.349 147.322 197.096 148.166C197.844 149.01 198.826 151.257 199.358 152.107C199.891 152.957 201.105 155 201.105 155Z" fill="white"/>
<path fill-rule="evenodd" clip-rule="evenodd" d="M273.49 146.666L284.637 143.142L288.323 144.508L291.508 145.11L332.527 133.153L338.485 134.427L343.14 134.89L346.803 143.648L349.096 150.282L350.378 154.998H275.404L275.844 151.344L274.774 148.551L273.49 146.666Z" fill="white"/>
<path fill-rule="evenodd" clip-rule="evenodd" d="M254.238 87.1738C254.238 87.1738 256.877 78.0527 261.361 74.2153C263.688 72.2226 266.114 71.459 268.136 71.3609C269.296 71.3126 270.457 71.4516 271.574 71.7725C271.574 71.7725 273.659 71.9168 277.532 69.9548C282.31 67.5639 284.701 65.175 290.086 64.3171C292.353 64.0071 294.651 63.9844 296.924 64.2498C298.749 64.4857 300.557 64.8403 302.336 65.3115L306.387 62.8322C306.387 62.8322 306.964 60.4701 309.078 59.4892C311.265 58.4793 315.172 58.6544 318.001 60.4355C319.697 61.5031 322.009 64.6672 324.278 68.4526C326.06 71.4225 326.733 73.9749 327.995 76.4408C328.85 78.0454 329.84 79.5743 330.953 81.011C330.953 81.011 329.75 88.0279 331.758 95.4756C333.767 102.923 338.989 110.796 338.989 110.796C337.948 110.545 336.879 110.433 335.81 110.461C333.828 110.55 331.582 111.2 329.919 112.275C328.74 113.021 327.827 114.122 327.313 115.42C326.948 116.437 326.8 117.52 326.879 118.598C326.879 118.598 322.758 116.944 320.642 112.058C318.526 107.172 318.413 99.0436 318.413 99.0436C317.777 100.869 317.33 102.755 317.077 104.672C316.716 107.353 316.712 110.663 317.4 113.31C317.965 115.482 318.949 118.061 320.139 119.49C322.155 121.914 324.499 122.454 324.499 122.454L321.296 122.383C321.296 122.383 317.504 121.037 315.603 117.399C313.702 113.762 313.681 107.817 313.681 107.817L312.007 110.996L271.384 128.885C271.384 128.885 270.073 130.464 268.149 130.671C266.225 130.879 263.686 129.71 263.686 129.71C262.329 130.43 260.818 130.811 259.281 130.82C256.946 130.831 253.979 129.858 252.236 127.719C250.739 125.882 249.441 122.937 249.086 120.19C248.576 116.238 249.086 111.787 249.086 111.787C249.086 111.787 248.044 113.093 247.371 115.403C246.76 117.507 246.495 120.519 246.82 122.633C247.07 124.268 247.623 125.742 248.459 126.817C249.364 127.952 250.503 128.879 251.798 129.535C251.798 129.535 250.483 129.535 249.683 129.15C247.527 128.084 245.799 125.757 244.95 122.802C244.373 120.777 244.181 118.032 244.577 115.493C245.44 110.061 248.257 104.183 250.443 98.6436C251.907 94.8894 253.174 91.0609 254.238 87.1738Z" fill="black"/>
<path fill-rule="evenodd" clip-rule="evenodd" d="M270.065 92.2409C270.065 92.2409 273.152 88.1151 275.639 90.8214C278.612 94.0702 283.999 101.581 288.371 102.555C292.698 103.366 296.778 102.712 296.778 102.712C296.778 102.712 287.553 96.1264 291.076 97.6825C292.855 98.5384 296.395 99.5771 300.001 100.254C304.125 100.954 308.43 99.8945 308.43 99.8945C309.076 101.389 309.645 102.915 310.137 104.467C311.006 107.179 311.911 110.747 311.911 110.747L313.833 108.083C313.833 108.083 314.169 111.876 314.748 114.353C315.618 118.087 318.284 120.712 318.284 120.712C318.284 120.712 314.857 128.32 312.468 131.688C306.153 140.601 297.477 144.369 297.477 144.369C297.477 144.369 294.504 145.908 290.289 144.887C286.075 143.865 280.513 141.04 276.344 136.616C271.228 131.245 270.413 125.794 268.497 119.689C267.213 115.784 265.049 111.803 265.049 111.803C265.049 111.803 269.243 108.554 270.48 105.126C271.424 101.76 270.065 92.2409 270.065 92.2409Z" fill="white"/>
<path fill-rule="evenodd" clip-rule="evenodd" d="M291.489 145.296L316.139 118.573C316.139 118.573 317.484 120.277 319.037 121.349C320.535 122.374 322.251 122.78 322.562 122.441C322.92 122.057 321.217 121.039 320.041 119.321C319.12 117.975 316.889 113.626 316.814 109.496C316.739 105.366 318.39 99.3018 318.39 99.3018C318.39 99.3018 318.886 104.88 319.641 108.656C320.041 110.658 320.739 112.589 321.713 114.384L323.01 116.159C322.812 117.032 322.683 117.92 322.626 118.814C322.589 119.956 322.829 122.82 323.371 124.043C323.913 125.267 325.364 127.825 326.385 129.027C327.405 130.229 328.599 131.547 329.875 132.087C331.151 132.628 332.668 133.338 332.668 133.338C332.668 133.338 332.283 136.748 331.564 138.504C330.846 140.26 329.554 143.64 328.412 145.148C327.271 146.656 326.408 148.145 325.303 149.464C324.198 150.784 319.393 155.065 319.393 155.065L299.855 155.119C299.855 155.119 297.057 153.509 295.953 152.33C294.85 151.151 293.955 150.291 293.299 149.253C292.644 148.214 291.489 145.296 291.489 145.296Z" fill="white"/>
<path fill-rule="evenodd" clip-rule="evenodd" d="M25.8294 73.829C26.896 71.6247 32.089 60.9417 37.9643 52.3379C41.0816 47.7677 44.593 43.3841 47.5738 39.5391C49.0787 37.6002 50.301 36.5231 51.5752 34.1533C51.9154 33.5224 52.1883 30.9911 52.959 27.2019C53.6624 23.7396 54.8175 19.2213 55.9879 14.7531C57.2891 9.78666 59.3974 2.3601 60.8292 0.90402C61.5403 0.178868 64.9094 4.04891 67.3406 7.27459C68.9316 9.3726 70.4073 11.5558 71.761 13.8144C71.761 13.8144 76.7484 13.0239 80.2174 13.1354C82.5817 13.2145 84.928 13.5781 87.2055 14.2184C87.2055 14.2184 89.6713 11.2004 92.5272 8.06321C94.6048 5.78196 97.3147 3.17566 97.7952 3.32569C98.7158 3.61036 99.4615 5.95894 99.9323 9.37312C100.449 13.1335 100.657 18.0172 100.953 19.0328C101.128 19.6368 101.914 22.3797 102.929 25.4092C103.972 28.5079 105.193 31.697 105.631 35.2189C105.902 37.3925 105.84 40.0123 105.342 41.8569C104.987 43.1802 103.734 45.7942 102.623 47.5215C101.306 49.5555 99.7949 51.4566 98.1103 53.1977C98.5812 55.1309 98.7325 57.1283 98.5582 59.1105C98.2026 62.4862 96.7727 66.2524 97.2647 69.9032C97.4877 71.5477 98.7676 72.596 99.6748 74.2695C100.649 76.0679 101.247 78.4569 101.247 79.0532C101.247 80.9189 98.5831 82.5981 94.7624 84.1965C93.9648 84.5293 91.7969 85.4737 90.4631 86.6971C89.0892 87.9777 88.1981 89.6928 87.9396 91.5539C87.6955 93.2158 82.8043 113.36 82.8043 113.36C82.8043 113.36 78.5646 115.384 71.3382 117.534C64.4271 119.553 57.3018 120.746 50.1107 121.091C41.3757 121.512 30.9897 120.129 23.5731 118.096C15.8086 115.961 11.1998 112.653 11.1998 112.653C11.1998 112.653 13.8232 102.966 16.9655 94.341C20.1751 85.5488 23.9229 77.7721 25.8294 73.829Z" fill="#1D375C"/>
<path fill-rule="evenodd" clip-rule="evenodd" d="M66.9985 16.4037C68.7724 13.1665 65.2477 7.31915 63.8447 4.23965C63.6198 3.74724 61.6614 0.313825 60.6678 1.54678C58.2077 4.62435 57.9906 10.3948 57.0546 14.1494C56.897 14.7822 56.405 17.7886 57.1084 18.2599C57.3679 18.4311 58.3058 17.8252 58.5883 17.7117C59.7702 17.2385 61.0233 16.7153 62.311 16.6153C63.4603 16.5345 66.4815 17.3482 66.9985 16.4037ZM92.7578 16.8692C93.8898 15.217 92.9116 16.7769 93.5266 12.0201C93.7419 10.3486 94.6471 8.65596 95.3332 7.1441C95.6503 6.44588 97.3954 3.26636 98.3448 3.58181C99.0751 3.82609 99.4038 6.25738 99.498 6.86905C99.9996 10.2082 100.002 13.6012 100.209 16.9519C100.236 17.3597 100.814 19.3063 100.593 19.6448C100.528 19.7448 99.2693 18.8754 99.006 18.7677C97.9451 18.3311 96.8919 17.879 95.831 17.454C95.4216 17.2828 92.7136 16.9346 92.7578 16.8692ZM86.9479 36.6445C86.0139 36.8484 83.4251 34.9134 84.953 34.3037C86.7826 33.5708 89.8519 36.004 86.9479 36.6445ZM68.5015 78.9861C65.7973 81.7079 61.6595 73.3792 63.2835 70.8171C65.1112 67.9319 73.5273 65.2159 73.4946 70.896C73.4754 74.5487 70.5829 76.8915 68.5015 78.9861ZM97.3262 83.0716C95.6695 84.3007 93.59 82.8062 92.7886 81.3578C90.9993 78.1187 93.959 74.2409 97.4204 74.3717C99.8228 74.4602 101.595 78.2456 100.851 80.3172C100.294 81.8675 97.2628 83.0928 95.8156 83.566L97.3262 83.0716Z" fill="white"/>
<path fill-rule="evenodd" clip-rule="evenodd" d="M338.552 110.131C335.867 105.987 333.762 101.493 332.297 96.7764C330.721 91.6888 329.704 85.1624 330.899 80.2575C331.526 77.682 332.65 74.8429 334.242 72.477C336.271 69.461 339.016 67.0586 341.943 65.2697C344.499 63.7364 347.292 62.6361 350.207 62.0133C352.897 61.4631 355.05 61.5747 356.741 61.5747C360.02 61.5747 366.943 64.8119 371.569 70.5343C374.152 73.6761 376.392 77.0853 378.251 80.7037C379.856 83.7947 381.269 86.9822 382.479 90.2481C382.479 90.2481 382.824 88.3804 384.67 85.6317C386.552 82.8369 389.935 81.1673 392.241 81.9482C394.547 82.7292 396.417 84.4488 397.163 87.6148C398.652 93.9623 397.267 103.387 397.267 103.387C397.267 103.387 400.37 107.834 405.604 114.215C410.837 120.595 418.206 128.902 418.206 128.902C418.206 128.902 416.028 134.265 410.632 140.793C405.235 147.322 396.602 154.819 396.602 154.819L350.616 154.975C350.616 154.975 347.745 146.069 345.166 139.78C342.586 133.49 340.297 129.791 340.297 129.791C339.059 128.825 337.737 127.971 336.348 127.239C333.967 125.996 331.001 124.913 328.954 122.901C327.225 121.208 327.015 118.783 326.883 117.294C326.638 114.576 328.576 112.414 331.839 111.26C334.48 110.316 338.552 110.131 338.552 110.131Z" fill="#1D375C"/>
<path fill-rule="evenodd" clip-rule="evenodd" d="M343.29 93.5677C343.29 93.5677 343.29 91.9482 344.059 91.3904C344.827 90.8325 345.84 90.3901 346.97 89.2514C348.1 88.1127 348.627 87.328 349.611 86.1893C350.595 85.0506 351.867 83.5502 352.93 82.8462C353.993 82.1422 355.402 81.6806 356.39 81.771C357.377 81.8614 359.424 81.9634 360.871 82.0884C362.319 82.2134 363.401 82.3519 365.044 82.0018C366.687 81.6518 367.542 81.3575 368.392 81.8403C369.241 82.3231 369.384 82.6827 369.28 83.9253C369.129 85.4697 368.592 86.9514 367.719 88.2339C366.758 89.6323 364.767 91.9347 363.506 92.8291C362.246 93.7235 359.528 95.2411 357.425 95.7951C355.323 96.3491 353.22 96.8357 351.327 96.8819C349.878 96.9427 348.429 96.7474 347.047 96.3048C346.124 96.0285 345.249 95.6134 344.451 95.0738C343.943 94.7218 343.29 93.5677 343.29 93.5677Z" fill="#F48642"/>
<path fill-rule="evenodd" clip-rule="evenodd" d="M313.806 70.7558C313.806 70.7558 311.419 69.3863 310.933 69.1921C310.446 68.9978 307.473 67.5475 306.47 67.1551C305.467 66.7627 302.311 65.3143 302.311 65.3143C302.311 65.3143 303.347 63.9679 303.789 63.6063C304.231 63.2446 305.077 62.9331 306.23 63.1369C307.383 63.3408 308.371 63.5678 309.295 64.3949C310.22 65.222 310.448 65.2681 311.5 66.5357C312.551 67.8033 313.095 68.1053 313.477 68.8958C313.86 69.6864 313.806 70.7558 313.806 70.7558Z" fill="#FF947E"/>
<path d="M165.465 101.297C161.237 101.297 153.125 98.2195 144.572 91.2546C138.83 86.6151 135.484 79.7464 135.347 79.4559C135.245 79.2458 135.231 79.0037 135.307 78.7829C135.384 78.5621 135.545 78.3808 135.755 78.2788C135.965 78.1767 136.207 78.1624 136.427 78.2389C136.648 78.3153 136.829 78.4764 136.931 78.6865C136.964 78.7539 140.252 85.4976 145.683 89.8831C155.502 97.8887 163.173 99.6929 165.852 99.5217C168.998 99.3563 174.395 95.2554 178.696 89.7716C182.732 84.7128 185.374 78.6808 186.408 75.0512C187.271 72.1448 187.562 69.9578 187.946 66.9341C188.229 64.7336 188.548 62.2389 189.172 58.7881C189.193 58.6745 189.235 58.5659 189.298 58.4687C189.36 58.3716 189.441 58.2876 189.536 58.2217C189.63 58.1558 189.737 58.1092 189.85 58.0846C189.963 58.06 190.079 58.0579 190.193 58.0784C190.306 58.0988 190.415 58.1415 190.512 58.2039C190.609 58.2663 190.693 58.3472 190.759 58.442C190.825 58.5369 190.871 58.6438 190.896 58.7566C190.92 58.8695 190.922 58.9861 190.902 59.0997C190.287 62.5082 189.97 64.9779 189.689 67.1572C189.305 70.1463 189.003 72.5083 188.102 75.5417C186.687 80.5196 183.537 86.5363 180.082 90.8622C175.352 96.8923 169.676 101.08 165.961 101.278C165.794 101.293 165.633 101.297 165.465 101.297Z" fill="#571519"/>
<path d="M171.37 72.6989C171.163 72.6991 170.963 72.6266 170.805 72.4941C170.647 72.3616 170.54 72.1775 170.504 71.9742C170.468 71.7708 170.504 71.5612 170.607 71.3821C170.71 71.203 170.872 71.0658 171.066 70.9947C172.01 70.6446 174.5 69.3732 174.689 67.7017C174.758 67.0919 174.479 66.6841 173.941 65.959C173.236 64.9972 172.269 63.7028 172.417 61.3119C172.6 59.6904 173.57 57.2937 174.425 55.576C174.534 55.3772 174.716 55.2283 174.932 55.1604C175.149 55.0925 175.383 55.1109 175.586 55.2118C175.789 55.3126 175.945 55.4881 176.022 55.7015C176.098 55.9149 176.09 56.1498 175.998 56.357C175.012 58.3478 174.293 60.352 174.168 61.4657C174.062 63.1699 174.689 64.0163 175.352 64.9107C175.928 65.6801 176.584 66.5707 176.436 67.8979C176.086 70.9908 171.85 72.5796 171.671 72.645C171.575 72.6805 171.473 72.6988 171.37 72.6989Z" fill="#571519"/>
<path fill-rule="evenodd" clip-rule="evenodd" d="M184.644 60.6881C184.875 58.655 184.139 56.8854 182.682 56.5353C181.388 56.3891 179.93 57.7221 179.678 59.9399C179.449 61.973 180.185 63.7426 181.642 64.0927C183.12 64.26 184.394 62.9059 184.644 60.6881Z" fill="#571519"/>
<path d="M189.264 48.3239C189.052 48.3226 188.847 48.2447 188.688 48.1046C188.565 47.9988 185.574 45.4694 180.898 47.1101C180.68 47.1794 180.444 47.1607 180.239 47.0581C180.035 46.9555 179.878 46.7772 179.803 46.5609C179.728 46.3446 179.74 46.1075 179.837 45.9001C179.934 45.6927 180.108 45.5312 180.322 45.4502C185.999 43.4632 189.697 46.6504 189.851 46.7851C189.984 46.9029 190.079 47.0586 190.122 47.2316C190.166 47.4045 190.155 47.5865 190.093 47.7535C190.03 47.9204 189.918 48.0644 189.772 48.1662C189.626 48.2681 189.452 48.3231 189.274 48.3239H189.264ZM187.112 59.1242C186.905 59.1247 186.704 59.051 186.547 58.9165C185.567 58.0913 183.818 57.1219 179.972 58.2548C179.752 58.3097 179.52 58.2775 179.323 58.1648C179.126 58.0522 178.981 57.8678 178.917 57.6503C178.853 57.4327 178.875 57.1989 178.979 56.9975C179.084 56.7962 179.262 56.6429 179.476 56.5698C183.02 55.5254 185.626 55.8427 187.679 57.5739C187.816 57.6902 187.915 57.8459 187.961 58.02C188.007 58.1941 187.999 58.3782 187.937 58.5473C187.875 58.7164 187.763 58.8625 187.615 58.9657C187.468 59.0688 187.292 59.1242 187.112 59.1242Z" fill="#571519"/>
<path fill-rule="evenodd" clip-rule="evenodd" d="M156.817 57.3565C157.048 55.3234 158.343 53.7846 159.656 53.7461C161.134 53.9134 162.26 55.5369 162.031 57.57C161.802 59.6031 160.505 61.1438 159.192 61.1823C157.714 61.0149 156.588 59.3896 156.817 57.3565Z" fill="#571519"/>
<path d="M167.143 45.4524C166.936 45.4529 166.736 45.3792 166.578 45.2446C162.927 42.1671 155.42 44.9369 155.345 44.9638C155.127 45.0443 154.887 45.0354 154.676 44.9391C154.465 44.8429 154.3 44.667 154.219 44.4499C154.137 44.2329 154.144 43.9922 154.238 43.7803C154.333 43.5685 154.508 43.4028 154.724 43.3192C155.072 43.1884 163.267 40.1532 167.71 43.8963C167.848 44.0131 167.947 44.1697 167.993 44.3447C168.039 44.5197 168.03 44.7047 167.966 44.8742C167.903 45.0438 167.79 45.1898 167.641 45.2922C167.491 45.3947 167.315 45.4486 167.134 45.4466L167.143 45.4524ZM164.21 56.5412C164.092 56.541 163.975 56.5168 163.866 56.4702C163.757 56.4236 163.658 56.3555 163.576 56.27C161.879 54.4966 157.797 54.939 156.317 55.843C156.118 55.9647 155.879 56.0023 155.653 55.9477C155.426 55.893 155.231 55.7506 155.109 55.5516C154.988 55.3526 154.95 55.1135 155.005 54.8868C155.059 54.6601 155.202 54.4644 155.4 54.3427C157.349 53.1501 162.415 52.5154 164.845 55.0544C164.925 55.1375 164.987 55.2355 165.029 55.343C165.071 55.4504 165.091 55.565 165.089 55.6803C165.086 55.7956 165.061 55.9092 165.015 56.0147C164.968 56.1202 164.901 56.2155 164.818 56.295C164.655 56.4536 164.437 56.5421 164.21 56.5412ZM130.485 70.3307C130.39 70.3304 130.296 70.3148 130.206 70.2845C124.387 68.3322 121.861 63.2119 121.438 59.0725C121.037 55.5064 122.253 52.4827 124.692 50.9939C127.202 49.4551 130.518 49.8302 133.791 52.0076C133.889 52.0706 133.973 52.1524 134.04 52.2485C134.106 52.3445 134.152 52.4528 134.176 52.567C134.2 52.6812 134.201 52.799 134.179 52.9136C134.157 53.0282 134.113 53.1372 134.048 53.2344C133.984 53.3316 133.9 53.4149 133.803 53.4796C133.706 53.5442 133.597 53.5888 133.483 53.6109C133.368 53.6329 133.25 53.632 133.136 53.608C133.022 53.5841 132.914 53.5376 132.818 53.4714C130.139 51.6883 127.51 51.3324 125.609 52.4961C123.766 53.6214 122.861 56.0103 123.185 58.8879C123.553 62.4925 125.738 66.9357 130.765 68.6226C130.963 68.6893 131.13 68.8239 131.237 69.0025C131.345 69.1812 131.385 69.3921 131.351 69.5978C131.318 69.8034 131.212 69.9905 131.053 70.1254C130.895 70.2603 130.693 70.3344 130.485 70.3345V70.3307Z" fill="#571519"/>
<path d="M130.051 60.922C129.882 60.9219 129.717 60.8735 129.576 60.7825C129.434 60.6914 129.321 60.5616 129.251 60.4085C129.04 59.9507 128.29 58.6889 127.406 58.3561C127.192 58.2716 127.019 58.1063 126.926 57.8958C126.832 57.6853 126.825 57.4463 126.905 57.2305C126.986 57.0146 127.148 56.8391 127.357 56.7417C127.565 56.6442 127.804 56.6327 128.021 56.7096C129.751 57.354 130.74 59.441 130.848 59.6775C130.909 59.8114 130.935 59.9583 130.924 60.1049C130.914 60.2514 130.867 60.393 130.787 60.5167C130.708 60.6404 130.599 60.7423 130.47 60.8131C130.342 60.8839 130.197 60.9213 130.051 60.922ZM191.108 101.694C190.922 101.694 190.742 101.635 190.592 101.526C190.443 101.418 190.331 101.264 190.273 101.088C188.619 96.0333 193.045 92.6729 197.329 89.4222C199.404 87.8469 201.557 86.2158 202.845 84.4731C206.537 79.4971 204.642 72.8649 202.81 66.4501L202.777 66.3405C201.297 61.3817 200.952 56.0172 200.586 50.3371C200.173 43.9377 199.747 37.3209 197.632 30.7811C195.122 23.1237 189.345 9.51314 178.855 4.42938C166.972 -1.32953 160.059 4.23702 159.769 4.48323C159.591 4.63321 159.36 4.70612 159.128 4.68592C158.896 4.66572 158.681 4.55406 158.531 4.37551C158.381 4.19696 158.309 3.96616 158.329 3.73385C158.349 3.50154 158.46 3.28677 158.639 3.13679C158.962 2.8675 166.665 -3.4319 179.62 2.84634C190.696 8.22055 196.706 22.3178 199.303 30.2425C201.486 36.9939 201.92 43.7222 202.339 50.2294C202.699 55.8075 203.037 61.0759 204.465 65.8538L204.497 65.9731C206.356 72.4783 208.462 79.8529 204.255 85.5272C202.814 87.4718 200.565 89.1818 198.39 90.8303C194.423 93.8386 190.677 96.6815 191.942 100.548C191.978 100.657 191.992 100.773 191.983 100.888C191.974 101.003 191.943 101.115 191.891 101.218C191.839 101.321 191.767 101.413 191.679 101.488C191.592 101.563 191.49 101.62 191.38 101.656C191.292 101.683 191.2 101.696 191.108 101.694Z" fill="#571519"/>
<path d="M191.503 84.8908C191.334 84.8907 191.168 84.8416 191.026 84.7494C190.884 84.6572 190.772 84.5259 190.702 84.3712C190.633 84.2165 190.61 84.0451 190.636 83.8776C190.662 83.71 190.735 83.5536 190.848 83.427C197.292 76.1755 194.613 70.2358 190.904 62.0148C189.003 57.7985 186.847 53.0187 185.636 47.3136C185.332 45.8883 185.046 44.4977 184.767 43.1531C182.955 34.3878 181.39 26.817 178.828 26.2265C177.992 26.0342 176.416 26.5747 173.639 30.2177C173.496 30.398 173.288 30.5149 173.06 30.5432C172.831 30.5715 172.601 30.509 172.418 30.3692C172.235 30.2293 172.115 30.0233 172.082 29.7953C172.05 29.5674 172.108 29.3357 172.244 29.1502C175.01 25.5283 177.229 24.0568 179.224 24.5127C182.888 25.3475 184.321 32.2874 186.493 42.7858C186.77 44.1322 187.058 45.5152 187.36 46.9366C188.532 52.457 190.646 57.1445 192.511 61.28C196.343 69.7722 199.368 76.4755 192.167 84.5849C192.085 84.6809 191.983 84.758 191.869 84.8108C191.754 84.8636 191.629 84.8909 191.503 84.8908ZM129.597 64.2287H129.449C129.216 64.2178 128.997 64.1147 128.841 63.9423C128.684 63.7699 128.602 63.5422 128.613 63.3093C128.624 63.0764 128.727 62.8574 128.899 62.7005C129.071 62.5436 129.299 62.4616 129.532 62.4726C129.591 62.4726 137.796 62.6361 147.213 50.4758C148.695 48.5523 150.148 46.1211 151.683 43.5513C155.998 36.3305 160.887 28.15 168.529 28.1288C168.762 28.1288 168.985 28.2214 169.15 28.3863C169.315 28.5511 169.407 28.7747 169.407 29.0079C169.407 29.241 169.315 29.4646 169.15 29.6294C168.985 29.7943 168.762 29.8869 168.529 29.8869C161.883 29.9042 157.263 37.6328 153.188 44.4534C151.624 47.0694 150.146 49.543 148.601 51.5511C139.162 63.7536 130.84 64.2287 129.597 64.2287ZM93.9379 90.9151C93.7406 90.9134 93.5496 90.8453 93.3956 90.7218C93.2417 90.5982 93.1339 90.4263 93.0895 90.2339C93.0451 90.0415 93.0667 89.8397 93.1509 89.6611C93.2351 89.4825 93.3769 89.3375 93.5535 89.2494C95.756 88.1472 96.8054 86.3526 96.9533 83.4251C96.9744 83.1995 97.0818 82.9907 97.2529 82.8424C97.4241 82.6941 97.6459 82.6176 97.8721 82.629C98.0982 82.6404 98.3112 82.7388 98.4666 82.9036C98.622 83.0684 98.7078 83.2869 98.7061 83.5135C98.5274 87.1008 97.1378 89.4225 94.3376 90.8228C94.2133 90.8841 94.0765 90.9157 93.9379 90.9151ZM98.4563 67.9295C98.3485 67.9302 98.2416 67.9106 98.1411 67.8718C97.9238 67.7883 97.7484 67.6219 97.6537 67.4091C97.5589 67.1963 97.5524 66.9545 97.6356 66.7369C98.9214 63.3882 100.486 61.0088 102.144 58.4871C103.751 56.0462 105.412 53.5188 107.184 49.693C110.43 42.9954 111.854 37.9251 113.113 33.453C114.666 27.9269 116.007 23.1528 120.241 17.4881C131.017 2.88697 144.841 1.0789 153.388 3.96412C153.499 3.99974 153.602 4.05706 153.69 4.13274C153.779 4.20843 153.851 4.30096 153.904 4.40497C153.956 4.50898 153.987 4.62239 153.996 4.73861C154.004 4.85483 153.989 4.97153 153.952 5.08193C153.915 5.19234 153.856 5.29423 153.779 5.3817C153.702 5.46918 153.609 5.54049 153.504 5.59147C153.399 5.64246 153.286 5.6721 153.169 5.67869C153.053 5.68528 152.937 5.66869 152.827 5.62986C144.832 2.93699 131.878 4.6912 121.65 18.5364C117.614 23.9395 116.37 28.3462 114.802 33.9243C113.526 38.4675 112.079 43.6186 108.771 50.4431C106.951 54.3728 105.177 57.0715 103.611 59.4508C101.937 61.9956 100.492 64.1922 99.275 67.3621C99.2122 67.5286 99.1002 67.6721 98.954 67.7735C98.8078 67.8748 98.6342 67.9293 98.4563 67.9295ZM170.589 21.5044C170.37 21.5043 170.159 21.4225 169.998 21.2748C169.836 21.1271 169.735 20.9243 169.715 20.7061C169.138 14.4009 163.826 9.69033 157.318 9.69033C157.261 9.69033 157.203 9.69033 157.144 9.69033C156.911 9.69033 156.687 9.59772 156.523 9.43287C156.358 9.26802 156.265 9.04443 156.265 8.8113C156.265 8.57816 156.358 8.35459 156.523 8.18974C156.687 8.02489 156.911 7.93227 157.144 7.93227H157.336C164.76 7.93227 170.826 13.318 171.483 20.5465C171.494 20.662 171.483 20.7786 171.449 20.8897C171.415 21.0007 171.359 21.1039 171.285 21.1933C171.211 21.2827 171.12 21.3566 171.018 21.4106C170.915 21.4647 170.803 21.4978 170.687 21.5082C170.655 21.5097 170.622 21.5084 170.589 21.5044Z" fill="#571519"/>
<path d="M130.825 64.0036C130.622 64.0034 130.425 63.9328 130.268 63.8039C130.111 63.6749 130.004 63.4955 129.964 63.2962C129.925 63.0969 129.955 62.89 130.051 62.7107C130.147 62.5315 130.301 62.3909 130.489 62.3129C138.161 59.1237 140.25 53.161 142.672 46.2557C144.132 42.0855 145.643 37.7712 148.52 33.628C148.586 33.5331 148.67 33.4522 148.767 33.3897C148.864 33.3273 148.972 33.2846 149.085 33.264C149.199 33.2435 149.315 33.2455 149.428 33.27C149.541 33.2945 149.648 33.341 149.742 33.4068C149.837 33.4726 149.918 33.5564 149.98 33.6535C150.043 33.7506 150.086 33.859 150.106 33.9726C150.127 34.0862 150.125 34.2028 150.1 34.3156C150.076 34.4284 150.029 34.5353 149.963 34.6301C147.223 38.579 145.751 42.778 144.328 46.8385C141.876 53.8361 139.56 60.4471 131.161 63.9363C131.055 63.9809 130.941 64.0038 130.825 64.0036ZM264.728 126.413C264.571 126.413 264.417 126.371 264.282 126.291C264.147 126.211 264.035 126.097 263.96 125.959C263.884 125.822 263.846 125.666 263.85 125.509C263.855 125.352 263.901 125.199 263.984 125.066C263.984 125.066 264.843 123.291 263.087 118.196C262.276 115.815 260.896 114.039 259.435 112.158C257.198 109.273 254.884 106.299 254.438 100.975C253.693 91.3901 261.061 72.4285 275.329 70.1992C275.549 70.1828 275.767 70.2499 275.94 70.3871C276.113 70.5243 276.228 70.7216 276.262 70.9397C276.296 71.1578 276.247 71.3808 276.124 71.5643C276.002 71.7479 275.815 71.8785 275.6 71.9303C263.392 73.8538 255.407 90.7804 256.189 100.834C256.597 105.643 258.653 108.278 260.829 111.081C262.314 112.993 263.85 114.97 264.755 117.621C265.524 119.837 265.835 121.529 265.922 122.795C266.408 122.007 266.723 121.126 266.847 120.208C266.97 119.29 266.899 118.357 266.639 117.469C266.575 117.245 266.602 117.004 266.715 116.8C266.829 116.596 267.018 116.446 267.242 116.382C267.466 116.318 267.706 116.346 267.91 116.459C268.114 116.572 268.264 116.762 268.328 116.986C269.915 122.549 265.462 126.076 265.272 126.219C265.118 126.343 264.926 126.411 264.728 126.413ZM311.834 112.094C311.754 112.095 311.674 112.084 311.598 112.062C311.432 112.015 311.283 111.921 311.17 111.791C311.058 111.66 310.986 111.5 310.963 111.329C310.963 111.265 310.095 104.843 307.66 100.309C307.605 100.208 307.571 100.096 307.559 99.9813C307.548 99.8665 307.559 99.7505 307.592 99.6399C307.625 99.5294 307.68 99.4264 307.753 99.337C307.826 99.2476 307.916 99.1734 308.017 99.1187C308.119 99.064 308.23 99.0299 308.345 99.0183C308.46 99.0067 308.576 99.0178 308.686 99.051C308.796 99.0842 308.899 99.1389 308.989 99.2119C309.078 99.2849 309.152 99.3748 309.207 99.4765C310.862 102.554 311.815 106.334 312.297 108.73C312.409 108.498 312.518 108.248 312.622 107.984C312.664 107.877 312.728 107.779 312.808 107.696C312.888 107.613 312.984 107.547 313.09 107.501C313.195 107.455 313.309 107.43 313.425 107.428C313.54 107.426 313.654 107.447 313.762 107.49C313.869 107.532 313.967 107.595 314.05 107.676C314.133 107.756 314.199 107.852 314.245 107.958C314.291 108.064 314.315 108.177 314.317 108.293C314.319 108.408 314.298 108.523 314.256 108.63C313.823 109.748 313.241 110.802 312.526 111.764C312.443 111.867 312.338 111.951 312.218 112.008C312.098 112.066 311.967 112.095 311.834 112.094Z" fill="#571519"/>
<path d="M293.201 103.974C290.978 103.974 288.089 103.462 284.893 101.622C280.761 99.1384 277.755 94.8702 275.562 91.7541C274.347 90.023 272.71 87.6821 272.056 87.7456C272.056 87.7456 271.672 87.811 271.143 89.2324C271.062 89.451 270.897 89.6284 270.685 89.7254C270.474 89.8224 270.232 89.8312 270.013 89.7499C269.795 89.6685 269.618 89.5036 269.521 89.2915C269.424 89.0794 269.415 88.8374 269.496 88.6189C269.881 87.5744 270.551 86.1683 271.831 86.0029C273.515 85.7836 274.907 87.7571 276.998 90.7405C279.217 93.895 281.983 97.8227 285.783 100.106C289.413 102.197 292.559 102.376 294.595 102.143C291.479 100.523 286.207 96.7571 282.871 88.8708C282.823 88.764 282.797 88.6487 282.794 88.5316C282.792 88.4146 282.812 88.2982 282.855 88.1893C282.898 88.0803 282.962 87.9811 283.044 87.8974C283.126 87.8136 283.223 87.747 283.331 87.7015C283.439 87.6561 283.555 87.6326 283.672 87.6325C283.789 87.6324 283.905 87.6557 284.012 87.701C284.12 87.7463 284.218 87.8128 284.3 87.8964C284.382 87.98 284.446 88.0791 284.489 88.188C289.029 98.9595 297.518 101.51 297.602 101.535C297.775 101.585 297.929 101.687 298.042 101.826C298.155 101.966 298.223 102.138 298.236 102.317C298.248 102.497 298.206 102.676 298.113 102.831C298.021 102.985 297.884 103.108 297.72 103.182C297.597 103.232 295.88 103.974 293.201 103.974Z" fill="#571519"/>
<path d="M302.292 101.207C296.674 101.225 291.253 99.1456 287.086 95.3754C287 95.298 286.931 95.2045 286.881 95.1002C286.832 94.9959 286.803 94.8829 286.797 94.7676C286.792 94.6523 286.809 94.537 286.847 94.4282C286.886 94.3195 286.946 94.2194 287.023 94.1338C287.101 94.0482 287.194 93.9786 287.298 93.9292C287.402 93.8797 287.515 93.8512 287.631 93.8454C287.746 93.8396 287.861 93.8566 287.97 93.8953C288.078 93.9341 288.178 93.9939 288.264 94.0713C295.298 100.419 304.6 100.451 310.245 97.7875C310.349 97.7383 310.462 97.7103 310.578 97.7049C310.693 97.6996 310.808 97.717 310.917 97.7562C311.025 97.7954 311.125 97.8556 311.21 97.9334C311.296 98.0112 311.365 98.1051 311.414 98.2097C311.463 98.3143 311.491 98.4275 311.497 98.5429C311.502 98.6583 311.485 98.7736 311.445 98.8823C311.406 98.991 311.346 99.0909 311.268 99.1763C311.19 99.2617 311.097 99.331 310.992 99.3801C308.571 100.519 305.542 101.207 302.292 101.207ZM260.467 112.658C260.344 112.658 260.275 112.658 260.248 112.658C260.064 112.649 259.887 112.583 259.742 112.468C259.598 112.353 259.493 112.196 259.443 112.018C259.393 111.84 259.4 111.651 259.464 111.478C259.527 111.304 259.644 111.155 259.796 111.052C260.058 110.873 266.204 106.559 263.427 98.4645C263.389 98.3554 263.373 98.2399 263.38 98.1246C263.387 98.0093 263.416 97.8964 263.466 97.7925C263.517 97.6885 263.587 97.5955 263.673 97.5187C263.759 97.442 263.86 97.383 263.969 97.3451C264.078 97.3072 264.193 97.2911 264.309 97.2979C264.424 97.3047 264.537 97.3341 264.64 97.3844C264.744 97.4348 264.837 97.5052 264.914 97.5915C264.991 97.6778 265.05 97.7784 265.087 97.8875C267.173 103.968 264.786 108.274 262.822 110.582C264.307 110.198 266.175 109.4 267.613 107.659C270.2 104.529 270.688 99.4263 269.06 92.4921C269.007 92.2651 269.046 92.0262 269.169 91.828C269.291 91.6298 269.488 91.4885 269.714 91.4352C269.941 91.3819 270.18 91.4209 270.378 91.5438C270.576 91.6666 270.717 91.8631 270.771 92.0901C272.533 99.6032 271.924 105.226 268.951 108.799C265.927 112.433 261.511 112.658 260.467 112.658ZM265.701 87.368C265.534 87.3678 265.372 87.3206 265.231 87.2317C265.091 87.1429 264.978 87.0161 264.907 86.8659C263.771 84.4712 264.046 82.113 265.676 80.2203C268.312 77.1658 273.878 75.9598 278.623 77.4159C278.846 77.4842 279.033 77.6383 279.142 77.8443C279.251 78.0503 279.274 78.2913 279.206 78.5142C279.138 78.7371 278.984 78.9238 278.778 79.0331C278.572 79.1424 278.331 79.1654 278.108 79.097C274.055 77.8544 269.177 78.8527 267.006 81.3705C265.822 82.7401 265.66 84.3346 266.492 86.1119C266.592 86.3227 266.604 86.5643 266.526 86.7839C266.447 87.0034 266.286 87.183 266.075 87.2833C265.958 87.3381 265.83 87.367 265.701 87.368Z" fill="#571519"/>
<path d="M292.849 146.162C290.574 146.162 285.454 145.48 279.281 140.311C275.21 136.778 272.89 133.981 271.259 130.646C270.284 128.482 269.541 126.008 268.76 123.387C268.376 122.125 267.991 120.819 267.555 119.493C267.303 118.612 266.765 117.553 266.198 116.429C265.353 114.758 264.469 113.027 264.226 111.39C264.212 111.17 264.281 110.954 264.418 110.782C264.556 110.611 264.753 110.497 264.97 110.464C265.187 110.431 265.409 110.48 265.591 110.602C265.774 110.724 265.904 110.911 265.956 111.124C266.164 112.482 266.977 114.086 267.759 115.637C268.366 116.835 268.941 117.968 269.227 118.978C269.658 120.286 270.054 121.605 270.436 122.881C271.205 125.445 271.931 127.864 272.846 129.898C274.384 133.021 276.498 135.574 280.417 138.974C285.623 143.333 290.582 144.629 293.486 144.381C294.245 144.293 301.392 143.227 309.703 134.139C314.044 129.413 314.955 125.087 314.965 125.043C315.011 124.813 315.146 124.611 315.341 124.482C315.536 124.352 315.774 124.305 316.004 124.351C316.233 124.397 316.435 124.533 316.564 124.728C316.694 124.923 316.741 125.161 316.694 125.391C316.654 125.583 315.674 130.246 311.004 135.327C302.447 144.685 295.052 145.968 293.668 146.13C293.459 146.149 293.184 146.162 292.849 146.162ZM318.305 110.247C318.163 110.246 318.023 110.211 317.897 110.145C317.771 110.078 317.664 109.982 317.583 109.865C317.502 109.747 317.451 109.612 317.434 109.471C317.417 109.329 317.434 109.186 317.484 109.053C317.69 108.538 317.937 108.04 318.224 107.566C318.35 107.376 318.544 107.242 318.767 107.193C318.989 107.143 319.221 107.182 319.416 107.301C319.61 107.42 319.75 107.61 319.807 107.83C319.864 108.051 319.833 108.285 319.721 108.483C319.491 108.867 319.292 109.268 319.126 109.684C319.061 109.849 318.949 109.992 318.802 110.092C318.656 110.193 318.483 110.247 318.305 110.247Z" fill="#571519"/>
<path d="M285.327 126.244C285.245 126.245 285.164 126.234 285.085 126.212C284.683 126.096 281.16 125.019 280.918 122.634C280.803 121.513 281.23 120.655 281.606 119.897C281.983 119.139 282.314 118.473 282.183 117.512C282.046 116.66 280.903 114.602 280.215 113.509C280.153 113.411 280.112 113.302 280.092 113.188C280.073 113.075 280.076 112.958 280.102 112.845C280.127 112.733 280.175 112.626 280.242 112.532C280.308 112.438 280.393 112.358 280.491 112.296C280.588 112.235 280.697 112.193 280.811 112.174C280.925 112.154 281.041 112.157 281.154 112.183C281.266 112.209 281.373 112.256 281.467 112.323C281.561 112.39 281.641 112.474 281.702 112.572C281.895 112.893 283.676 115.744 283.92 117.252C284.13 118.772 283.603 119.83 283.18 120.68C282.859 121.328 282.604 121.834 282.667 122.455C282.765 123.417 284.666 124.259 285.571 124.521C285.781 124.574 285.965 124.702 286.086 124.882C286.207 125.062 286.257 125.281 286.227 125.495C286.197 125.71 286.089 125.906 285.923 126.046C285.757 126.186 285.546 126.259 285.329 126.252L285.327 126.244Z" fill="#571519"/>
<path fill-rule="evenodd" clip-rule="evenodd" d="M297.662 111.992C297.168 110.261 295.859 109.263 294.552 109.467C293.289 109.826 292.39 111.45 292.884 113.189C293.222 114.97 294.687 115.916 295.995 115.714C297.414 115.302 298.158 113.729 297.662 111.992Z" fill="#571519"/>
<path d="M290.218 112.298C290.017 112.3 289.82 112.232 289.663 112.105C289.573 112.032 289.499 111.942 289.445 111.84C289.39 111.738 289.356 111.626 289.345 111.511C289.333 111.396 289.345 111.28 289.378 111.169C289.412 111.059 289.467 110.956 289.54 110.866C291.462 108.52 295.865 108.033 297.896 108.851C298.003 108.894 298.101 108.958 298.183 109.039C298.266 109.12 298.331 109.216 298.376 109.322C298.421 109.428 298.445 109.543 298.446 109.658C298.447 109.773 298.426 109.888 298.383 109.995C298.339 110.102 298.276 110.2 298.195 110.282C298.114 110.365 298.018 110.43 297.912 110.476C297.805 110.521 297.691 110.544 297.576 110.546C297.461 110.547 297.346 110.525 297.239 110.482C295.755 109.886 292.254 110.33 290.897 111.984C290.813 112.082 290.709 112.162 290.592 112.216C290.475 112.27 290.347 112.298 290.218 112.298ZM266.69 109.972C266.51 109.974 266.333 109.92 266.184 109.818C266.035 109.715 265.921 109.569 265.858 109.4C265.795 109.23 265.785 109.045 265.831 108.87C265.877 108.695 265.976 108.539 266.114 108.422C267.855 106.939 269.933 105.537 274.357 106.054C274.471 106.067 274.582 106.103 274.683 106.159C274.784 106.216 274.872 106.291 274.944 106.382C275.016 106.472 275.069 106.576 275.1 106.687C275.132 106.798 275.141 106.914 275.128 107.029C275.114 107.144 275.078 107.255 275.022 107.356C274.966 107.456 274.89 107.545 274.8 107.617C274.709 107.688 274.606 107.741 274.495 107.773C274.384 107.805 274.268 107.814 274.153 107.8C270.117 107.325 268.526 108.678 267.25 109.762C267.094 109.896 266.896 109.97 266.69 109.972ZM270.609 117.731C270.446 117.732 270.286 117.686 270.148 117.599C270.05 117.538 269.964 117.459 269.897 117.365C269.829 117.271 269.781 117.165 269.755 117.053C269.728 116.94 269.724 116.824 269.743 116.71C269.762 116.596 269.803 116.487 269.863 116.389C271.401 113.888 275.67 113.552 277.812 114.413C277.92 114.456 278.018 114.52 278.101 114.6C278.183 114.681 278.249 114.778 278.295 114.884C278.341 114.99 278.365 115.105 278.366 115.22C278.367 115.336 278.346 115.451 278.303 115.558C278.26 115.665 278.196 115.763 278.115 115.846C278.034 115.928 277.937 115.994 277.831 116.039C277.724 116.085 277.61 116.108 277.494 116.109C277.379 116.11 277.264 116.088 277.157 116.044C275.783 115.491 272.391 115.646 271.357 117.316C271.278 117.443 271.168 117.548 271.037 117.621C270.906 117.694 270.759 117.732 270.609 117.731Z" fill="#571519"/>
<path fill-rule="evenodd" clip-rule="evenodd" d="M273.598 118.747C273.102 117.015 273.688 115.477 274.751 115.002C276.012 114.64 277.478 115.579 277.974 117.325C278.47 119.072 277.882 120.595 276.821 121.07C275.76 121.545 274.205 120.28 273.598 118.747Z" fill="#571519"/>
<path d="M286.119 103.904C285.936 103.905 285.758 103.848 285.61 103.743C285.461 103.637 285.348 103.488 285.288 103.316C285.228 103.143 285.223 102.956 285.273 102.781C285.324 102.605 285.428 102.45 285.571 102.337C286.905 101.247 288.464 100.468 290.136 100.057C291.808 99.6452 293.55 99.6112 295.236 99.9574C295.464 100.008 295.662 100.148 295.786 100.345C295.911 100.542 295.952 100.78 295.901 101.008C295.85 101.235 295.711 101.433 295.514 101.558C295.318 101.683 295.079 101.724 294.852 101.673C293.822 101.442 290.188 100.904 286.667 103.712C286.511 103.836 286.318 103.904 286.119 103.904Z" fill="#571519"/>
<path fill-rule="evenodd" clip-rule="evenodd" d="M282.004 131.088C282.004 131.088 285.414 137.343 290.822 135.965C295.759 134.727 296.011 126.817 296.011 126.817C296.011 126.817 291.831 127.327 288.323 128.395C286.132 129.077 284.015 129.979 282.004 131.088Z" fill="white"/>
<path d="M289.242 137.048C284.314 137.048 281.362 131.759 281.233 131.509C281.123 131.307 281.097 131.071 281.159 130.849C281.221 130.628 281.367 130.44 281.566 130.326C283.635 129.184 285.815 128.254 288.072 127.552C291.604 126.475 295.728 125.965 295.901 125.944C296.027 125.929 296.155 125.941 296.275 125.979C296.396 126.018 296.507 126.082 296.6 126.168C296.694 126.253 296.767 126.358 296.817 126.475C296.866 126.592 296.889 126.718 296.885 126.844C296.874 127.194 296.553 135.435 291.035 136.818C290.449 136.969 289.847 137.047 289.242 137.048ZM283.257 131.414C284.305 132.907 286.984 136.031 290.607 135.113C293.858 134.298 294.781 129.893 295.027 127.841C292.848 128.161 290.694 128.627 288.577 129.235C286.745 129.809 284.965 130.538 283.257 131.414ZM277.647 74.2198C277.51 74.2193 277.374 74.1865 277.252 74.1241C277.129 74.0618 277.023 73.9715 276.941 73.8607C276.86 73.7498 276.805 73.6213 276.782 73.4856C276.759 73.3499 276.769 73.2107 276.809 73.0791C278.272 68.3608 282.29 65.064 288.123 63.7983C296.609 62.1403 304.969 64.0926 313.685 69.7611C313.88 69.8887 314.017 70.0887 314.065 70.3172C314.113 70.5457 314.069 70.784 313.941 70.9796C313.814 71.1753 313.614 71.3123 313.386 71.3604C313.157 71.4086 312.919 71.364 312.724 71.2364C301.636 64.0234 293.57 64.5043 288.466 65.5141C284.814 66.3066 280.099 68.357 278.472 73.5927C278.418 73.771 278.309 73.9277 278.161 74.0404C278.013 74.1531 277.833 74.2159 277.647 74.2198ZM319.022 117.092C318.817 117.092 318.618 117.02 318.46 116.889C318.302 116.757 318.195 116.575 318.158 116.373C318.121 116.17 318.155 115.962 318.256 115.783C318.357 115.603 318.517 115.465 318.709 115.392C319.481 115.069 320.192 114.613 320.807 114.045C320.985 113.913 321.205 113.852 321.426 113.875C321.646 113.898 321.849 114.004 321.995 114.17C322.141 114.337 322.218 114.553 322.212 114.774C322.205 114.996 322.116 115.207 321.961 115.365C321.186 116.069 320.294 116.632 319.326 117.029C319.229 117.067 319.126 117.089 319.022 117.092ZM118.755 103.968C118.552 103.969 118.355 103.898 118.198 103.77C118.041 103.641 117.933 103.461 117.893 103.262C117.853 103.062 117.884 102.855 117.979 102.676C118.075 102.496 118.23 102.356 118.417 102.278C126.797 98.7826 129.111 85.3375 129.576 74.6756C129.589 74.4442 129.692 74.2271 129.863 74.0704C130.034 73.9138 130.259 73.8301 130.491 73.837C130.723 73.847 130.942 73.949 131.1 74.1207C131.257 74.2924 131.34 74.5197 131.331 74.7526C130.631 90.7732 126.399 100.852 119.094 103.899C118.987 103.945 118.872 103.969 118.755 103.968ZM169.517 115.155C169.372 115.157 169.23 115.122 169.101 115.055C168.973 114.988 168.864 114.89 168.783 114.771C166.396 111.154 166.572 103.339 167.737 99.7674C167.772 99.6563 167.828 99.5531 167.903 99.4639C167.977 99.3747 168.069 99.3012 168.172 99.2477C168.276 99.1943 168.389 99.1619 168.505 99.1524C168.621 99.143 168.737 99.1567 168.848 99.1927C168.958 99.2288 169.061 99.2864 169.149 99.3624C169.237 99.4384 169.309 99.5311 169.361 99.6352C169.413 99.7393 169.444 99.8527 169.452 99.9689C169.46 100.085 169.445 100.202 169.407 100.312C168.233 103.922 168.393 111.002 170.247 113.811C170.311 113.907 170.355 114.015 170.377 114.128C170.399 114.241 170.399 114.358 170.376 114.471C170.353 114.584 170.308 114.692 170.243 114.787C170.178 114.883 170.096 114.965 169.999 115.028C169.854 115.117 169.687 115.161 169.517 115.155ZM35.6042 154.314C35.4385 154.313 35.2764 154.265 35.1365 154.177C34.9966 154.088 34.8845 153.961 34.8133 153.812C34.742 153.662 34.7144 153.495 34.7336 153.33C34.7528 153.166 34.8181 153.01 34.9219 152.881L36.3095 151.161C39.0925 147.699 43.7531 141.928 48.8615 135.892C49.0121 135.714 49.2275 135.602 49.4601 135.583C49.6928 135.563 49.9237 135.637 50.1021 135.788C50.2805 135.938 50.3918 136.154 50.4114 136.387C50.431 136.619 50.3575 136.851 50.2068 137.029C45.1138 143.04 40.4609 148.816 37.6818 152.265L36.2942 153.987C36.2111 154.089 36.1059 154.172 35.9864 154.229C35.867 154.285 35.7364 154.314 35.6042 154.314ZM45.7788 137.31C45.604 137.31 45.4332 137.258 45.2881 137.161C45.143 137.064 45.0302 136.925 44.9641 136.763C44.8981 136.601 44.8818 136.423 44.9174 136.252C44.953 136.081 45.0387 135.924 45.1638 135.802C48.1389 132.888 51.6982 129.895 55.1577 126.998C58.4384 124.244 61.5365 121.645 63.8062 119.379C63.9711 119.214 64.1947 119.122 64.4277 119.122C64.6607 119.122 64.8841 119.215 65.0488 119.38C65.2134 119.545 65.3058 119.769 65.3056 120.002C65.3054 120.235 65.2127 120.459 65.0478 120.624C62.7261 122.932 59.6011 125.567 56.2916 128.345C52.8687 131.23 49.3285 134.192 46.4015 137.058C46.3193 137.139 46.2221 137.203 46.1152 137.246C46.0083 137.289 45.894 137.311 45.7788 137.31Z" fill="#571519"/>
<path d="M85.0087 108.955C84.7975 108.947 84.5963 108.863 84.4421 108.718C84.288 108.573 84.1911 108.378 84.1694 108.167C84.1477 107.957 84.2025 107.746 84.3239 107.572C84.4452 107.399 84.6249 107.275 84.83 107.224C88.866 106.372 93.0135 105.941 97.3954 105.493C104.041 104.801 110.914 104.085 117.51 101.786C117.62 101.745 117.737 101.726 117.854 101.73C117.971 101.735 118.087 101.762 118.193 101.812C118.299 101.862 118.395 101.932 118.473 102.02C118.552 102.107 118.612 102.209 118.651 102.32C118.689 102.431 118.705 102.548 118.698 102.666C118.69 102.783 118.659 102.897 118.606 103.002C118.554 103.107 118.481 103.201 118.391 103.277C118.302 103.353 118.199 103.411 118.087 103.446C111.298 105.812 104.322 106.537 97.5761 107.241C93.2422 107.693 89.1466 108.119 85.1913 108.951C85.1308 108.959 85.0695 108.961 85.0087 108.955ZM218.12 154.946C217.915 154.945 217.716 154.873 217.559 154.741C217.402 154.609 217.295 154.426 217.259 154.224C215.687 145.678 213.465 135.457 211.935 132.397C206.956 122.429 196.226 119.45 185.849 116.57C179.54 114.82 173.017 113.008 167.954 109.63C167.855 109.568 167.768 109.486 167.701 109.39C167.633 109.294 167.586 109.185 167.561 109.07C167.536 108.955 167.535 108.836 167.557 108.72C167.579 108.605 167.624 108.495 167.689 108.397C167.754 108.299 167.839 108.215 167.937 108.151C168.035 108.086 168.145 108.042 168.261 108.02C168.376 107.999 168.495 108.001 168.61 108.027C168.724 108.052 168.833 108.1 168.929 108.169C173.757 111.39 179.859 113.083 186.318 114.876C197.064 117.859 208.178 120.942 213.507 131.61C215.533 135.669 218.212 149.702 218.985 153.907C219.007 154.034 219.002 154.164 218.969 154.288C218.936 154.413 218.876 154.528 218.793 154.627C218.711 154.726 218.608 154.806 218.492 154.861C218.375 154.916 218.249 154.945 218.12 154.946ZM85.6699 155.007C85.5033 155.007 85.3403 154.959 85.1999 154.869C85.0594 154.78 84.9473 154.652 84.8764 154.501C84.8056 154.35 84.779 154.182 84.7996 154.017C84.8203 153.851 84.8875 153.695 84.9933 153.567L88.274 149.61C88.4282 149.45 88.6371 149.355 88.8587 149.343C89.0804 149.331 89.2984 149.403 89.4688 149.545C89.6393 149.688 89.7496 149.889 89.7775 150.11C89.8054 150.33 89.7489 150.553 89.6194 150.733L86.3406 154.69C86.2584 154.788 86.1559 154.868 86.0401 154.922C85.9243 154.977 85.798 155.006 85.6699 155.007ZM172.817 163.857C172.066 163.878 171.322 163.71 170.653 163.371C170.37 163.234 170.123 163.031 169.933 162.781C169.744 162.53 169.616 162.238 169.561 161.928C169.336 160.568 170.495 159.175 171.808 157.748C172 157.539 172.167 157.364 172.279 157.223C173.071 156.201 173.809 155.137 174.491 154.038C176.342 151.164 178.256 148.192 182.142 147.113C182.232 147.088 191.636 144.657 193.641 145.013C196.941 145.576 198.463 148.548 199.806 151.168C200.273 152.076 200.711 152.934 201.213 153.707C201.34 153.902 201.385 154.14 201.337 154.369C201.289 154.597 201.153 154.797 200.957 154.925C200.762 155.052 200.524 155.097 200.296 155.049C200.068 155.001 199.868 154.864 199.741 154.669C199.196 153.797 198.697 152.898 198.244 151.976C196.975 149.504 195.778 147.167 193.345 146.752C192.22 146.571 185.063 148.135 182.609 148.814C179.369 149.708 177.793 152.157 175.967 154.99C175.253 156.142 174.478 157.256 173.645 158.325C173.518 158.485 173.326 158.695 173.101 158.941C172.578 159.518 171.191 161.014 171.295 161.634C171.295 161.655 171.31 161.72 171.487 161.826C173.007 162.649 176.511 161.826 180.904 158.098C181.177 157.869 181.577 157.475 182.034 157.029C183.501 155.596 184.692 154.471 185.565 154.105C186.668 153.644 187.871 153.528 189.024 153.418C189.66 153.357 190.262 153.299 190.819 153.188C190.933 153.165 191.05 153.165 191.163 153.187C191.277 153.21 191.385 153.254 191.481 153.319C191.578 153.383 191.661 153.466 191.725 153.562C191.79 153.658 191.834 153.766 191.857 153.88C191.88 153.994 191.88 154.111 191.857 154.225C191.835 154.338 191.79 154.446 191.726 154.543C191.662 154.639 191.579 154.722 191.483 154.787C191.387 154.851 191.279 154.896 191.165 154.919C190.518 155.048 189.845 155.111 189.191 155.177C188.119 155.28 187.106 155.369 186.249 155.736C185.615 156 184.135 157.437 183.268 158.293C182.776 158.773 182.351 159.189 182.044 159.447C178.198 162.695 175.04 163.857 172.817 163.857Z" fill="#571519"/>
<path d="M162.535 167.223C161.729 167.223 160.939 166.978 160.572 166.205C159.546 164.039 161.948 159.6 164.499 155.241C164.845 154.651 165.129 154.166 165.298 153.843C167.474 149.715 169.265 147.33 174.124 144.098L174.7 143.714C176.68 142.379 179.157 140.715 181.836 140.932C184.466 141.144 186.737 142.804 188.744 144.27C189.278 144.654 189.801 145.039 190.314 145.383C190.508 145.513 190.642 145.714 190.688 145.942C190.734 146.171 190.687 146.409 190.558 146.603C190.429 146.797 190.228 146.932 189.999 146.978C189.771 147.023 189.533 146.976 189.339 146.847C188.807 146.493 188.263 146.095 187.708 145.693C185.801 144.3 183.831 142.862 181.696 142.69C179.617 142.512 177.526 143.931 175.68 145.176L175.104 145.56C170.536 148.597 168.933 150.731 166.863 154.66C166.684 154.999 166.388 155.507 166.025 156.126C164.776 158.263 161.455 163.941 162.169 165.449C162.314 165.524 163.111 165.466 163.707 165.237C165.569 164.53 168.114 162.472 169.261 160.746C169.324 160.648 169.406 160.563 169.502 160.497C169.598 160.431 169.706 160.384 169.82 160.36C169.934 160.336 170.052 160.335 170.167 160.357C170.281 160.379 170.39 160.424 170.487 160.488C170.584 160.553 170.667 160.636 170.732 160.733C170.797 160.831 170.841 160.94 170.863 161.054C170.885 161.169 170.884 161.287 170.86 161.401C170.836 161.515 170.79 161.623 170.724 161.719C169.379 163.735 166.517 166.049 164.332 166.88C163.757 167.097 163.149 167.213 162.535 167.223Z" fill="#571519"/>
<path d="M156.64 163.698C156.309 163.707 155.981 163.642 155.679 163.506C155.495 163.417 155.332 163.291 155.2 163.136C155.068 162.98 154.969 162.799 154.91 162.604C154.353 160.72 155.487 158.453 156.413 156.631C156.663 156.137 156.894 155.681 157.059 155.285C159.694 148.981 161.996 145.431 167.964 142.309C171.637 140.385 174.769 140.401 177.272 142.357C177.363 142.428 177.439 142.516 177.496 142.617C177.553 142.717 177.589 142.828 177.604 142.942C177.618 143.057 177.609 143.173 177.579 143.284C177.548 143.396 177.495 143.5 177.425 143.591C177.354 143.682 177.266 143.758 177.165 143.815C177.065 143.872 176.954 143.909 176.84 143.923C176.725 143.937 176.609 143.929 176.498 143.898C176.387 143.867 176.283 143.815 176.192 143.744C174.254 142.23 171.829 142.268 168.777 143.865C163.255 146.75 161.199 149.934 158.679 155.964C158.501 156.391 158.253 156.885 157.984 157.422C157.276 158.822 156.321 160.718 156.556 161.942C157.01 161.924 157.457 161.829 157.88 161.661C159.742 160.944 161.66 159.48 163.011 157.745C163.155 157.561 163.365 157.442 163.597 157.413C163.828 157.385 164.061 157.449 164.245 157.593C164.429 157.736 164.548 157.947 164.577 158.179C164.605 158.41 164.54 158.644 164.397 158.828C162.834 160.83 160.69 162.461 158.512 163.302C157.916 163.541 157.282 163.675 156.64 163.698Z" fill="#571519"/>
<path d="M153.213 159.845C152.921 159.849 152.63 159.803 152.352 159.71C152.07 159.617 151.814 159.458 151.606 159.246C151.397 159.034 151.241 158.776 151.151 158.493C150.605 156.848 151.947 154.682 152.925 153.107C153.117 152.805 153.279 152.53 153.402 152.315C153.682 151.815 153.959 151.284 154.245 150.739C156.167 147.085 158.545 142.555 163.62 142.493C164.774 142.505 165.66 142.995 166.444 143.528C166.637 143.659 166.77 143.861 166.814 144.09C166.858 144.319 166.809 144.556 166.678 144.75C166.547 144.943 166.345 145.076 166.117 145.12C165.888 145.164 165.651 145.115 165.458 144.984C164.749 144.501 164.226 144.24 163.644 144.251C159.607 144.299 157.588 148.156 155.8 151.561C155.508 152.12 155.224 152.663 154.935 153.176C154.801 153.417 154.62 153.709 154.418 154.036C153.759 155.102 152.531 157.083 152.817 157.947C152.822 157.973 152.834 157.998 152.853 158.018C152.872 158.037 152.896 158.051 152.923 158.056C153.519 158.26 155.097 157.641 155.875 157.123C156.069 156.999 156.304 156.956 156.53 157.003C156.755 157.051 156.953 157.185 157.08 157.377C157.208 157.569 157.255 157.803 157.212 158.03C157.168 158.256 157.037 158.456 156.848 158.587C156.828 158.595 154.897 159.845 153.213 159.845ZM35.3409 155.023C35.2906 155.023 35.2404 155.019 35.191 155.009C35.0772 154.99 34.9684 154.949 34.8707 154.888C34.773 154.826 34.6884 154.746 34.6218 154.652C34.5551 154.558 34.5078 154.451 34.4824 154.339C34.4571 154.226 34.4543 154.109 34.4741 153.996C36.0347 144.89 40.4166 126.578 42.0983 121.506C42.132 121.393 42.1879 121.289 42.2628 121.198C42.3378 121.107 42.4301 121.033 42.5344 120.978C42.6387 120.924 42.7528 120.891 42.87 120.882C42.9872 120.872 43.1051 120.887 43.2167 120.924C43.3283 120.961 43.4313 121.02 43.5196 121.098C43.6079 121.175 43.6798 121.27 43.7309 121.376C43.782 121.482 43.8113 121.597 43.8171 121.715C43.8229 121.832 43.805 121.95 43.7646 122.06C42.1002 127.082 37.7548 145.248 36.2057 154.292C36.1708 154.496 36.0649 154.682 35.9067 154.815C35.7484 154.949 35.548 155.023 35.3409 155.023ZM0.88111 155.173C0.768344 155.173 0.656687 155.151 0.55246 155.108C0.444263 155.064 0.345731 155 0.262614 154.919C0.179497 154.837 0.113461 154.74 0.0683706 154.632C0.0232802 154.525 3.97231e-05 154.409 5.08721e-08 154.293C-3.96214e-05 154.176 0.0231247 154.061 0.0681419 153.953C2.61851 147.652 8.52453 131.145 12.0512 121.283C12.9161 118.867 13.6599 116.79 14.2114 115.257C14.2905 115.037 14.4533 114.859 14.6641 114.759C14.875 114.66 15.1166 114.649 15.3358 114.728C15.5549 114.807 15.7338 114.97 15.8329 115.181C15.932 115.392 15.9433 115.634 15.8643 115.853C15.3127 117.392 14.5689 119.462 13.706 121.876C9.94289 132.389 4.25982 148.279 1.696 154.613C1.63197 154.778 1.52001 154.919 1.37468 155.019C1.22935 155.118 1.05738 155.172 0.88111 155.173ZM342.594 135.713H342.504C337.507 135.205 331.856 134.628 328.42 132.128C325.958 130.335 323.944 127.721 322.078 123.905C321.976 123.695 321.961 123.454 322.037 123.233C322.113 123.013 322.274 122.832 322.483 122.73C322.693 122.628 322.934 122.613 323.154 122.689C323.375 122.765 323.556 122.926 323.658 123.135C325.387 126.684 327.23 129.098 329.452 130.706C332.506 132.93 337.909 133.48 342.679 133.976C342.9 134.001 343.104 134.11 343.249 134.281C343.393 134.451 343.467 134.67 343.456 134.893C343.445 135.116 343.35 135.326 343.189 135.482C343.029 135.637 342.815 135.725 342.592 135.728L342.594 135.713ZM299.78 154.782C299.738 154.785 299.696 154.785 299.655 154.782C299.541 154.766 299.431 154.728 299.331 154.669C299.232 154.61 299.145 154.532 299.076 154.44C299.007 154.347 298.957 154.242 298.928 154.131C298.899 154.019 298.893 153.902 298.909 153.788C299.157 152.057 297.756 147.125 295.996 145.517C295.835 145.357 295.742 145.142 295.736 144.915C295.731 144.689 295.813 144.469 295.965 144.301C296.118 144.134 296.329 144.032 296.555 144.016C296.781 144.001 297.004 144.073 297.178 144.219C299.403 146.244 300.966 151.82 300.648 154.028C300.618 154.238 300.514 154.429 300.355 154.567C300.195 154.706 299.991 154.782 299.78 154.782ZM274.151 147.485C273.937 147.486 273.729 147.409 273.567 147.267C273.406 147.126 273.302 146.93 273.275 146.717C273.247 146.504 273.299 146.289 273.42 146.111C273.541 145.933 273.722 145.806 273.93 145.754C276.45 145.094 279.237 144.169 281.933 143.272L283.747 142.67C283.967 142.601 284.206 142.622 284.411 142.727C284.616 142.833 284.772 143.015 284.844 143.234C284.916 143.453 284.899 143.692 284.797 143.899C284.695 144.106 284.515 144.264 284.297 144.34L282.486 144.94C279.763 145.846 276.949 146.781 274.374 147.454C274.301 147.474 274.227 147.484 274.151 147.485ZM407.13 155.069C406.983 155.07 406.838 155.033 406.708 154.963C406.579 154.893 406.47 154.791 406.39 154.667C405.195 152.851 404.101 150.971 403.111 149.035C403.007 148.826 402.99 148.585 403.063 148.364C403.137 148.142 403.296 147.959 403.504 147.855C403.713 147.751 403.954 147.734 404.175 147.807C404.396 147.881 404.579 148.04 404.683 148.248C405.643 150.128 406.706 151.952 407.866 153.715C407.928 153.812 407.971 153.92 407.992 154.033C408.013 154.147 408.011 154.263 407.987 154.376C407.962 154.489 407.916 154.596 407.851 154.69C407.785 154.785 407.701 154.866 407.604 154.929C407.463 155.021 407.298 155.07 407.13 155.069ZM261.47 163.775C259.491 163.775 257.075 161.382 257.05 161.355C256.243 160.538 255.484 159.505 254.744 158.506C253.662 157.035 252.545 155.515 251.252 154.611C251.153 154.547 251.068 154.463 251.003 154.366C250.937 154.268 250.891 154.158 250.869 154.042C250.846 153.927 250.847 153.808 250.872 153.692C250.896 153.577 250.944 153.468 251.011 153.371C251.078 153.275 251.164 153.193 251.264 153.13C251.364 153.068 251.475 153.026 251.591 153.007C251.708 152.988 251.826 152.993 251.941 153.021C252.055 153.049 252.163 153.1 252.257 153.171C253.794 154.24 254.992 155.879 256.158 157.464C256.809 158.398 257.523 159.286 258.295 160.122C259.13 160.968 260.928 162.149 261.563 162.007C261.59 162.007 261.632 161.992 261.686 161.836C261.834 161.413 261.301 160.343 260.988 159.703C260.805 159.352 260.641 158.991 260.498 158.622C260.392 158.324 260.292 158.012 260.19 157.693C259.87 156.689 259.537 155.65 258.918 154.906C257.619 153.344 252.893 149.799 250.846 150.191C249.972 150.355 247.865 152.659 246.249 155.223C246.125 155.42 245.927 155.56 245.7 155.611C245.473 155.663 245.234 155.621 245.037 155.497C244.84 155.373 244.701 155.175 244.649 154.947C244.598 154.72 244.639 154.481 244.763 154.284C245.109 153.732 248.223 148.899 250.529 148.462C253.694 147.871 259.072 152.342 260.267 153.78C261.105 154.788 261.507 156.048 261.863 157.158C261.959 157.456 262.055 157.75 262.153 158.029C262.274 158.334 262.41 158.633 262.562 158.924C263.085 159.98 263.734 161.293 263.344 162.413C263.247 162.735 263.068 163.025 262.823 163.255C262.578 163.485 262.276 163.647 261.949 163.723C261.792 163.758 261.631 163.775 261.47 163.775Z" fill="#571519"/>
<path d="M266.358 163.939C265.228 163.939 264.067 163.091 263.61 162.756C263.011 162.314 262.439 161.836 261.899 161.323C261.81 161.246 261.738 161.152 261.686 161.046C261.634 160.94 261.604 160.824 261.598 160.707C261.592 160.589 261.609 160.471 261.649 160.36C261.69 160.249 261.752 160.148 261.832 160.061C261.912 159.975 262.009 159.906 262.116 159.857C262.224 159.809 262.34 159.783 262.458 159.781C262.576 159.779 262.693 159.8 262.802 159.844C262.912 159.888 263.011 159.953 263.094 160.037C263.585 160.5 264.102 160.934 264.644 161.337C266.016 162.337 266.435 162.168 266.439 162.166C266.769 161.939 266.848 160.138 266.123 157.48C265.013 153.412 264.163 151.021 259.589 149.209C258.674 148.848 255.553 147.794 253.889 149.429C253.806 149.509 253.709 149.573 253.602 149.617C253.495 149.66 253.38 149.682 253.265 149.681C253.15 149.68 253.036 149.656 252.929 149.611C252.823 149.566 252.727 149.5 252.646 149.418C252.565 149.336 252.501 149.238 252.458 149.131C252.415 149.024 252.393 148.909 252.394 148.794C252.396 148.561 252.49 148.338 252.657 148.174C254.313 146.545 257.077 146.326 260.235 147.574C265.453 149.634 266.623 152.648 267.813 157.011C268.474 159.442 268.945 162.56 267.428 163.607C267.114 163.825 266.74 163.941 266.358 163.939Z" fill="#571519"/>
<path d="M269.669 162.298C269.093 162.298 268.435 162.106 267.678 161.721C267.47 161.616 267.312 161.433 267.238 161.212C267.165 160.991 267.183 160.749 267.287 160.541C267.392 160.333 267.575 160.174 267.796 160.101C268.017 160.027 268.258 160.045 268.466 160.15C269.271 160.555 269.731 160.584 269.883 160.484C270.338 160.182 270.227 158.38 270.179 157.611C270.154 157.226 270.132 156.86 270.138 156.587C270.138 156.241 270.161 155.887 270.177 155.529C270.25 153.862 270.327 152.136 269.446 150.85C267.35 147.772 265.41 146.11 263.669 145.895C261.978 145.685 260.381 146.279 258.805 147.728C258.72 147.806 258.62 147.866 258.512 147.906C258.403 147.945 258.288 147.963 258.173 147.958C258.058 147.953 257.944 147.925 257.84 147.877C257.735 147.828 257.641 147.759 257.563 147.674C257.485 147.589 257.425 147.489 257.385 147.381C257.346 147.272 257.328 147.157 257.333 147.041C257.338 146.926 257.366 146.813 257.414 146.708C257.463 146.603 257.532 146.509 257.617 146.431C259.568 144.641 261.678 143.869 263.886 144.15C266.177 144.435 268.47 146.302 270.897 149.857C272.106 151.63 272.014 153.742 271.931 155.606C271.916 155.951 271.901 156.289 271.895 156.62C271.895 156.855 271.91 157.162 271.931 157.503C272.026 159.017 272.154 161.088 270.849 161.95C270.5 162.182 270.089 162.304 269.669 162.298Z" fill="#571519"/>
<path d="M273.008 160.923C272.281 160.923 271.564 160.448 270.874 159.507C270.801 159.414 270.747 159.308 270.716 159.194C270.685 159.08 270.677 158.961 270.693 158.844C270.709 158.728 270.748 158.615 270.808 158.513C270.868 158.412 270.948 158.324 271.043 158.254C271.138 158.184 271.246 158.134 271.361 158.107C271.476 158.079 271.595 158.076 271.711 158.095C271.827 158.115 271.938 158.158 272.038 158.222C272.137 158.286 272.222 158.369 272.289 158.466C272.764 159.113 273.015 159.165 273.019 159.165C273.173 159.097 273.559 158.651 274.113 156.458L274.188 156.166C275.133 152.575 275.456 150.857 273.188 147.77C271.868 145.97 270.269 145.625 268.159 146.687C268.055 146.747 267.94 146.785 267.821 146.799C267.702 146.813 267.581 146.803 267.467 146.768C267.352 146.734 267.245 146.676 267.154 146.599C267.062 146.522 266.987 146.426 266.933 146.319C266.88 146.212 266.849 146.095 266.842 145.975C266.835 145.855 266.853 145.736 266.895 145.623C266.936 145.51 267 145.407 267.082 145.321C267.165 145.234 267.264 145.164 267.375 145.117C270.269 143.661 272.771 144.219 274.611 146.731C277.336 150.442 276.899 152.786 275.892 156.614L275.821 156.887C275.473 158.27 274.889 160.588 273.34 160.892C273.231 160.913 273.119 160.923 273.008 160.923ZM322.699 123.415C322.483 123.415 322.275 123.335 322.114 123.192C321.953 123.048 321.851 122.85 321.826 122.636C321.617 120.778 321.675 118.899 321.999 117.058C322.014 116.94 322.053 116.827 322.113 116.725C322.173 116.623 322.254 116.534 322.349 116.464C322.444 116.394 322.553 116.344 322.668 116.316C322.783 116.289 322.902 116.285 323.019 116.305C323.136 116.326 323.247 116.369 323.346 116.433C323.446 116.497 323.531 116.581 323.597 116.679C323.664 116.777 323.71 116.888 323.732 117.004C323.755 117.12 323.753 117.24 323.729 117.356C323.433 119.034 323.379 120.746 323.569 122.44C323.583 122.554 323.573 122.67 323.542 122.781C323.511 122.892 323.458 122.995 323.386 123.086C323.315 123.176 323.226 123.251 323.126 123.308C323.025 123.364 322.915 123.4 322.8 123.413C322.767 123.417 322.732 123.417 322.699 123.415ZM313.308 70.3825C313.113 70.3826 312.924 70.3178 312.77 70.1983C312.617 70.0789 312.507 69.9115 312.459 69.7228C311.972 67.8339 308.784 64.3697 306.064 63.985C304.95 63.8273 304.114 64.2466 303.51 65.268C303.452 65.3674 303.374 65.4542 303.282 65.5236C303.189 65.5929 303.084 65.6434 302.973 65.6722C302.861 65.7009 302.745 65.7074 302.631 65.6912C302.516 65.6749 302.406 65.6364 302.307 65.5776C302.208 65.5189 302.121 65.4412 302.052 65.3489C301.982 65.2566 301.932 65.1516 301.903 65.0397C301.874 64.9279 301.868 64.8115 301.884 64.6972C301.9 64.5829 301.939 64.4729 301.998 64.3735C302.959 62.7444 304.496 61.9846 306.31 62.2443C309.626 62.7136 313.462 66.5721 314.16 69.2842C314.188 69.3961 314.195 69.5126 314.179 69.627C314.163 69.7415 314.124 69.8516 314.065 69.9511C314.007 70.0506 313.929 70.1376 313.837 70.207C313.744 70.2764 313.639 70.3269 313.527 70.3556C313.456 70.374 313.382 70.383 313.308 70.3825ZM251.949 130.38C249.97 130.38 248.263 129.61 246.874 128.112C244.144 125.156 243.328 120.022 243.724 116.5C244.158 112.62 246.143 107.417 248.44 101.393C249.163 99.504 249.908 97.5459 250.639 95.5416C251.069 94.3625 251.517 92.9757 251.984 91.5023C254.961 82.3004 259.46 68.3898 271.086 70.8903C271.314 70.9393 271.513 71.0768 271.639 71.2727C271.766 71.4686 271.809 71.7067 271.76 71.9348C271.711 72.1628 271.574 72.362 271.378 72.4886C271.183 72.6152 270.945 72.6589 270.717 72.6099C260.646 70.4479 256.604 82.9294 253.656 92.0371C253.175 93.522 252.722 94.9223 252.282 96.1321C251.548 98.1422 250.798 100.11 250.075 102.008C247.819 107.921 245.872 113.028 245.463 116.685C245.1 119.922 245.909 124.471 248.154 126.908C248.652 127.468 249.268 127.911 249.957 128.205C250.647 128.498 251.393 128.635 252.142 128.606C252.257 128.6 252.373 128.617 252.483 128.657C252.592 128.697 252.691 128.758 252.776 128.838C252.861 128.917 252.929 129.013 252.976 129.119C253.022 129.226 253.047 129.34 253.049 129.456C253.053 129.572 253.034 129.687 252.994 129.795C252.953 129.903 252.892 130.002 252.813 130.086C252.734 130.17 252.64 130.238 252.535 130.285C252.43 130.333 252.316 130.359 252.201 130.362L251.949 130.38Z" fill="#571519"/>
<path d="M252.222 130.184C252.158 130.185 252.093 130.178 252.03 130.165C249.516 129.624 247.669 127.876 246.685 125.112C244.969 120.282 246.337 113.709 248.642 110.83C248.714 110.74 248.803 110.665 248.904 110.609C249.005 110.554 249.116 110.519 249.231 110.506C249.346 110.494 249.462 110.504 249.573 110.536C249.683 110.568 249.787 110.622 249.877 110.694C249.967 110.767 250.041 110.856 250.097 110.957C250.152 111.058 250.187 111.169 250.2 111.284C250.213 111.399 250.203 111.515 250.17 111.626C250.138 111.737 250.084 111.84 250.012 111.93C248.004 114.442 246.86 120.361 248.34 124.521C249.12 126.714 250.487 128.034 252.399 128.445C252.605 128.497 252.785 128.622 252.906 128.796C253.027 128.971 253.081 129.183 253.057 129.395C253.034 129.606 252.935 129.801 252.779 129.945C252.622 130.089 252.419 130.171 252.207 130.176L252.222 130.184Z" fill="#571519"/>
<path d="M259.051 131.705C256.811 131.718 254.643 130.92 252.945 129.458C248.803 125.942 247.066 118.698 248.628 111.429C248.649 111.313 248.693 111.202 248.757 111.103C248.822 111.004 248.905 110.919 249.003 110.854C249.101 110.788 249.211 110.742 249.327 110.72C249.443 110.698 249.562 110.699 249.678 110.724C249.793 110.749 249.902 110.796 249.999 110.864C250.095 110.932 250.177 111.019 250.239 111.119C250.302 111.22 250.343 111.332 250.361 111.448C250.379 111.565 250.374 111.684 250.345 111.799C248.917 118.452 250.418 125.009 254.083 128.116C256.477 130.149 259.604 130.483 263.129 129.091C263.345 129.005 263.587 129.009 263.8 129.102C264.014 129.195 264.181 129.369 264.267 129.585C264.352 129.802 264.348 130.043 264.256 130.257C264.163 130.47 263.989 130.638 263.773 130.724C262.275 131.348 260.673 131.68 259.051 131.705Z" fill="#571519"/>
<path d="M267.405 131.555C266.933 131.553 266.462 131.501 266 131.401C263.071 130.77 260.36 128.347 259.695 125.763C259.637 125.537 259.67 125.298 259.789 125.097C259.908 124.896 260.101 124.75 260.327 124.692C260.553 124.634 260.792 124.668 260.993 124.787C261.194 124.905 261.339 125.099 261.397 125.325C261.899 127.275 264.088 129.191 266.369 129.682C267.459 129.916 268.985 129.918 270.046 128.591C270.192 128.409 270.404 128.293 270.635 128.267C270.867 128.242 271.099 128.309 271.281 128.455C271.463 128.601 271.579 128.813 271.604 129.045C271.63 129.277 271.562 129.509 271.416 129.691C270.935 130.289 270.324 130.768 269.628 131.091C268.932 131.415 268.172 131.573 267.405 131.555ZM330.413 81.4618C330.26 81.4621 330.11 81.4223 329.977 81.3463C329.844 81.2704 329.733 81.161 329.656 81.029C328.843 79.648 328.249 78.5939 327.734 77.6129C326.871 75.9722 326.137 74.343 325.428 72.7657C323.838 69.2342 322.335 65.897 319.616 62.906C317.863 60.9825 313.735 59.2821 310.612 59.9438C308.94 60.2977 307.825 61.2787 307.298 62.8617C307.263 62.9728 307.206 63.0758 307.131 63.1647C307.056 63.2536 306.963 63.3266 306.86 63.3795C306.756 63.4324 306.643 63.4641 306.527 63.4728C306.41 63.4815 306.294 63.467 306.183 63.4301C306.073 63.3933 305.971 63.3348 305.883 63.2581C305.795 63.1814 305.724 63.0881 305.673 62.9835C305.621 62.8788 305.591 62.765 305.584 62.6487C305.577 62.5324 305.594 62.4158 305.632 62.3058C306.36 60.1188 307.958 58.7089 310.245 58.2242C314.002 57.4279 318.797 59.3917 320.913 61.723C323.819 64.9218 325.376 68.3802 327.025 72.0444C327.724 73.5967 328.447 75.2009 329.285 76.7935C329.788 77.7552 330.369 78.7805 331.166 80.1365C331.246 80.2698 331.288 80.4217 331.289 80.5768C331.291 80.7319 331.251 80.8845 331.174 81.0192C331.098 81.1539 330.987 81.2659 330.852 81.3436C330.718 81.4214 330.566 81.4621 330.411 81.4618H330.413Z" fill="#571519"/>
<path d="M322.641 123.413C321.15 123.406 319.702 122.915 318.515 122.012C315.09 119.5 313.266 114.07 313.024 110.087C312.787 106.219 313.6 102.543 314.402 98.9882C314.746 97.4494 315.101 95.8606 315.363 94.2814C316.4 88.0455 315.993 79.4706 314.373 73.4367C313.698 70.9246 312.705 69.1819 310.948 67.4219C310.791 67.2555 310.706 67.0347 310.709 66.8062C310.713 66.5777 310.805 66.3595 310.966 66.1979C311.128 66.0363 311.346 65.944 311.574 65.9405C311.803 65.9371 312.023 66.0227 312.19 66.1794C314.158 68.1471 315.316 70.1821 316.07 72.9808C317.75 79.234 318.17 88.1128 317.094 94.5699C316.823 96.1972 316.464 97.811 316.114 99.3787C315.311 102.974 314.553 106.369 314.769 109.987C314.996 113.689 316.708 118.525 319.545 120.604C320.182 121.088 320.923 121.419 321.709 121.57C322.495 121.721 323.305 121.69 324.077 121.478C324.298 121.432 324.529 121.474 324.721 121.595C324.912 121.716 325.049 121.906 325.104 122.126C325.159 122.346 325.127 122.578 325.015 122.775C324.902 122.972 324.718 123.117 324.501 123.182C323.893 123.334 323.268 123.412 322.641 123.413Z" fill="#571519"/>
<path d="M324.469 123.279C323.221 123.279 321.165 122.231 319.383 119.894C317.306 117.165 314.304 110.825 317.548 99.009C317.615 98.7902 317.764 98.606 317.964 98.4957C318.165 98.3853 318.4 98.3575 318.621 98.4181C318.841 98.4787 319.029 98.623 319.145 98.8202C319.261 99.0175 319.295 99.2522 319.241 99.4745C316.199 110.559 318.901 116.357 320.779 118.827C322.33 120.864 323.932 121.519 324.467 121.519C324.7 121.519 324.923 121.612 325.088 121.777C325.252 121.942 325.345 122.165 325.345 122.399C325.345 122.632 325.252 122.855 325.088 123.02C324.923 123.185 324.7 123.278 324.467 123.278L324.469 123.279Z" fill="#571519"/>
<path d="M325.681 119.052C325.537 119.051 325.396 119.016 325.268 118.948C318.432 115.28 317.625 103.787 317.594 99.0172C317.593 98.9018 317.615 98.7873 317.659 98.6804C317.702 98.5734 317.766 98.4761 317.847 98.3939C317.928 98.3118 318.025 98.2464 318.131 98.2015C318.237 98.1566 318.351 98.1332 318.467 98.1324C318.698 98.1324 318.921 98.2242 319.086 98.3878C319.25 98.5514 319.343 98.7735 319.345 99.0057C319.402 108.286 321.924 115.163 326.093 117.398C326.266 117.491 326.402 117.638 326.482 117.818C326.561 117.997 326.578 118.198 326.53 118.388C326.482 118.578 326.372 118.747 326.217 118.867C326.062 118.988 325.872 119.053 325.676 119.052H325.681ZM85.8621 108.338C85.7064 108.34 85.5531 108.3 85.418 108.223C85.2829 108.145 85.1708 108.033 85.0933 107.898C83.6403 105.367 85.9582 101.637 86.4386 100.914C88.3086 98.0958 91.0416 95.9723 93.6842 93.918L94.4991 93.2833C95.7022 92.3466 97.1994 91.1829 97.382 89.7672C97.4105 89.5356 97.5298 89.3248 97.7136 89.1812C97.8974 89.0377 98.1307 88.9731 98.3621 89.0016C98.5935 89.0302 98.8041 89.1496 98.9476 89.3336C99.091 89.5175 99.1556 89.751 99.1271 89.9826C98.8618 92.1215 96.9688 93.5949 95.5869 94.6701L94.772 95.3049C92.2389 97.2726 89.6213 99.3076 87.9108 101.887C86.9979 103.26 85.9043 105.763 86.6251 107.023C86.6827 107.123 86.7201 107.233 86.7349 107.347C86.7498 107.462 86.7419 107.578 86.7118 107.69C86.6816 107.801 86.6297 107.905 86.559 107.996C86.4884 108.088 86.4005 108.164 86.3003 108.221C86.1675 108.299 86.0161 108.34 85.8621 108.338ZM196.032 118.969C195.96 118.97 195.888 118.961 195.818 118.944C195.706 118.917 195.601 118.867 195.508 118.798C195.415 118.73 195.337 118.643 195.278 118.544C195.218 118.445 195.179 118.336 195.162 118.222C195.145 118.107 195.15 117.991 195.178 117.879C195.903 114.967 193.537 112.878 191.25 110.854C190.96 110.598 190.673 110.347 190.4 110.096C186.241 106.311 184.606 102.052 185.67 97.7862C185.698 97.6743 185.748 97.569 185.816 97.4762C185.885 97.3835 185.971 97.3051 186.069 97.2456C186.168 97.1861 186.277 97.1467 186.391 97.1295C186.505 97.1124 186.622 97.1179 186.733 97.1457C186.845 97.1734 186.95 97.223 187.043 97.2915C187.136 97.36 187.214 97.4461 187.273 97.5448C187.333 97.6436 187.372 97.7531 187.389 97.8671C187.407 97.9812 187.401 98.0974 187.373 98.2093C186.239 102.77 189.036 106.48 191.582 108.806C191.851 109.05 192.13 109.296 192.413 109.546C194.842 111.693 197.865 114.355 196.883 118.314C196.834 118.502 196.724 118.669 196.569 118.787C196.415 118.906 196.226 118.97 196.032 118.969ZM92.6944 17.3808C92.5749 17.3806 92.4566 17.3564 92.3466 17.3096C86.2445 14.6668 78.8144 12.3971 69.9679 15.617C69.8591 15.6583 69.7431 15.6776 69.6268 15.6737C69.5105 15.6697 69.3961 15.6427 69.2903 15.5942C69.1844 15.5456 69.0893 15.4765 69.0104 15.3909C68.9315 15.3052 68.8705 15.2047 68.8307 15.0952C68.791 14.9857 68.7734 14.8694 68.779 14.753C68.7845 14.6367 68.8132 14.5226 68.8632 14.4174C68.9132 14.3122 68.9836 14.218 69.0703 14.1403C69.157 14.0626 69.2583 14.0029 69.3683 13.9647C78.7856 10.5332 86.6231 12.9145 93.0442 15.6958C93.2292 15.7764 93.3808 15.9184 93.4736 16.0977C93.5663 16.277 93.5946 16.4829 93.5535 16.6806C93.5125 16.8783 93.4047 17.0558 93.2482 17.1834C93.0918 17.3109 92.8962 17.3806 92.6944 17.3808Z" fill="#571519"/>
<path d="M11.2172 113.32C11.1446 113.321 11.0722 113.312 11.0019 113.293C10.7762 113.237 10.5822 113.093 10.4626 112.893C10.3429 112.693 10.3074 112.454 10.3638 112.228C12.4318 103.957 19.0701 84.4239 28.0819 67.2472C34.6298 54.7696 43.0728 43.9366 47.6008 38.118C49.2421 36.0022 50.7931 34.0191 50.9564 33.5671C51.7252 28.1698 58.0675 1.10641 60.7005 0.0504138C63.0548 -0.899786 71.7284 11.876 72.5836 13.586C72.6879 13.7946 72.705 14.0361 72.6313 14.2574C72.5576 14.4787 72.3991 14.6617 72.1906 14.766C71.9821 14.8703 71.7408 14.8875 71.5197 14.8137C71.2985 14.74 71.1158 14.5813 71.0115 14.3727C69.2972 10.9431 63.0933 3.21646 61.2771 1.88734C59.4551 4.88797 53.8777 25.4904 52.6785 33.8864C52.5843 34.5557 51.7752 35.6175 48.9845 39.199C44.4873 44.9695 36.1078 55.7256 29.6386 68.0647C20.696 85.1049 14.1154 104.459 12.0686 112.655C12.021 112.845 11.9114 113.014 11.7572 113.134C11.603 113.255 11.4129 113.32 11.2172 113.32ZM95.8099 56.2526C95.6293 56.2528 95.4531 56.1972 95.3053 56.0935C95.1574 55.9899 95.0451 55.8431 94.9835 55.6732C94.922 55.5034 94.9142 55.3187 94.9613 55.1442C95.0084 54.9698 95.1081 54.8142 95.2468 54.6985C97.104 53.1159 98.7892 51.3416 100.274 49.405C103.465 45.3407 104.949 41.638 104.941 37.7526C104.941 34.2365 103.757 30.828 102.394 26.8618C101.556 24.4325 100.692 21.9204 99.9804 19.0717C99.7652 18.21 99.6306 16.5981 99.4577 14.5573C99.2232 11.7625 98.6889 5.34191 97.6549 4.45134C96.2019 5.37846 90.5073 11.549 88.0338 14.6458C87.9634 14.7404 87.8746 14.8198 87.7728 14.8793C87.671 14.9388 87.5583 14.9771 87.4414 14.9921C87.3244 15.0071 87.2057 14.9984 87.0922 14.9665C86.9787 14.9345 86.8728 14.8801 86.7808 14.8063C86.6888 14.7326 86.6125 14.6411 86.5566 14.5372C86.5007 14.4333 86.4662 14.3193 86.4553 14.2018C86.4444 14.0843 86.4572 13.9659 86.4929 13.8535C86.5287 13.741 86.5867 13.637 86.6635 13.5475C86.7519 13.4359 95.8637 2.45669 97.751 2.6375C100.067 2.88178 100.634 7.45774 101.21 14.413C101.362 16.2192 101.506 17.9234 101.685 18.6447C102.379 21.4203 103.223 23.8939 104.057 26.2886C105.471 30.3953 106.692 33.9402 106.699 37.7507C106.699 42.0516 105.106 46.1005 101.658 50.4918C100.096 52.5246 98.3247 54.3872 96.373 56.0487C96.2151 56.1809 96.0157 56.2531 95.8099 56.2526Z" fill="#571519"/>
<path d="M46.7397 122.056C32.558 122.056 16.7022 118.367 10.7251 113.362C10.6326 113.289 10.5557 113.199 10.4989 113.096C10.4421 112.993 10.4065 112.879 10.3944 112.762C10.3823 112.645 10.3938 112.526 10.4282 112.414C10.4627 112.301 10.5194 112.197 10.595 112.106C10.6706 112.016 10.7636 111.942 10.8684 111.888C10.9731 111.835 11.0876 111.803 11.205 111.794C11.3223 111.786 11.4402 111.801 11.5516 111.839C11.6629 111.877 11.7655 111.937 11.8533 112.016C18.1956 117.326 37.3301 121.181 51.9942 120.114C67.4598 118.979 80.5307 113.824 81.9452 112.749C82.2719 111.675 82.8581 109.021 83.5308 105.968C84.9453 99.5574 86.7038 91.5788 88.1433 88.3492C89.406 85.5044 92.2312 84.3196 94.7239 83.2751C97.0302 82.3134 99.2039 81.3959 100.028 79.3781C100.72 77.6835 99.4153 75.5793 98.0335 73.3519C97.6491 72.7402 97.2647 72.1266 96.9245 71.5111C95.8194 69.5511 96.323 66.6774 96.9053 63.3498C97.4511 60.228 98.07 56.6868 97.2801 53.7112C97.2504 53.5995 97.243 53.4832 97.2583 53.3686C97.2736 53.2541 97.3113 53.1438 97.3692 53.0438C97.4271 52.9439 97.5041 52.8563 97.5958 52.7862C97.6876 52.7161 97.7922 52.6647 97.9037 52.635C98.0153 52.6053 98.1316 52.5979 98.246 52.6132C98.3604 52.6285 98.4707 52.6662 98.5706 52.7242C98.6704 52.7822 98.7579 52.8592 98.828 52.951C98.898 53.0428 98.9494 53.1475 98.979 53.2592C99.867 56.6099 99.2135 60.353 98.635 63.646C98.1334 66.5158 97.6587 69.2241 98.4544 70.6378C98.7907 71.2341 99.1597 71.8265 99.5249 72.4151C101.08 74.9157 102.686 77.5104 101.654 80.036C100.555 82.7288 97.9355 83.8252 95.4024 84.8889C92.9981 85.8968 90.7283 86.8489 89.7481 89.0571C88.3855 92.1231 86.5731 100.34 85.2509 106.34C84.5013 109.735 83.9055 112.416 83.5654 113.456C82.91 115.422 66.7448 120.789 52.1268 121.86C50.3664 121.995 48.5636 122.056 46.7397 122.056Z" fill="#571519"/>
<path fill-rule="evenodd" clip-rule="evenodd" d="M52.2767 97.6395C52.3337 97.6508 52.3916 97.6566 52.4497 97.6568C52.6522 97.6552 52.8479 97.5837 53.0037 97.4544C53.1596 97.3251 53.266 97.1458 53.305 96.947C54.4985 90.9842 58.9534 87.6181 63.6698 84.0596L63.6777 84.0537C67.8516 80.9049 72.1696 77.6473 73.8982 72.4457C75.38 67.9967 72.1492 66.7406 69.7891 65.8231C68.4207 65.2923 67.1331 64.7922 66.9063 63.8843C65.7358 59.2005 63.6975 45.9712 63.6182 45.4564L63.616 45.4419C63.6081 45.3203 63.575 45.2016 63.5188 45.0935C63.4627 44.9853 63.3846 44.89 63.2897 44.8137C63.1947 44.7373 63.085 44.6815 62.9673 44.6499C62.8497 44.6183 62.7268 44.6115 62.6064 44.63C62.486 44.6485 62.3708 44.6918 62.268 44.7573C62.1653 44.8227 62.0772 44.9088 62.0095 45.0101C61.9418 45.1114 61.8958 45.2257 61.8746 45.3458C61.8534 45.4658 61.8574 45.589 61.8863 45.7074L61.8899 45.7307C62.0177 46.5612 64.0138 59.5331 65.2073 64.3094C65.6551 66.102 67.5136 66.8253 69.153 67.4619C71.7995 68.4891 73.139 69.1527 72.228 71.8859C70.6771 76.5773 66.7621 79.5318 62.6185 82.6574C57.8464 86.2563 52.9129 89.9782 51.5887 96.6046C51.5657 96.7178 51.5653 96.8344 51.5875 96.9477C51.6097 97.0611 51.654 97.1689 51.7179 97.2651C51.7819 97.3612 51.8641 97.4438 51.96 97.508C52.0559 97.5723 52.1636 97.6169 52.2767 97.6395ZM66.8524 16.8945C66.9591 16.9386 67.0734 16.9612 67.1888 16.9609C67.3046 16.9617 67.4195 16.9395 67.5267 16.8957C67.6339 16.8519 67.7314 16.7872 67.8136 16.7055C67.8958 16.6238 67.961 16.5267 68.0055 16.4196C68.05 16.3126 68.0729 16.1978 68.0729 16.0819C68.0729 10.9962 64.8287 4.24864 61.8286 0.913324C61.6726 0.739877 61.4542 0.635552 61.2214 0.623288C60.9885 0.611023 60.7604 0.69183 60.5871 0.847932C60.4138 1.00404 60.3095 1.22264 60.2973 1.45567C60.285 1.68869 60.3657 1.91705 60.5217 2.09049C62.9491 4.78722 66.3105 11.1482 66.3105 16.0819C66.3102 16.1974 66.3328 16.3118 66.3768 16.4186C66.4209 16.5254 66.4856 16.6224 66.5672 16.704C66.6488 16.7857 66.7457 16.8505 66.8524 16.8945ZM92.2944 16.765C92.4591 16.9299 92.6825 17.0225 92.9154 17.0225C93.0307 17.0225 93.1448 16.9997 93.2513 16.9555C93.3577 16.9113 93.4544 16.8466 93.5358 16.7649C93.6172 16.6833 93.6817 16.5863 93.7257 16.4797C93.7696 16.3731 93.7921 16.2588 93.7918 16.1434C93.7918 13.0755 95.6042 6.69724 98.02 4.51216C98.1056 4.43474 98.1751 4.34121 98.2245 4.23692C98.274 4.13262 98.3024 4.01959 98.3082 3.9043C98.314 3.78901 98.297 3.67371 98.2583 3.56497C98.2196 3.45623 98.1599 3.35618 98.0825 3.27055C98.0051 3.18492 97.9117 3.11538 97.8075 3.0659C97.7033 3.01642 97.5903 2.98795 97.4751 2.98215C97.3599 2.97634 97.2447 2.99331 97.1361 3.03207C97.0274 3.07082 96.9275 3.13062 96.8419 3.20804C93.959 5.82589 92.0371 12.7273 92.0371 16.1434C92.0371 16.3766 92.1297 16.6002 92.2944 16.765ZM337.974 110.525C338.134 110.663 338.339 110.738 338.55 110.736L338.543 110.715C338.721 110.715 338.895 110.66 339.041 110.558C339.187 110.456 339.299 110.312 339.361 110.145C339.424 109.978 339.434 109.796 339.391 109.623C339.348 109.45 339.253 109.294 339.119 109.176C338.005 108.221 333.734 100.642 332.091 92.1075C330.405 83.3557 331.157 71.5647 344.307 65.0941C354.389 60.1335 363.378 62.182 371.033 71.1781C377.871 79.2202 381.603 90.4245 381.784 91.3747C381.828 91.6042 381.961 91.807 382.154 91.9383C382.347 92.0696 382.584 92.1187 382.814 92.0748C383.043 92.0309 383.246 91.8977 383.377 91.7043C383.508 91.511 383.557 91.2734 383.513 91.0438C383.308 90.0051 379.558 78.495 372.366 70.0432C364.241 60.4912 354.27 58.235 343.528 63.5188C329.383 70.4799 328.562 83.0922 330.361 92.4441C331.926 100.58 336.244 109.034 337.974 110.525Z" fill="white"/>
<path d="M89.3119 42.1259C88.9514 42.1266 88.5938 42.0614 88.2567 41.9335C87.3304 41.5796 86.5405 40.7679 86.0254 39.7638C85.9178 39.9158 85.8025 40.06 85.6852 40.1966C84.6224 41.4045 83.1868 42.0739 81.9337 41.9393C81.2264 41.8642 80.2347 41.5084 79.5236 40.2351C79.4673 40.134 79.4315 40.0229 79.4181 39.908C79.4047 39.7931 79.4141 39.6767 79.4457 39.5654C79.4773 39.4541 79.5305 39.3501 79.6022 39.2594C79.6739 39.1687 79.7628 39.0931 79.8638 39.0367C79.9647 38.9804 80.0758 38.9445 80.1906 38.9312C80.3054 38.9178 80.4217 38.9272 80.5329 38.9588C80.6441 38.9904 80.748 39.0436 80.8386 39.1154C80.9292 39.1872 81.0048 39.2762 81.0611 39.3772C81.3417 39.8792 81.6896 40.1466 82.1239 40.1908C82.7985 40.2716 83.7018 39.7965 84.3706 39.0367C84.7536 38.5863 85.0413 38.0628 85.2163 37.4979C85.2778 37.3056 85.3566 36.8613 85.4085 36.6035C85.5834 35.6783 86.1407 35.6283 86.4559 35.6783C86.9249 35.7533 87.2401 36.2669 87.1786 36.7382C86.9671 38.3154 87.9089 39.9119 88.891 40.287C89.5387 40.5351 90.1767 40.2062 90.7879 39.306C90.9216 39.1205 91.1223 38.9945 91.3474 38.9547C91.5725 38.9149 91.8042 38.9645 91.9934 39.0929C92.1825 39.2214 92.3142 39.4186 92.3604 39.6426C92.4066 39.8666 92.3637 40.0999 92.2409 40.2928C91.2357 41.7642 90.1421 42.1259 89.3119 42.1259Z" fill="white"/>
<path d="M350.353 155.162C350.158 155.162 349.969 155.097 349.815 154.977C349.661 154.857 349.551 154.69 349.503 154.501C347.739 147.634 341.679 132.646 339.825 130.565C338.429 129.001 336.49 128.147 334.443 127.245C331.495 125.948 328.447 124.61 326.798 121.042C325.068 117.283 326.221 114.694 327.517 113.194C330.4 109.812 336.358 108.902 340.247 110.003C340.362 110.031 340.469 110.083 340.563 110.153C340.656 110.224 340.735 110.313 340.794 110.415C340.853 110.517 340.891 110.63 340.905 110.746C340.92 110.863 340.911 110.982 340.879 111.095C340.847 111.208 340.792 111.314 340.719 111.405C340.645 111.497 340.554 111.573 340.45 111.629C340.347 111.685 340.233 111.719 340.116 111.73C339.999 111.741 339.881 111.729 339.769 111.693C336.398 110.732 331.209 111.574 328.853 114.334C327.467 115.958 327.315 117.966 328.393 120.297C329.762 123.261 332.379 124.412 335.149 125.629C337.284 126.568 339.49 127.539 341.141 129.388C343.501 132.038 349.617 147.853 351.21 154.058C351.239 154.17 351.245 154.286 351.229 154.401C351.213 154.515 351.175 154.625 351.116 154.724C351.057 154.824 350.979 154.91 350.887 154.98C350.795 155.049 350.69 155.099 350.578 155.128C350.505 155.149 350.429 155.161 350.353 155.162ZM397.007 155.27C396.825 155.27 396.648 155.214 396.499 155.109C396.351 155.004 396.239 154.855 396.178 154.684C396.118 154.512 396.112 154.326 396.161 154.151C396.211 153.976 396.314 153.82 396.456 153.706C405.471 146.441 417.708 131.417 417.212 129.059C416.074 127.781 399.64 109.291 396.559 103.776C396.16 103.059 396.269 101.913 396.559 99.387C397.038 95.1073 397.837 87.9442 394.182 84.0665C392.21 81.9737 389.821 82.7296 388.572 83.3663C385.756 84.8051 383.146 88.4751 383.748 91.6373C383.769 91.751 383.768 91.8678 383.745 91.981C383.721 92.0942 383.675 92.2017 383.61 92.2972C383.479 92.4902 383.276 92.623 383.046 92.6664C382.933 92.6878 382.816 92.6867 382.703 92.663C382.59 92.6394 382.482 92.5936 382.387 92.5285C382.194 92.3968 382.062 92.1939 382.018 91.9643C381.249 87.8942 384.401 83.5164 387.77 81.7948C390.64 80.3292 393.442 80.7158 395.458 82.8547C399.671 87.3249 398.816 94.9938 398.304 99.5755C398.156 100.907 397.97 102.563 398.112 102.934C401.132 108.337 418.396 127.731 418.569 127.926C418.729 128.116 418.846 128.338 418.914 128.577C418.983 128.816 419 129.067 418.965 129.313C418.592 133.833 404.96 149.105 397.555 155.07C397.401 155.197 397.207 155.268 397.007 155.27ZM351.193 97.8501C349.034 97.8501 344.437 97.1308 342.973 94.8053C342.415 93.9186 342.385 92.9222 342.884 91.9201C343.378 90.9275 344.258 90.3139 345.191 89.6657C345.969 89.1604 346.69 88.5716 347.341 87.9096C347.943 87.2671 348.567 86.5093 349.173 85.7764C350.924 83.6606 352.578 81.6467 354.466 81.1947C356.48 80.7139 358.183 80.9601 359.834 81.1947C361.004 81.364 362.221 81.5371 363.545 81.4428C364.282 81.3765 365.014 81.2628 365.736 81.1024C367.408 80.7696 369.134 80.4253 369.837 81.9526C370.725 83.876 370.049 86.6247 367.984 89.4926C363.948 95.1034 356.528 97.7636 351.35 97.8482L351.193 97.8501ZM356.86 82.6777C356.191 82.6744 355.523 82.7506 354.871 82.9047C353.557 83.2182 352.015 85.0879 350.526 86.8959C349.903 87.6499 349.259 88.4347 348.619 89.1137C347.885 89.8659 347.071 90.5354 346.192 91.1103C345.387 91.67 344.751 92.1124 344.462 92.7029C344.176 93.28 344.312 93.6262 344.462 93.857C345.298 95.1842 348.779 96.1132 351.322 96.0825C356.076 95.9997 362.872 93.5819 366.56 88.4559C368.196 86.1881 368.84 83.9742 368.244 82.6854C368.121 82.4161 366.899 82.6623 366.082 82.8239C365.287 82.9971 364.482 83.1205 363.672 83.1932C362.159 83.3048 360.848 83.1124 359.584 82.9316C358.683 82.781 357.773 82.6961 356.86 82.6777Z" fill="#571519"/>
<path d="M345.788 94.5299C345.037 94.5359 344.289 94.4302 343.569 94.2164C343.458 94.1826 343.356 94.1273 343.267 94.0538C343.178 93.9803 343.104 93.89 343.05 93.788C342.996 93.686 342.963 93.5743 342.952 93.4594C342.941 93.3445 342.952 93.2285 342.986 93.1181C343.02 93.0077 343.075 92.9051 343.149 92.8161C343.222 92.727 343.312 92.6533 343.414 92.5992C343.516 92.5451 343.628 92.5116 343.743 92.5006C343.857 92.4897 343.973 92.5014 344.084 92.5353C346.834 93.3816 350.71 91.8794 352.871 89.9424C353.215 89.6213 353.536 89.2761 353.832 88.9095C354.5 88.119 355.258 87.2226 356.453 86.7802C357.424 86.4313 358.438 86.2127 359.467 86.1301C360.286 86.0605 361.096 85.9045 361.882 85.6646C363.943 85.0087 366.555 83.4699 367.56 81.8003C367.619 81.7014 367.698 81.6153 367.791 81.5467C367.883 81.4782 367.989 81.4286 368.101 81.4008C368.213 81.373 368.329 81.3676 368.443 81.3848C368.557 81.4021 368.667 81.4416 368.766 81.5012C368.865 81.5608 368.951 81.6394 369.019 81.7323C369.088 81.8252 369.137 81.9307 369.165 82.0428C369.193 82.1549 369.198 82.2713 369.181 82.3855C369.164 82.4997 369.124 82.6093 369.065 82.7082C367.587 85.1626 364.189 86.7745 362.417 87.34C361.521 87.6158 360.598 87.7957 359.665 87.8766C358.776 87.9449 357.901 88.1312 357.062 88.4306C356.294 88.7114 355.778 89.3308 355.173 90.0444C354.829 90.4759 354.455 90.8821 354.053 91.26C352.061 93.0277 348.79 94.5299 345.788 94.5299ZM319.295 155.131C319.103 155.132 318.915 155.069 318.762 154.953C318.609 154.836 318.498 154.673 318.447 154.488C318.395 154.302 318.406 154.105 318.477 153.926C318.548 153.747 318.676 153.597 318.841 153.498C326.275 149.032 331.782 139.207 331.559 133.736C331.551 133.619 331.567 133.502 331.606 133.392C331.644 133.281 331.704 133.18 331.782 133.093C331.861 133.006 331.956 132.935 332.061 132.885C332.167 132.836 332.282 132.808 332.399 132.803C332.515 132.798 332.632 132.816 332.742 132.857C332.851 132.898 332.952 132.96 333.037 133.04C333.122 133.121 333.19 133.217 333.238 133.324C333.285 133.431 333.311 133.546 333.313 133.663C333.561 139.739 327.813 150.159 319.747 155.014C319.609 155.093 319.453 155.133 319.295 155.131ZM298.483 155.312C298.32 155.312 298.16 155.267 298.021 155.181C294.741 153.146 292.369 150.115 290.974 146.175C290.932 146.066 290.913 145.949 290.917 145.832C290.921 145.715 290.948 145.6 290.997 145.494C291.046 145.387 291.116 145.292 291.202 145.213C291.289 145.134 291.39 145.073 291.5 145.034C291.61 144.995 291.727 144.978 291.844 144.985C291.961 144.991 292.076 145.021 292.181 145.073C292.286 145.124 292.379 145.196 292.456 145.285C292.533 145.373 292.592 145.476 292.628 145.587C293.887 149.141 296.013 151.867 298.948 153.687C299.11 153.788 299.235 153.939 299.303 154.117C299.372 154.295 299.381 154.491 299.328 154.675C299.275 154.859 299.164 155.02 299.012 155.135C298.859 155.25 298.674 155.312 298.483 155.312Z" fill="#571519"/>
<path fill-rule="evenodd" clip-rule="evenodd" d="M160.213 76.166C160.213 76.166 164.593 76.6392 169.036 77.4124C173.338 78.1587 177.108 79.1436 177.108 79.1436C177.108 79.1436 173.956 89.2303 166.613 87.9916C159.123 86.7182 160.213 76.166 160.213 76.166Z" fill="white"/>
<path d="M167.891 88.9785C167.414 88.9778 166.937 88.9373 166.467 88.8573C159.9 87.7417 158.933 80.0093 159.34 76.0758C159.352 75.9606 159.386 75.8488 159.441 75.7471C159.496 75.6453 159.571 75.5557 159.661 75.4833C159.751 75.4102 159.854 75.3556 159.965 75.3226C160.076 75.2896 160.192 75.2788 160.307 75.291C160.351 75.291 164.766 75.7757 169.186 76.5432C173.474 77.2876 177.295 78.2878 177.333 78.2993C177.448 78.3292 177.556 78.3821 177.65 78.4548C177.743 78.5276 177.821 78.6186 177.879 78.7225C177.936 78.8267 177.972 78.9415 177.984 79.0598C177.995 79.1781 177.983 79.2975 177.948 79.4111C177.814 79.8285 174.871 88.9785 167.891 88.9785ZM161.035 77.1452C160.964 79.5861 161.291 86.1952 166.761 87.1243C172.046 88.036 175.01 82.0616 175.946 79.765C174.566 79.4265 171.839 78.7898 168.886 78.2782C165.715 77.728 162.548 77.326 161.035 77.1452ZM149.923 131.993C149.539 131.993 149.154 131.986 148.77 131.972C129.261 131.272 121.777 116.867 117.032 102.866C116.99 102.756 116.972 102.638 116.977 102.521C116.982 102.403 117.01 102.288 117.061 102.182C117.111 102.076 117.182 101.98 117.27 101.902C117.358 101.824 117.46 101.764 117.572 101.726C117.683 101.688 117.801 101.673 117.918 101.682C118.035 101.69 118.15 101.722 118.254 101.776C118.359 101.829 118.452 101.903 118.527 101.994C118.603 102.084 118.659 102.188 118.694 102.301C123.249 115.734 130.391 129.554 148.833 130.214C160.184 130.631 168.629 124.611 173.951 112.355C173.997 112.249 174.063 112.153 174.146 112.073C174.229 111.993 174.327 111.93 174.435 111.887C174.542 111.845 174.657 111.825 174.772 111.827C174.887 111.829 175.001 111.854 175.107 111.9C175.212 111.946 175.308 112.012 175.388 112.095C175.468 112.178 175.531 112.276 175.573 112.384C175.616 112.491 175.636 112.606 175.634 112.721C175.632 112.837 175.607 112.951 175.561 113.057C170.097 125.627 161.478 131.993 149.923 131.993ZM69.7795 155.06C69.6287 155.06 69.4804 155.021 69.3488 154.947C69.2172 154.874 69.1068 154.767 69.0281 154.638C64.0465 146.433 58.1155 140.562 51.4023 137.187C49.5361 136.25 47.52 136.175 46.5975 137.008C45.8768 137.666 45.8422 138.954 46.5014 140.639C46.546 140.747 46.5687 140.863 46.5681 140.98C46.5674 141.097 46.5435 141.212 46.4978 141.32C46.452 141.427 46.3853 141.525 46.3015 141.606C46.2177 141.687 46.1185 141.751 46.0098 141.794C45.9011 141.836 45.785 141.857 45.6683 141.854C45.5515 141.851 45.4366 141.825 45.33 141.777C45.2235 141.729 45.1276 141.661 45.0479 141.575C44.9682 141.49 44.9063 141.389 44.8659 141.28C43.5936 138.029 44.6621 136.394 45.4136 135.702C46.8896 134.355 49.6091 134.317 52.1806 135.608C59.1937 139.133 65.3649 145.225 70.5195 153.717C70.6008 153.85 70.6453 154.003 70.6482 154.159C70.6511 154.315 70.6123 154.469 70.5359 154.605C70.4596 154.741 70.3483 154.854 70.2137 154.932C70.079 155.011 69.9258 155.052 69.7699 155.052L69.7795 155.06Z" fill="#571519"/>
<path fill-rule="evenodd" clip-rule="evenodd" d="M72.5529 29.3896C72.5529 27.8162 73.7214 26.539 75.1628 26.539C76.6042 26.539 77.7747 27.8162 77.7747 29.3896C77.7747 30.963 76.6062 32.2402 75.1628 32.2402C73.7195 32.2402 72.5529 30.9649 72.5529 29.3896ZM91.8046 29.3819C91.8046 27.8085 92.9731 26.5332 94.4165 26.5332C95.8598 26.5332 97.0264 27.8085 97.0264 29.3819C97.0264 30.9553 95.8579 32.2325 94.4165 32.2325C92.975 32.2325 91.8046 30.9572 91.8046 29.3819ZM339.877 84.8032C339.206 83.3779 339.721 81.7256 341.03 81.1101C342.339 80.4946 343.936 81.1524 344.604 82.5777C345.273 84.003 344.76 85.6553 343.451 86.2708C342.142 86.8863 340.545 86.2265 339.877 84.8032ZM357.293 76.5899C356.622 75.1646 357.137 73.5123 358.446 72.8987C359.755 72.2851 361.354 72.9391 362.023 74.3644C362.691 75.7897 362.178 77.442 360.87 78.0556C359.561 78.6692 357.962 78.0152 357.293 76.5899Z" fill="white"/>
</svg>
