<svg width="1080" height="1080" viewBox="0 0 1080 1080" fill="none" xmlns="http://www.w3.org/2000/svg">
<circle cx="540" cy="540" r="540" fill="white"/>
<path d="M239.687 230.674C233.581 232.59 228.911 235.703 225.918 239.774C220.291 246.957 219.333 252.944 219.333 278.565V301.912L223.883 297.722C233.221 288.862 240.166 286.707 248.666 289.939C251.54 291.137 254.533 292.813 255.251 293.771C259.322 298.56 260.399 293.89 261.238 267.91C261.716 249.711 262.195 245.76 263.512 245.76C264.47 245.76 266.386 247.556 267.703 249.831C270.935 255.458 271.534 268.628 269.738 300.236C268.661 318.794 268.541 341.063 269.259 380.214L270.217 434.33L280.154 429.422C292.007 423.435 293.564 423.914 290.092 432.894C287.578 439.239 283.507 458.755 282.19 470.009C281.831 473.601 280.993 480.066 280.394 484.376C279.795 488.806 279.197 496.469 279.197 501.497C279.197 506.765 278.598 511.315 277.76 512.393C276.443 514.189 254.413 525.563 233.581 535.38C229.869 537.056 225.319 539.69 223.643 541.007L220.53 543.402V591.173C220.53 621.464 221.009 641.219 221.847 645.29C223.643 654.15 228.791 664.207 237.292 676.179C255.012 700.963 252.976 697.73 282.429 752.805C294.761 775.793 298.353 781.3 305.656 788.962C314.875 798.421 312.002 796.984 378.57 826.437C396.05 834.1 415.087 842.6 421.073 845.234C432.926 850.502 438.913 851.939 440.23 849.904C441.667 847.389 439.751 842.84 435.082 838.29C430.771 833.98 424.067 830.508 400.121 819.852C377.493 809.795 352.589 793.392 331.278 774.356C326.01 769.686 317.03 761.784 311.284 756.756C299.431 746.34 300.269 748.734 298.592 723.352L297.515 706.351L287.937 696.653C271.774 680.49 265.428 671.869 262.794 663.009C260.519 655.347 260.399 655.227 255.73 654.629L251.061 654.03V642.656C251.061 631.641 251.18 631.282 253.934 630.923L256.808 630.444L256.209 603.505L255.73 576.566L259.921 573.813C262.315 572.256 273.45 561.84 284.584 550.586L304.938 530.112L304.699 518.978C304.459 512.991 303.741 503.772 303.142 498.624C301.945 490.602 302.065 488.806 303.741 486.292C305.417 483.658 306.375 483.419 313.918 483.419H322.298V473.242V463.065H314.396C301.226 463.065 301.945 464.861 301.945 433.133C301.945 416.85 302.424 405.596 303.022 405.596C303.621 405.596 305.537 406.075 307.213 406.793L310.326 407.99V430.14V452.29H317.03C323.855 452.29 327.806 453.726 330.32 456.959C331.278 458.276 331.757 464.143 331.877 474.559C331.877 492.997 331.757 493.236 320.862 493.955L313.678 494.553L314.516 508.322C315.354 521.013 315.594 522.21 318.347 524.605C323.615 529.154 321.101 538.493 314.636 538.493C312.96 538.493 305.177 545.437 291.648 559.086C280.394 570.46 270.217 581.116 269.14 582.792C267.583 585.187 267.224 589.377 267.224 607.576V629.486L270.217 630.683C273.091 631.761 273.21 632.24 273.21 642.416C273.21 648.163 272.731 653.431 272.133 654.03C271.534 654.748 271.654 657.502 272.492 660.854C273.689 665.284 276.203 668.996 284.584 677.975C290.331 684.321 296.078 689.948 297.395 690.666C301.226 692.702 302.304 690.427 300.628 684.081C297.515 671.63 301.945 659.537 311.643 654.509L316.552 652.114L315.713 630.324C315.235 618.351 314.396 607.935 313.798 607.336C311.403 604.223 311.643 599.315 314.516 596.441C316.073 594.885 318.108 593.568 319.066 593.568C320.742 593.568 325.89 587.342 343.73 563.636L352.23 552.262V540.169C352.23 524.964 351.512 521.372 348.279 519.935C345.885 518.858 345.645 517.661 345.286 508.801C345.047 502.455 345.406 498.145 346.364 497.068C348.16 494.912 365.4 494.673 367.555 496.828C368.393 497.666 368.992 501.976 368.992 507.963C368.992 518.02 367.915 520.534 363.964 520.534C361.928 520.534 361.808 522.091 361.808 539.451V558.368L355.702 566.03C344.209 580.278 328.644 601.35 326.968 604.942C325.172 608.773 325.052 610.449 326.489 635.472L327.327 651.635L333.194 654.269C337.504 656.185 339.898 658.34 342.532 662.531C349.237 672.947 348.638 683.603 340.856 692.582C336.067 698.209 335.947 699.646 337.983 715.929C339.06 724.43 339.898 726.944 341.934 728.381C343.251 729.338 351.153 735.085 359.414 741.191L374.38 752.206V761.784V771.363L369.95 771.722L365.4 772.081V765.496V758.911L358.336 753.164C354.505 750.051 346.483 743.945 340.497 739.755L329.722 732.212L328.285 716.887L326.848 701.562L321.58 700.843C318.587 700.484 314.636 699.287 312.601 698.209C310.565 697.251 308.41 696.773 307.811 697.371C307.333 697.85 307.333 703.717 307.931 710.302C308.53 716.887 309.368 726.824 309.727 732.451L310.565 742.628L321.46 752.206C327.447 757.474 337.264 766.095 343.131 771.363C365.281 791.118 381.444 800.576 438.194 827.155C451.604 833.381 453.28 833.74 456.273 830.747C461.302 825.719 458.069 806.802 450.047 795.069C447.892 791.956 435.68 778.905 422.989 766.334C409.34 752.565 399.163 741.431 397.966 738.797C396.05 734.606 395.931 724.549 395.691 615.358C395.452 483.299 395.811 489.166 387.43 477.911C378.929 466.537 376.295 464.143 342.772 437.204C314.516 414.695 294.881 387.876 287.338 361.656C285.063 353.874 284.584 349.564 284.704 335.555C284.704 323.702 285.303 317.357 286.62 314.005L288.416 309.335L289.134 324.421C290.331 344.774 295.48 362.614 305.177 379.136L308.29 384.524L311.523 380.573C314.516 377.101 314.756 376.143 314.157 368.6C313.319 355.789 318.467 347.049 329.482 342.619C334.99 340.345 344.448 340.584 350.674 343.218C356.062 345.373 372.464 348.606 373.542 347.648C375.218 345.972 364.203 331.724 357.259 326.576C354.864 324.78 333.194 303.469 309.128 279.284C285.063 255.218 263.393 234.386 260.998 233.069C255.97 230.435 244.236 229.118 239.687 230.674ZM330.556 330.186C332.831 331.862 333.912 327.773 332.475 327.175C331.158 326.815 328.285 326.097 326.249 325.738C322.298 325.019 320.981 322.625 323.855 321.308C324.573 320.829 324.094 320.829 322.538 321.068C320.383 321.428 319.904 321.188 320.383 319.751C320.742 318.794 321.101 317.357 321.101 316.639C321.101 315.8 310.348 329.234 312.144 331.269C313.82 333.185 328.52 328.63 330.556 330.186ZM375.936 630.923C376.894 631.88 377.373 636.43 377.373 643.254C377.373 650.079 376.894 654.629 375.936 655.586C375.098 656.424 370.668 657.023 364.203 657.023C357.738 657.023 353.308 656.424 352.47 655.586C351.512 654.629 351.033 650.079 351.033 643.254C351.033 636.43 351.512 631.88 352.47 630.923C353.308 630.084 357.738 629.486 364.203 629.486C370.668 629.486 375.098 630.084 375.936 630.923Z" fill="#1D375C"/>
<path d="M823.597 230.794C821.083 231.512 817.611 232.71 815.815 233.667C811.744 235.823 707.462 340.464 705.426 344.415L703.99 347.289L711.892 346.451C716.202 345.972 722.068 344.415 724.822 342.978C736.555 337.112 752.24 342.021 758.106 353.514C760.501 358.423 761.099 360.938 760.86 367.882C760.74 375.784 760.86 376.502 764.691 380.932L768.642 385.721L772.354 379.854C776.544 373.15 782.89 358.423 785.165 349.923C787.679 340.943 788.637 330.766 788.397 318.554C788.158 308.617 787.229 306.559 783.278 298.777C780.884 293.988 780.136 290.777 780.974 291.256C782.65 292.334 790.073 308.138 792.348 315.681C796.539 329.689 794.863 351.958 788.158 369.678C784.805 378.777 774.629 396.257 767.325 405.596C760.381 414.456 741.344 433.013 731.527 440.676C706.145 460.191 696.806 469.051 689.622 480.425C682.918 491.201 683.277 484.137 682.678 615.118C682.199 721.915 681.84 737.001 680.164 739.994C679.206 741.79 667.233 754.481 653.704 768.13C631.435 790.639 628.681 793.751 624.491 802.372C620.3 810.872 619.821 812.908 619.821 820.81C619.821 828.233 620.18 829.909 622.216 831.346C625.329 833.621 627.364 833.022 643.408 825.719C697.764 800.935 716.681 789.322 743.14 764.777C747.81 760.467 755.472 753.403 760.142 749.093L768.642 741.311L769.361 723.95C769.84 714.492 770.438 705.034 770.678 703.118C771.635 697.132 770.079 696.174 763.973 698.808C761.099 700.245 757.029 701.322 754.993 701.322H751.162L749.725 716.887L748.169 732.331L733.083 743.227C711.652 758.671 712.849 757.474 712.37 764.897L712.011 771.362H707.821H703.63L703.391 761.784L703.151 752.206L720.871 739.276L738.471 726.465L739.908 714.133C741.823 697.97 741.823 698.449 737.872 693.899C731.886 686.955 730.21 682.525 730.808 674.743C731.527 665.524 736.076 658.699 744.338 654.628L750.444 651.635L751.88 629.845L753.437 608.055L750.085 602.906C745.056 595.004 734.64 580.996 724.942 568.904L716.202 558.009V539.331C716.202 521.971 716.082 520.534 714.047 520.534C709.976 520.534 709.018 518.02 709.018 507.843C709.018 500.899 709.497 497.666 710.694 496.708C711.772 495.75 716.082 495.391 722.428 495.631L732.365 495.99L732.724 507.124C733.083 517.9 732.964 518.139 729.97 519.576C726.977 520.893 726.977 520.893 726.977 537.176V553.459L741.225 572.615C751.402 586.264 756.909 592.49 760.022 594.166C765.41 597.04 767.206 601.829 764.811 606.618C763.733 608.653 762.895 617.274 762.297 630.922L761.459 652.114L766.248 654.509C776.544 659.777 781.094 670.432 777.861 682.405C776.305 688.152 776.425 688.87 778.101 690.307C779.178 691.025 780.495 691.744 780.974 691.744C781.333 691.744 786.841 685.877 793.186 678.694C802.166 668.517 804.92 664.566 805.877 660.495C806.596 657.502 806.596 654.748 805.997 654.03C805.399 653.311 804.8 648.283 804.56 642.656C804.201 632.838 804.321 632.479 807.314 631.042C810.188 629.605 810.427 628.887 811.145 618.591C812.702 596.8 812.343 590.335 808.871 584.229C804.321 576.327 769.48 541.247 763.733 538.852C756.43 535.859 754.754 529.753 759.782 524.724C762.297 522.21 762.776 520.414 763.494 508.082L764.332 494.194H757.747C753.078 494.194 750.324 493.595 748.408 491.919C745.774 489.764 745.535 488.567 745.176 476.594C744.457 456.24 747.091 452.289 761.219 452.289H767.684V431.337C767.684 411.941 767.924 410.145 770.079 407.99C772.952 405.117 775.586 404.877 776.544 407.511C777.742 410.505 777.382 458.755 776.185 460.551C775.347 461.748 771.995 462.586 765.649 462.945L756.31 463.663L755.951 473.481L755.592 483.418H763.973C771.635 483.418 772.593 483.658 774.389 486.412C776.065 489.046 776.185 490.602 774.868 499.821C774.03 505.688 773.312 514.787 773.312 520.175L773.192 529.873L794.024 551.304C806.955 564.594 816.174 573.094 818.449 573.813C823.358 575.369 824.914 579.919 822.759 586.264C821.681 589.617 821.442 596.321 821.801 610.21C822.28 628.169 822.519 629.486 825.034 631.521C827.428 633.437 827.668 634.514 827.309 643.853L826.949 654.03L822.759 654.628C818.808 655.227 818.449 655.706 816.174 662.53C814.737 666.481 811.864 672.228 809.589 675.102C803.004 683.483 791.51 696.653 786.003 701.681C782.052 705.273 780.854 707.428 780.376 711.259C779.657 716.887 778.58 734.008 778.46 741.431C778.46 746.22 777.861 746.818 762.416 760.826C727.097 793.033 705.785 808.119 681.481 818.655C649.993 832.184 638.618 839.607 638.02 846.91C637.541 853.495 641.492 852.298 680.284 835.177C689.143 831.226 700.757 826.078 706.025 823.803C715.843 819.493 747.091 805.604 754.514 802.132C760.621 799.379 769.959 792.195 775.227 786.448C780.974 780.103 785.883 772.32 794.264 756.397C797.856 749.452 801.926 741.91 803.243 739.635C804.56 737.36 809.828 727.303 814.977 717.485C820.604 706.59 828.745 693.42 835.57 684.201C847.423 668.038 852.332 659.298 855.804 648.642C857.6 643.015 857.959 635.352 858.438 593.927C858.677 563.396 858.438 545.078 857.719 543.761C857.121 542.564 843.711 535.141 828.027 527.239L799.412 512.752L797.975 495.271C796.06 470.248 793.186 448.338 790.433 438.162C787.918 428.943 787.439 424.752 788.996 424.752C789.595 424.752 792.947 426.309 796.539 428.224C809.11 434.929 808.033 436.485 808.152 410.145C808.272 397.454 808.751 366.445 809.11 341.302C809.709 309.934 809.589 295.088 808.631 294.01C807.913 293.052 807.554 285.15 807.554 273.297C807.793 256.296 808.032 253.662 810.307 249.95C811.624 247.676 813.54 245.76 814.498 245.76C815.815 245.76 816.294 249.831 816.773 269.346C817.132 284.671 817.85 293.411 818.688 294.249C819.766 295.327 821.322 294.848 825.034 292.454C834.732 285.988 842.873 287.186 853.289 296.764L858.438 301.433L859.276 279.643C860.234 254.62 858.917 247.077 852.451 239.654C845.627 231.872 833.894 228.28 823.597 230.794ZM725.54 630.922C726.498 631.88 726.977 636.43 726.977 643.254C726.977 650.079 726.498 654.628 725.54 655.586C724.702 656.424 720.272 657.023 713.807 657.023C707.342 657.023 702.912 656.424 702.074 655.586C701.116 654.628 700.637 650.079 700.637 643.254C700.637 636.43 701.116 631.88 702.074 630.922C702.912 630.084 707.342 629.486 713.807 629.486C720.272 629.486 724.702 630.084 725.54 630.922Z" fill="#1D375C"/>
<path d="M219.333 350.162V376.383L226.996 375.904C237.292 375.185 244.955 378.538 247.589 384.644C249.863 390.271 249.504 401.765 246.87 407.871C242.68 416.97 232.144 420.682 223.284 416.132L219.333 414.216V439.12V464.143L226.876 458.994C235.017 453.247 256.089 441.514 258.005 441.514C258.843 441.514 258.963 436.007 258.484 425.112C258.005 416.132 257.646 390.391 257.646 368.002V327.175L254.533 331.605C250.462 337.352 244.356 340.225 238.13 339.387C232.383 338.549 228.432 335.915 223.284 329.09L219.333 323.942V350.162Z" fill="#1D375C"/>
<path d="M854.725 330.048C851.372 334.837 843.231 339.746 838.562 339.746C834.012 339.746 828.265 336.753 824.194 332.083L820.363 327.653V359.74C820.363 377.34 820.004 402.603 819.525 415.892L818.807 439.958L830.061 446.064C836.287 449.416 845.147 454.564 849.696 457.557C854.366 460.551 858.436 462.586 858.915 462.107C859.394 461.628 859.514 450.613 859.035 437.683L858.317 414.097L855.204 415.653C849.098 418.766 845.626 418.886 840.118 416.491C833.892 413.737 831.737 410.744 829.941 401.645C827.906 391.708 829.941 382.608 835.09 379.016C838.322 376.742 840.477 376.263 848.858 376.263H858.676V350.761C858.676 336.872 858.556 325.379 858.436 325.379C858.197 325.379 856.64 327.534 854.725 330.048Z" fill="#1D375C"/>
<path d="M359.534 360.339C364.682 377.939 342.533 395.06 325.172 386.799L320.862 384.644L317.39 388.714L314.038 392.785L316.672 396.497C323.257 405.835 340.378 422.597 355.463 434.57C361.21 439.12 369.83 446.064 374.5 450.015C379.289 453.846 383.479 457.079 383.958 457.079C384.437 457.079 388.029 455.642 391.86 453.966L398.924 450.733V444.028C399.044 432.774 403.833 424.872 413.77 419.724C419.278 416.85 428.377 417.21 434.842 420.562C438.434 422.358 445.139 422.358 448.372 420.322C449.689 419.604 437.596 405.835 434.842 404.997C433.645 404.638 428.736 399.61 423.827 393.863C397.607 362.853 389.107 357.106 367.556 356.628L358.337 356.388L359.534 360.339Z" fill="#1D375C"/>
<path d="M700.037 357.346C688.184 358.902 686.747 359.98 657.773 389.912C642.448 405.716 629.997 418.766 629.997 419.125C629.997 419.365 631.553 420.322 633.588 421.16C636.701 422.477 638.018 422.238 643.645 419.963C653.703 415.892 662.203 417.449 669.866 424.633C675.253 429.661 677.049 434.091 677.169 442.951L677.289 450.972L685.67 454.564L694.051 458.036L697.164 455.402C735.357 424.273 752.956 408.11 760.38 397.454L763.253 393.384L758.344 388.595L753.555 383.686L748.287 386.32C741.822 389.433 735.117 389.552 728.772 386.559C722.785 383.806 719.433 380.214 716.32 373.15C714.285 368.6 714.045 366.565 714.883 362.015L715.841 356.508L709.735 356.627C706.383 356.747 702.072 357.106 700.037 357.346Z" fill="#1D375C"/>
<path d="M604.855 443.55C586.896 461.748 580.67 470.728 573.128 490.004C570.015 497.906 562.951 515.745 557.443 529.634C546.309 558.009 544.513 564.235 545.59 572.017C546.668 579.44 554.211 586.624 562.951 588.779C577.198 592.251 593.96 586.863 604.017 575.609C610.363 568.545 617.786 553.819 618.863 546.156C619.702 539.691 619.103 538.853 605.095 528.676L594.918 521.253L595.756 511.914C596.834 499.343 597.073 498.744 602.341 499.223L606.651 499.582L607.25 508.681L607.849 517.781L615.511 524.006C619.702 527.359 623.653 530.113 624.251 530.113C625.927 530.113 681.361 474.918 683.995 470.608C686.869 465.939 686.629 465.34 679.086 462.586L673.579 460.551L666.515 464.742C660.768 468.333 658.254 469.052 652.866 469.052C636.224 469.052 625.089 455.882 627.963 439.479C629.04 433.134 628.921 432.655 626.287 430.619C624.73 429.422 622.695 428.344 621.737 428.344C620.779 428.344 613.236 435.169 604.855 443.55Z" fill="#1D375C"/>
<path d="M450.406 430.619C448.729 431.218 447.532 432.295 447.891 433.253C449.208 438.76 449.328 448.937 448.011 452.769C444.778 462.586 435.559 469.051 424.664 469.051C418.319 469.051 410.536 466.058 406.825 462.466C404.79 460.311 404.43 460.311 398.205 462.466C394.613 463.664 391.739 465.34 391.739 466.178C391.739 468.812 402.515 480.665 428.136 506.167L452.8 530.591L461.421 524.605L470.161 518.499L470.52 511.435C470.999 499.702 471.358 498.983 476.746 498.983C482.133 498.983 482.133 498.983 483.211 512.991L483.929 521.492L473.992 528.077C460.223 537.296 458.308 539.571 459.146 545.677C459.984 551.903 466.09 564.953 471.717 572.376C483.57 587.941 506.198 594.286 521.643 586.264C530.383 581.834 533.257 576.327 532.658 565.432C532.299 558.368 530.623 553.1 522.002 531.31C516.375 517.182 509.311 499.103 506.198 491.201C498.297 470.967 492.55 462.466 475.668 445.824C467.766 437.922 460.582 431.098 459.744 430.619C457.948 429.422 454.596 429.422 450.406 430.619Z" fill="#1D375C"/>
<path d="M255.85 453.607C246.033 458.875 233.82 466.178 228.672 469.889L219.453 476.594L219.094 502.814C218.854 517.301 219.094 529.394 219.573 529.633C220.052 529.992 231.186 524.844 244.356 518.259L268.182 506.286L268.9 498.145C269.978 486.891 275.007 451.332 276.324 446.543C276.802 444.747 276.563 443.909 275.485 443.909C274.528 443.909 265.788 448.219 255.85 453.607ZM258.364 473.002C259.203 475.277 256.928 497.786 255.73 498.983C255.132 499.582 253.216 500.42 251.42 500.779C248.667 501.497 248.068 501.138 247.35 498.504C246.152 493.595 249.026 474.678 251.301 472.883C253.935 470.967 257.526 470.967 258.364 473.002ZM238.37 494.793C238.131 507.723 236.694 510.956 231.186 510.956C227.235 510.956 227.116 510.118 228.552 495.032C229.151 487.848 229.63 486.651 232.384 485.214C238.25 481.982 238.609 482.461 238.37 494.793Z" fill="#1D375C"/>
<path d="M802.404 445.346C802.404 446.303 802.883 450.015 803.602 453.607C804.679 459.354 809.588 501.019 809.588 504.611C809.588 505.928 851.014 527.598 857.239 529.514L860.113 530.352L859.394 504.251C858.676 482.102 858.317 477.792 856.641 475.876C852.57 471.566 838.682 462.347 822.997 453.846C804.799 444.029 802.404 443.071 802.404 445.346ZM827.547 473.242C828.385 474.32 829.702 480.545 830.301 487.13C831.618 500.779 831.019 502.575 825.631 499.941C822.399 498.504 822.04 497.666 820.603 486.651C819.645 480.186 819.286 474.2 819.645 473.242C820.483 470.847 825.631 470.967 827.547 473.242ZM846.584 485.454C848.499 487.13 849.337 489.884 850.295 498.145C851.014 503.892 851.253 509.16 850.894 509.759C849.936 511.196 845.506 511.315 843.231 509.879C841.316 508.681 839.639 500.061 839.639 490.243C839.52 484.377 839.759 483.419 841.795 483.419C842.992 483.419 845.147 484.377 846.584 485.454Z" fill="#1D375C"/>
<circle cx="239.578" cy="313.94" r="11.9137" fill="#1D375C"/>
<circle cx="230.914" cy="396.253" r="11.9137" fill="#1D375C"/>
<circle cx="337.053" cy="363.761" r="11.9137" fill="#1D375C"/>
<circle cx="423.699" cy="443.908" r="11.9137" fill="#1D375C"/>
<circle cx="324.057" cy="675.684" r="11.9137" fill="#1D375C"/>
<circle cx="653.309" cy="443.908" r="11.9137" fill="#1D375C"/>
<circle cx="737.788" cy="365.927" r="11.9137" fill="#1D375C"/>
<circle cx="839.598" cy="313.94" r="11.9137" fill="#1D375C"/>
<circle cx="846.095" cy="396.253" r="11.9137" fill="#1D375C"/>
<circle cx="755.117" cy="675.684" r="11.9137" fill="#1D375C"/>
</svg>
