<svg width="43" height="94" viewBox="0 0 43 94" fill="none" xmlns="http://www.w3.org/2000/svg">
<path d="M21.7999 0.319992V49.37H20.3799V0C20.8499 0.11 21.3299 0.209992 21.7999 0.319992Z" fill="#3E2775"/>
<path d="M21.11 44.6299C19.71 44.6299 18.5801 45.7599 18.5801 47.1599C18.5801 48.5599 19.71 49.6899 21.11 49.6899C22.51 49.6899 23.6401 48.5599 23.6401 47.1599C23.6401 45.7699 22.51 44.6299 21.11 44.6299Z" fill="#1D375C"/>
<path d="M23.1501 45.6797C23.0401 46.9697 21.9601 47.9897 20.6401 47.9897C19.8001 47.9897 19.0501 47.5697 18.5901 46.9397C18.5801 47.0097 18.5701 47.0897 18.5701 47.1597C18.5701 48.5597 19.7001 49.6897 21.1001 49.6897C22.5001 49.6897 23.6301 48.5597 23.6301 47.1597C23.6401 46.6097 23.4601 46.0997 23.1501 45.6797Z" fill="#E6D1BE"/>
<path d="M29.2399 54.9298C28.3399 51.1698 24.9699 48.5098 21.0999 48.5098C17.2299 48.5098 13.8699 51.1598 12.9599 54.9298L10.8999 63.5298H31.2999L29.2399 54.9298Z" fill="#1D375C"/>
<path d="M24.8 49.3696C24.62 49.3096 28.13 54.9596 24.8 56.3296C21.47 57.6996 13.81 56.3996 11.53 60.9296H30.68C29.67 58.3796 29.77 51.1096 24.8 49.3696Z" fill="#E6BEBE"/>
<path d="M21.1099 94.0001C31.4431 94.0001 39.8199 88.1977 39.8199 81.0401C39.8199 73.8825 31.4431 68.0801 21.1099 68.0801C10.7766 68.0801 2.3999 73.8825 2.3999 81.0401C2.3999 88.1977 10.7766 94.0001 21.1099 94.0001Z" fill="#FFE2A3"/>
<path d="M42.21 79.7299V81.5699H0.0100098V79.7299C0.0100098 79.4699 0.0399878 79.2199 0.0499878 78.9599C0.459988 67.6699 9.70999 58.6299 21.11 58.6299C21.99 58.6299 22.85 58.6799 23.7 58.7899C33.86 60.0299 41.79 68.5099 42.19 78.8999C42.21 79.1799 42.21 79.4499 42.21 79.7299Z" fill="#1D375C"/>
<path d="M0.039978 78.96C0.029978 79.22 0 79.4699 0 79.7299V81.57H42.2V79.7299C42.2 79.4699 42.17 79.22 42.16 78.96H0.039978Z" fill="#1D375C"/>
<path d="M13.3698 62.0996C10.1898 63.2896 4.55986 67.4396 4.88986 74.8396H8.62985C8.61985 74.8496 8.58984 65.9396 13.3698 62.0996Z" fill="white"/>
<path d="M42.1801 78.9L42.17 78.95H0.0500488C8.59005 77.45 27.1601 78.47 31.3101 74.33C36.8101 68.84 29.6401 60.67 23.7001 58.79C33.8601 60.03 41.7901 68.51 42.1801 78.9Z" fill="#E6BEBE"/>
</svg>
