<svg width="118" height="62" viewBox="0 0 118 62" fill="none" xmlns="http://www.w3.org/2000/svg">
<path d="M12.912 50.88V62H11.088V54.384L7.696 62H6.432L3.024 54.384V62H1.2V50.88H3.168L7.072 59.6L10.96 50.88H12.912ZM17.1334 50.88V62H15.3094V50.88H17.1334ZM28.6641 62H26.8401L21.3521 53.696V62H19.5281V50.864H21.3521L26.8401 59.152V50.864H28.6641V62ZM34.6914 50.88C35.8754 50.88 36.91 51.1093 37.7954 51.568C38.6914 52.016 39.3794 52.6667 39.8594 53.52C40.35 54.3627 40.5954 55.3493 40.5954 56.48C40.5954 57.6107 40.35 58.592 39.8594 59.424C39.3794 60.256 38.6914 60.896 37.7954 61.344C36.91 61.7813 35.8754 62 34.6914 62H31.0594V50.88H34.6914ZM34.6914 60.512C35.9927 60.512 36.99 60.16 37.6834 59.456C38.3767 58.752 38.7234 57.76 38.7234 56.48C38.7234 55.1893 38.3767 54.1813 37.6834 53.456C36.99 52.7307 35.9927 52.368 34.6914 52.368H32.8834V60.512H34.6914Z" fill="#1D375C"/>
<path d="M53.1034 50.88V52.368H48.3834V55.648H52.0634V57.136H48.3834V62H46.5594V50.88H53.1034ZM60.5698 62L58.0098 57.552H56.6178V62H54.7938V50.88H58.6338C59.4871 50.88 60.2071 51.0293 60.7938 51.328C61.3911 51.6267 61.8338 52.0267 62.1218 52.528C62.4204 53.0293 62.5698 53.5893 62.5698 54.208C62.5698 54.9333 62.3564 55.5947 61.9298 56.192C61.5138 56.7787 60.8684 57.1787 59.9938 57.392L62.7458 62H60.5698ZM56.6178 56.096H58.6338C59.3164 56.096 59.8284 55.9253 60.1698 55.584C60.5218 55.2427 60.6978 54.784 60.6978 54.208C60.6978 53.632 60.5271 53.184 60.1858 52.864C59.8444 52.5333 59.3271 52.368 58.6338 52.368H56.6178V56.096ZM71.6071 59.728H66.9511L66.1511 62H64.2471L68.2311 50.864H70.3431L74.3271 62H72.4071L71.6071 59.728ZM71.0951 58.24L69.2871 53.072L67.4631 58.24H71.0951ZM87.7714 50.88V62H85.9474V54.384L82.5554 62H81.2914L77.8834 54.384V62H76.0594V50.88H78.0274L81.9314 59.6L85.8194 50.88H87.7714ZM91.9928 52.352V55.616H95.8328V57.104H91.9928V60.512H96.3128V62H90.1688V50.864H96.3128V52.352H91.9928Z" fill="#38BDF8"/>
<path d="M24.4519 0.0473671C24.0233 0.181808 23.6956 0.400269 23.4856 0.685955C23.0907 1.19011 23.0234 1.61023 23.0234 3.40837V5.04687L23.3427 4.75278C23.9981 4.13099 24.4855 3.97975 25.0821 4.20662C25.2837 4.29064 25.4938 4.40828 25.5442 4.47549C25.8299 4.8116 25.9055 4.4839 25.9643 2.66055C25.9979 1.38337 26.0315 1.10609 26.124 1.10609C26.1912 1.10609 26.3256 1.23212 26.4181 1.39177C26.6449 1.78669 26.6869 2.71096 26.5609 4.92923C26.4853 6.23162 26.4769 7.79449 26.5273 10.5421L26.5945 14.3401L27.2919 13.9956C28.1238 13.5754 28.233 13.609 27.9893 14.2392C27.8129 14.6846 27.5272 16.0542 27.4348 16.844C27.4096 17.0961 27.3507 17.5498 27.3087 17.8523C27.2667 18.1632 27.2247 18.701 27.2247 19.0539C27.2247 19.4236 27.1827 19.7429 27.1239 19.8185C27.0314 19.9445 25.4854 20.7428 24.0233 21.4318C23.7629 21.5494 23.4436 21.7343 23.3259 21.8267L23.1075 21.9948V25.3474C23.1075 27.4732 23.1411 28.8596 23.1999 29.1453C23.3259 29.7671 23.6872 30.4729 24.2838 31.3131C25.5274 33.0525 25.3845 32.8256 27.4516 36.6908C28.317 38.304 28.5691 38.6906 29.0817 39.2283C29.7286 39.8921 29.527 39.7913 34.1988 41.8583C35.4256 42.3961 36.7616 42.9926 37.1817 43.1775C38.0135 43.5472 38.4337 43.648 38.5261 43.5052C38.6269 43.3287 38.4925 43.0095 38.1648 42.6902C37.8623 42.3877 37.3917 42.144 35.7112 41.3962C34.1232 40.6904 32.3754 39.5392 30.8798 38.2032C30.5101 37.8755 29.8799 37.3209 29.4766 36.968C28.6447 36.237 28.7035 36.4051 28.5859 34.6237L28.5103 33.4306L27.8381 32.75C26.7037 31.6156 26.2584 31.0107 26.0736 30.3889C25.9139 29.8511 25.9055 29.8427 25.5778 29.8007L25.2501 29.7587V28.9604C25.2501 28.1874 25.2585 28.1622 25.4518 28.137L25.6534 28.1034L25.6114 26.2128L25.5778 24.3223L25.8719 24.129C26.0399 24.0198 26.8214 23.2887 27.6028 22.4989L29.0312 21.0621L29.0144 20.2806C28.9976 19.8605 28.9472 19.2135 28.9052 18.8522C28.8212 18.2892 28.8296 18.1632 28.9472 17.9867C29.0649 17.8019 29.1321 17.7851 29.6614 17.7851H30.2496V17.0709V16.3567H29.695C28.7708 16.3567 28.8212 16.4827 28.8212 14.256C28.8212 13.1133 28.8548 12.3235 28.8968 12.3235C28.9388 12.3235 29.0733 12.3571 29.1909 12.4075L29.4094 12.4915V14.046V15.6004H29.8799C30.3588 15.6004 30.6361 15.7013 30.8126 15.9281C30.8798 16.0206 30.9134 16.4323 30.9218 17.1633C30.9218 18.4573 30.9134 18.4741 30.1488 18.5245L29.6446 18.5665L29.7034 19.5328C29.7623 20.4235 29.7791 20.5075 29.9723 20.6756C30.342 20.9949 30.1656 21.6502 29.7118 21.6502C29.5942 21.6502 29.048 22.1376 28.0986 23.0955C27.3087 23.8937 26.5945 24.6415 26.5189 24.7592C26.4097 24.9272 26.3844 25.2213 26.3844 26.4985V28.0362L26.5945 28.1202C26.7962 28.1958 26.8046 28.2294 26.8046 28.9436C26.8046 29.347 26.771 29.7167 26.7289 29.7587C26.6869 29.8091 26.6953 30.0024 26.7542 30.2376C26.8382 30.5485 27.0146 30.809 27.6028 31.4392C28.0061 31.8845 28.4095 32.2794 28.5019 32.3299C28.7708 32.4727 28.8464 32.313 28.7287 31.8677C28.5103 30.9938 28.8212 30.1452 29.5018 29.7923L29.8463 29.6242L29.7875 28.095C29.7539 27.2547 29.695 26.5237 29.653 26.4817C29.485 26.2632 29.5018 25.9187 29.7034 25.7171C29.8127 25.6078 29.9555 25.5154 30.0227 25.5154C30.1404 25.5154 30.5017 25.0785 31.7537 23.4148L32.3502 22.6165V21.7679C32.3502 20.7008 32.2998 20.4487 32.073 20.3479C31.9049 20.2722 31.8881 20.1882 31.8629 19.5664C31.8461 19.1211 31.8713 18.8186 31.9385 18.743C32.0646 18.5917 33.2745 18.5749 33.4258 18.7262C33.4846 18.785 33.5266 19.0875 33.5266 19.5076C33.5266 20.2134 33.451 20.3899 33.1737 20.3899C33.0308 20.3899 33.0224 20.4991 33.0224 21.7175V23.0451L32.5939 23.5828C31.7873 24.5827 30.6949 26.0616 30.5773 26.3136C30.4513 26.5825 30.4429 26.7002 30.5437 28.4563L30.6025 29.5906L31.0142 29.7755C31.3167 29.9099 31.4848 30.0612 31.6696 30.3553C32.1402 31.0863 32.0982 31.8341 31.552 32.4643C31.2159 32.8592 31.2075 32.96 31.3503 34.1028C31.426 34.6994 31.4848 34.8758 31.6276 34.9766C31.72 35.0439 32.2746 35.4472 32.8544 35.8757L33.9047 36.6487V37.3209V37.9931L33.5938 38.0184L33.2745 38.0436V37.5814V37.1193L32.7788 36.716C32.5099 36.4975 31.9469 36.069 31.5268 35.7749L30.7706 35.2455L30.6697 34.17L30.5689 33.0945L30.1992 33.0441C29.9891 33.0189 29.7118 32.9348 29.569 32.8592C29.4262 32.792 29.2749 32.7584 29.2329 32.8004C29.1993 32.834 29.1993 33.2457 29.2413 33.7079C29.2833 34.17 29.3421 34.8674 29.3673 35.2623L29.4262 35.9765L30.1908 36.6487C30.6109 37.0185 31.2999 37.6234 31.7116 37.9931C33.2661 39.3796 34.4005 40.0434 38.3832 41.9087C39.3243 42.3457 39.442 42.3709 39.652 42.1608C40.0049 41.8079 39.7781 40.4803 39.2151 39.6568C39.0639 39.4384 38.2068 38.5225 37.3161 37.6402C36.3582 36.674 35.644 35.8925 35.56 35.7077C35.4256 35.4136 35.4172 34.7078 35.4004 27.0447C35.3835 17.7767 35.4088 18.1884 34.8206 17.3986C34.224 16.6003 34.0391 16.4323 31.6864 14.5417C29.7034 12.962 28.3254 11.0799 27.7961 9.23973C27.6364 8.69356 27.6028 8.39107 27.6112 7.40797C27.6112 6.57613 27.6532 6.13079 27.7457 5.89552L27.8717 5.56782L27.9221 6.62654C28.0061 8.05497 28.3674 9.30695 29.048 10.4665L29.2665 10.8446L29.4934 10.5673C29.7034 10.3237 29.7202 10.2564 29.6782 9.72707C29.6194 8.828 29.9807 8.21461 30.7538 7.90372C31.1403 7.74408 31.8041 7.76088 32.241 7.94574C32.6191 8.09698 33.7703 8.32385 33.8459 8.25663C33.9635 8.13899 33.1905 7.1391 32.7031 6.77779C32.5351 6.65175 31.0142 5.1561 29.3253 3.45879C27.6364 1.76988 26.1156 0.307842 25.9475 0.215416C25.5946 0.0305595 24.7712 -0.0618668 24.4519 0.0473671ZM30.8291 7.03114C30.9888 7.14878 31.0647 6.86181 30.9638 6.8198C30.8714 6.79459 30.6697 6.74417 30.5269 6.71897C30.2496 6.66855 30.1572 6.5005 30.3588 6.40808C30.4093 6.37447 30.3756 6.37447 30.2664 6.39127C30.1152 6.41648 30.0816 6.39967 30.1152 6.29884C30.1404 6.23162 30.1656 6.13079 30.1656 6.08038C30.1656 6.02156 29.4109 6.96431 29.5369 7.10715C29.6546 7.2416 30.6863 6.92191 30.8291 7.03114ZM34.0139 28.137C34.0812 28.2042 34.1148 28.5235 34.1148 29.0025C34.1148 29.4814 34.0812 29.8007 34.0139 29.8679C33.9551 29.9267 33.6442 29.9687 33.1905 29.9687C32.7368 29.9687 32.4259 29.9267 32.367 29.8679C32.2998 29.8007 32.2662 29.4814 32.2662 29.0025C32.2662 28.5235 32.2998 28.2042 32.367 28.137C32.4259 28.0782 32.7368 28.0362 33.1905 28.0362C33.6442 28.0362 33.9551 28.0782 34.0139 28.137Z" fill="#1D375C"/>
<path d="M65.431 0.0561676C65.2545 0.106583 65.0108 0.190609 64.8848 0.257828C64.5991 0.409073 57.2805 7.75288 57.1377 8.03016L57.0369 8.23182L57.5914 8.173C57.8939 8.13939 58.3056 8.03016 58.4989 7.92933C59.3223 7.5176 60.4231 7.86211 60.8348 8.66875C61.0028 9.01325 61.0449 9.1897 61.0281 9.67705C61.0196 10.2316 61.0281 10.282 61.2969 10.5929L61.5742 10.929L61.8347 10.5173C62.1288 10.0468 62.5741 9.01325 62.7338 8.41668C62.9102 7.78648 62.9774 7.07227 62.9606 6.21521C62.9438 5.51781 62.8787 5.37341 62.6014 4.82725C62.4333 4.49115 62.3809 4.26583 62.4397 4.29944C62.5573 4.37506 63.0783 5.4842 63.2379 6.01355C63.532 6.99665 63.4144 8.55952 62.9438 9.80309C62.7086 10.4417 61.9943 11.6685 61.4818 12.3238C60.9944 12.9456 59.6584 14.248 58.9694 14.7858C57.1881 16.1554 56.5327 16.7772 56.0286 17.5754C55.558 18.3316 55.5832 17.8359 55.5412 27.0283C55.5076 34.5233 55.4824 35.582 55.3648 35.7921C55.2975 35.9181 54.4573 36.8088 53.5078 37.7667C51.9449 39.3463 51.7517 39.5648 51.4576 40.1698C51.1635 40.7664 51.1299 40.9092 51.1299 41.4638C51.1299 41.9847 51.1551 42.1024 51.2979 42.2032C51.5164 42.3629 51.6592 42.3208 52.7852 41.8083C56.5999 40.069 57.9275 39.2539 59.7845 37.5314C60.1122 37.2289 60.6499 36.7332 60.9776 36.4307L61.5742 35.8845L61.6246 34.6661C61.6582 34.0023 61.7003 33.3385 61.7171 33.2041C61.7843 32.784 61.675 32.7168 61.2465 32.9016C61.0449 33.0024 60.7592 33.0781 60.6163 33.0781H60.3474L60.2466 34.1704L60.1374 35.2543L59.0787 36.019C57.5746 37.1029 57.6586 37.0189 57.625 37.5398L57.5998 37.9935H57.3057H57.0116L56.9948 37.3213L56.978 36.6491L58.2216 35.7417L59.4568 34.8426L59.5576 33.9771C59.6921 32.8428 59.692 32.8764 59.4148 32.5571C58.9946 32.0698 58.877 31.7589 58.919 31.2127C58.9694 30.5657 59.2887 30.0868 59.8685 29.8011L60.297 29.591L60.3979 28.0618L60.5071 26.5325L60.2718 26.1712C59.9189 25.6166 59.1879 24.6335 58.5073 23.7849L57.8939 23.0203V21.7095C57.8939 20.4911 57.8855 20.3903 57.7427 20.3903C57.457 20.3903 57.3898 20.2138 57.3898 19.4996C57.3898 19.0123 57.4234 18.7854 57.5074 18.7182C57.583 18.6509 57.8855 18.6257 58.3308 18.6425L59.0283 18.6677L59.0535 19.4492C59.0787 20.2054 59.0703 20.2222 58.8602 20.323C58.6501 20.4155 58.6501 20.4155 58.6501 21.5582V22.701L59.65 24.0454C60.3643 25.0032 60.7508 25.4402 60.9692 25.5578C61.3473 25.7595 61.4734 26.0956 61.3053 26.4317C61.2297 26.5745 61.1709 27.1795 61.1289 28.1374L61.0701 29.6246L61.4062 29.7927C62.1288 30.1624 62.4481 30.9102 62.2212 31.7505C62.112 32.1538 62.1204 32.2042 62.238 32.305C62.3136 32.3555 62.4061 32.4059 62.4397 32.4059C62.4649 32.4059 62.8514 31.9941 63.2967 31.49C63.9269 30.7758 64.1202 30.4985 64.1874 30.2128C64.2378 30.0027 64.2378 29.8095 64.1958 29.7591C64.1538 29.7087 64.1118 29.3558 64.095 28.9608C64.0698 28.2718 64.0782 28.2466 64.2882 28.1458C64.4899 28.045 64.5067 27.9945 64.5571 27.2719C64.6663 25.7427 64.6411 25.2889 64.3975 24.8604C64.0782 24.3058 61.633 21.8439 61.2297 21.6758C60.7172 21.4658 60.5995 21.0373 60.9524 20.6844C61.1289 20.5079 61.1625 20.3819 61.2129 19.5164L61.2717 18.5417H60.8096C60.4819 18.5417 60.2886 18.4997 60.1542 18.3821C59.9693 18.2308 59.9525 18.1468 59.9273 17.3065C59.8769 15.8781 60.0618 15.6008 61.0533 15.6008H61.507V14.1304C61.507 12.7692 61.5238 12.6431 61.675 12.4919C61.8767 12.2902 62.0616 12.2734 62.1288 12.4583C62.2128 12.6684 62.1876 16.0546 62.1036 16.1806C62.0448 16.2646 61.8095 16.3234 61.3642 16.3487L60.7088 16.3991L60.6835 17.0881L60.6583 17.7855H61.2465C61.7843 17.7855 61.8515 17.8023 61.9775 17.9955C62.0952 18.1804 62.1036 18.2896 62.0111 18.9366C61.9523 19.3484 61.9019 19.9869 61.9019 20.3651L61.8935 21.0457L63.3555 22.5497C64.263 23.4824 64.91 24.079 65.0697 24.1294C65.4142 24.2386 65.5234 24.5579 65.3722 25.0032C65.2965 25.2385 65.2797 25.7091 65.3049 26.6838C65.3385 27.9441 65.3553 28.0366 65.5318 28.1794C65.6999 28.3138 65.7167 28.3895 65.6915 29.0449L65.6662 29.7591L65.3722 29.8011C65.0949 29.8431 65.0697 29.8767 64.91 30.3557C64.8092 30.6329 64.6075 31.0363 64.4479 31.2379C63.9857 31.8261 63.1791 32.7504 62.7926 33.1033C62.5153 33.3554 62.4313 33.5066 62.3977 33.7755C62.3472 34.1704 62.2716 35.372 62.2632 35.8929C62.2632 36.229 62.2212 36.271 61.1373 37.2541C58.6585 39.5144 57.1629 40.5731 55.4572 41.3125C53.2473 42.262 52.4491 42.783 52.4071 43.2955C52.3735 43.7577 52.6507 43.6736 55.3732 42.4721C55.9949 42.1948 56.81 41.8335 57.1797 41.6738C57.8687 41.3714 60.0618 40.3967 60.5827 40.153C61.0112 39.9597 61.6666 39.4556 62.0364 39.0523C62.4397 38.6069 62.7842 38.0608 63.3724 36.9432C63.6244 36.4559 63.9101 35.9265 64.0025 35.7669C64.095 35.6072 64.4647 34.9014 64.826 34.2124C65.2209 33.4478 65.7923 32.5235 66.2712 31.8765C67.1031 30.7422 67.4476 30.1288 67.6912 29.381C67.8173 28.986 67.8425 28.4483 67.8761 25.541C67.8929 23.3984 67.8761 22.1128 67.8257 22.0204C67.7837 21.9363 66.8426 21.4154 65.7419 20.8608L63.7337 19.8441L63.6328 18.6173C63.4984 16.8612 63.2967 15.3235 63.1035 14.6093C62.927 13.9623 62.8934 13.6682 63.0026 13.6682C63.0447 13.6682 63.2799 13.7775 63.532 13.9119C64.4143 14.3825 64.3386 14.4917 64.347 12.6431C64.3554 11.7525 64.3891 9.57622 64.4143 7.8117C64.4563 5.61023 64.4479 4.56832 64.3807 4.4927C64.3302 4.42548 64.305 3.87091 64.305 3.03906C64.3218 1.84591 64.3386 1.66105 64.4983 1.40057C64.5907 1.24092 64.7252 1.10648 64.7924 1.10648C64.8848 1.10648 64.9184 1.39217 64.952 2.76178C64.9772 3.8373 65.0277 4.45068 65.0865 4.5095C65.1621 4.58512 65.2713 4.55151 65.5318 4.38346C66.2124 3.92973 66.7838 4.01376 67.5148 4.68596L67.8761 5.01365L67.9349 3.4844C68.0021 1.72827 67.9097 1.19891 67.456 0.677952C66.977 0.13179 66.1536 -0.120285 65.431 0.0561676ZM58.5493 28.1374C58.6165 28.2046 58.6501 28.5239 58.6501 29.0028C58.6501 29.4818 58.6165 29.8011 58.5493 29.8683C58.4905 29.9271 58.1796 29.9691 57.7259 29.9691C57.2721 29.9691 56.9612 29.9271 56.9024 29.8683C56.8352 29.8011 56.8016 29.4818 56.8016 29.0028C56.8016 28.5239 56.8352 28.2046 56.9024 28.1374C56.9612 28.0786 57.2721 28.0366 57.7259 28.0366C58.1796 28.0366 58.4905 28.0786 58.5493 28.1374Z" fill="#1D375C"/>
<path d="M23.0234 8.43342V10.2736L23.5612 10.24C24.2838 10.1895 24.8216 10.4248 25.0064 10.8533C25.1661 11.2483 25.1409 12.0549 24.956 12.4834C24.6619 13.122 23.9225 13.3825 23.3007 13.0632L23.0234 12.9288V14.6765V16.4326L23.5528 16.0713C24.1242 15.668 25.603 14.8445 25.7375 14.8445C25.7963 14.8445 25.8047 14.458 25.7711 13.6934C25.7375 13.0632 25.7122 11.2567 25.7122 9.68539V6.82013L25.4938 7.13103C25.2081 7.53435 24.7796 7.73601 24.3426 7.67719C23.9393 7.61837 23.662 7.43352 23.3007 6.95457L23.0234 6.59327V8.43342Z" fill="#1D375C"/>
<path d="M67.6155 7.02204C67.3802 7.35814 66.8088 7.70265 66.4811 7.70265C66.1618 7.70265 65.7585 7.49258 65.4728 7.16489L65.204 6.85399V9.10587C65.204 10.341 65.1788 12.114 65.1451 13.0466L65.0947 14.7356L65.8846 15.1641C66.3215 15.3994 66.9433 15.7607 67.2626 15.9707C67.5903 16.1808 67.876 16.3236 67.9096 16.29C67.9432 16.2564 67.9516 15.4834 67.918 14.5759L67.8676 12.9206L67.6491 13.0298C67.2206 13.2483 66.9769 13.2567 66.5904 13.0887C66.1534 12.8954 66.0022 12.6853 65.8762 12.0467C65.7333 11.3493 65.8762 10.7107 66.2375 10.4587C66.4643 10.299 66.6156 10.2654 67.2038 10.2654H67.8928V8.47568C67.8928 7.50099 67.8844 6.69434 67.876 6.69434C67.8592 6.69434 67.7499 6.84559 67.6155 7.02204Z" fill="#1D375C"/>
<path d="M32.8626 9.14729C33.2239 10.3825 31.6695 11.584 30.4511 11.0042L30.1486 10.853L29.9049 11.1387L29.6697 11.4244L29.8545 11.6848C30.3167 12.3402 31.5182 13.5166 32.5769 14.3568C32.9803 14.6761 33.5853 15.1635 33.9129 15.4408C34.2491 15.7097 34.5431 15.9365 34.5767 15.9365C34.6104 15.9365 34.8624 15.8357 35.1313 15.7181L35.6271 15.4912V15.0206C35.6355 14.2308 35.9716 13.6762 36.669 13.3149C37.0555 13.1133 37.6941 13.1385 38.1478 13.3738C38.3999 13.4998 38.8704 13.4998 39.0973 13.3569C39.1897 13.3065 38.3411 12.3402 38.1478 12.2814C38.0638 12.2562 37.7193 11.9033 37.3748 11.5C35.5346 9.32374 34.9381 8.92042 33.4256 8.88681L32.7786 8.87L32.8626 9.14729Z" fill="#1D375C"/>
<path d="M56.7595 8.93739C55.9276 9.04662 55.8268 9.12224 53.7934 11.2229C52.7179 12.332 51.844 13.2479 51.844 13.2731C51.844 13.2899 51.9532 13.3571 52.0961 13.4159C52.3145 13.5084 52.407 13.4916 52.8019 13.3319C53.5077 13.0462 54.1043 13.1555 54.642 13.6596C55.0201 14.0125 55.1462 14.3234 55.1546 14.9452L55.163 15.5082L55.7512 15.7602L56.3393 16.0039L56.5578 15.8191C59.2382 13.6344 60.4734 12.5001 60.9943 11.7522L61.196 11.4665L60.8515 11.1304L60.5154 10.7859L60.1457 10.9708C59.6919 11.1893 59.2214 11.1977 58.7761 10.9876C58.3559 10.7943 58.1207 10.5423 57.9022 10.0465C57.7594 9.72722 57.7426 9.58438 57.8014 9.26508L57.8686 8.87857L57.4401 8.88697C57.2048 8.89537 56.9023 8.92058 56.7595 8.93739Z" fill="#1D375C"/>
<path d="M50.0796 14.9874C48.8192 16.2646 48.3823 16.8948 47.8529 18.2476C47.6344 18.8021 47.1387 20.0541 46.7522 21.0288C45.9707 23.0202 45.8447 23.4571 45.9203 24.0033C45.9959 24.5242 46.5253 25.0284 47.1387 25.1796C48.1386 25.4233 49.3149 25.0452 50.0208 24.2554C50.4661 23.7596 50.987 22.7261 51.0627 22.1883C51.1215 21.7346 51.0795 21.6758 50.0964 20.9616L49.3822 20.4406L49.441 19.7852C49.5166 18.903 49.5334 18.861 49.9031 18.8946L50.2056 18.9198L50.2476 19.5584L50.2896 20.197L50.8274 20.6339C51.1215 20.8692 51.3988 21.0624 51.4408 21.0624C51.5584 21.0624 55.4488 17.1888 55.6336 16.8864C55.8353 16.5587 55.8185 16.5166 55.2891 16.3234L54.9026 16.1805L54.4069 16.4746C54.0035 16.7267 53.8271 16.7771 53.449 16.7771C52.281 16.7771 51.4996 15.8528 51.7013 14.7017C51.7769 14.2564 51.7685 14.2228 51.5836 14.0799C51.4744 13.9959 51.3315 13.9203 51.2643 13.9203C51.1971 13.9203 50.6677 14.3992 50.0796 14.9874Z" fill="#1D375C"/>
<path d="M39.24 14.0795C39.1224 14.1215 39.0384 14.1972 39.0636 14.2644C39.156 14.6509 39.1644 15.3651 39.072 15.634C38.8451 16.323 38.1981 16.7767 37.4335 16.7767C36.9882 16.7767 36.442 16.5667 36.1815 16.3146C36.0387 16.1634 36.0135 16.1634 35.5765 16.3146C35.3245 16.3986 35.1228 16.5163 35.1228 16.5751C35.1228 16.7599 35.879 17.5918 37.6772 19.3815L39.4081 21.0956L40.0131 20.6755L40.6265 20.247L40.6517 19.7512C40.6853 18.9278 40.7105 18.8774 41.0886 18.8774C41.4667 18.8774 41.4667 18.8774 41.5423 19.8605L41.5927 20.457L40.8953 20.9192C39.929 21.5662 39.7946 21.7258 39.8534 22.1544C39.9122 22.5913 40.3408 23.5072 40.7357 24.0281C41.5675 25.1204 43.1556 25.5658 44.2395 25.0028C44.8529 24.6919 45.0546 24.3054 45.0126 23.5408C44.9874 23.045 44.8697 22.6753 44.2647 21.1461C43.8698 20.1546 43.3741 18.8858 43.1556 18.3312C42.601 16.9112 42.1977 16.3146 41.013 15.1467C40.4584 14.5921 39.9543 14.1131 39.8954 14.0795C39.7694 13.9955 39.5341 13.9955 39.24 14.0795Z" fill="#1D375C"/>
<path d="M25.5862 15.6934C24.8972 16.0631 24.0401 16.5757 23.6788 16.8362L23.0318 17.3067L23.0066 19.1469C22.9898 20.1636 23.0066 21.0122 23.0402 21.029C23.0738 21.0542 23.8552 20.6929 24.7795 20.2308L26.4516 19.3905L26.502 18.8192C26.5777 18.0293 26.9306 15.5338 27.023 15.1977C27.0566 15.0716 27.0398 15.0128 26.9642 15.0128C26.897 15.0128 26.2836 15.3153 25.5862 15.6934ZM25.7626 17.0546C25.8214 17.2143 25.6618 18.794 25.5778 18.878C25.5358 18.92 25.4013 18.9788 25.2753 19.004C25.082 19.0544 25.04 19.0292 24.9896 18.8444C24.9056 18.4999 25.1072 17.1723 25.2669 17.0462C25.4517 16.9118 25.7038 16.9118 25.7626 17.0546ZM24.3594 18.5839C24.3426 19.4914 24.2418 19.7182 23.8552 19.7182C23.578 19.7182 23.5696 19.6594 23.6704 18.6007C23.7124 18.0966 23.746 18.0125 23.9393 17.9117C24.351 17.6848 24.3762 17.7184 24.3594 18.5839Z" fill="#1D375C"/>
<path d="M63.9436 15.1133C63.9436 15.1805 63.9772 15.441 64.0276 15.6931C64.1033 16.0964 64.4478 19.0205 64.4478 19.2726C64.4478 19.365 67.355 20.8858 67.792 21.0203L67.9936 21.0791L67.9432 19.2474C67.8928 17.6929 67.8676 17.3904 67.7499 17.256C67.4643 16.9535 66.4896 16.3065 65.3888 15.7099C64.1117 15.0209 63.9436 14.9537 63.9436 15.1133ZM65.7081 17.0711C65.767 17.1467 65.8594 17.5837 65.9014 18.0458C65.9938 19.0037 65.9518 19.1297 65.5737 18.9449C65.3468 18.844 65.3216 18.7852 65.2208 18.0122C65.1536 17.5584 65.1284 17.1383 65.1536 17.0711C65.2124 16.903 65.5737 16.9115 65.7081 17.0711ZM67.0441 17.9282C67.1786 18.0458 67.2374 18.239 67.3046 18.8188C67.355 19.2221 67.3718 19.5919 67.3466 19.6339C67.2794 19.7347 66.9685 19.7431 66.8089 19.6423C66.6744 19.5582 66.5568 18.9533 66.5568 18.2643C66.5484 17.8525 66.5652 17.7853 66.708 17.7853C66.7921 17.7853 66.9433 17.8525 67.0441 17.9282Z" fill="#1D375C"/>
<circle cx="24.4443" cy="5.8908" r="0.836112" fill="#1D375C"/>
<circle cx="23.8361" cy="11.6681" r="0.836112" fill="#1D375C"/>
<circle cx="31.2851" cy="9.38787" r="0.836112" fill="#1D375C"/>
<circle cx="37.3659" cy="15.0119" r="0.836112" fill="#1D375C"/>
<circle cx="30.373" cy="31.2785" r="0.836112" fill="#1D375C"/>
<circle cx="53.4799" cy="15.0119" r="0.836112" fill="#1D375C"/>
<circle cx="59.4089" cy="9.53924" r="0.836112" fill="#1D375C"/>
<circle cx="66.5539" cy="5.8908" r="0.836112" fill="#1D375C"/>
<circle cx="67.0099" cy="11.6681" r="0.836112" fill="#1D375C"/>
<circle cx="60.6249" cy="31.2785" r="0.836112" fill="#1D375C"/>
</svg>
