<svg width="78" height="196" viewBox="0 0 78 196" fill="none" xmlns="http://www.w3.org/2000/svg">
<path d="M20.7717 195.218H-1.90735e-06C-1.90735e-06 190.604 3.74123 186.863 8.3546 186.863H12.4171C17.0305 186.863 20.7717 190.604 20.7717 195.218Z" fill="#503294"/>
<path d="M12.05 39.0177L11.5853 187.914L9.33021 187.828L9.79502 38.9316L12.05 39.0177Z" fill="#503294"/>
<path d="M51.671 0.0277845L52.2734 0.0507415L54.9875 4.46901L53.0653 5.65105L50.9881 2.27136C30.2222 1.82953 12.8188 18.1944 12.0499 39.0177L9.79487 38.9374C10.6097 16.6623 29.396 -0.792754 51.671 0.0277845Z" fill="#503294"/>
<path d="M61.8563 21.0636C59.8652 22.1366 57.3806 21.3906 56.3076 19.3995L51.4073 10.2933C50.3343 8.3022 51.0802 5.81763 53.0713 4.75036C55.0624 3.67735 57.547 4.42329 58.6143 6.41438L63.5146 15.5206C64.5933 17.5117 63.8474 19.9963 61.8563 21.0636Z" fill="#503294"/>
<path d="M77.2453 25.3836L51.8546 36.1596L47.9527 26.8755C44.9747 19.789 48.3027 11.6353 55.3892 8.65152C62.4757 5.67349 70.6294 9.00154 73.6132 16.088L77.2453 25.3836Z" fill="#1D375C"/>
<path d="M55.3898 8.65808C56.3022 8.27363 57.226 7.99819 58.1613 7.82031C53.479 11.6189 51.6486 18.1775 54.1045 24.0188L58.0063 33.3029L77.1656 25.1721L77.2517 25.3902L51.8609 36.1662L47.959 26.882C44.9752 19.7956 48.3033 11.6361 55.3898 8.65808Z" fill="#EBD6C4"/>
<path d="M66.6648 34.1116C59.6529 37.2733 52.5033 37.6463 51.8664 36.2003C51.3155 34.9723 55.0108 32.0689 60.4734 29.2802C60.5595 29.24 60.6398 29.1999 60.7259 29.154C61.5694 28.7294 62.4645 28.299 63.3883 27.8859C64.972 27.1801 66.5099 26.5489 67.9501 26.0382C67.9731 26.0267 67.9903 26.0153 68.019 26.0095C72.9594 24.2479 76.758 23.6684 77.2572 24.7816C77.8998 26.2161 73.6824 30.9557 66.6648 34.1116Z" fill="#DB6300"/>
<path d="M67.5889 28.2587C66.6249 30.3129 64.1748 31.2023 62.1148 30.2383C61.5582 29.9801 61.0877 29.6014 60.7205 29.1538C61.564 28.7292 62.4591 28.2989 63.3829 27.8857C64.9666 27.18 66.5044 26.5488 67.9447 26.0381C68.0365 26.7726 67.9275 27.5357 67.5889 28.2587Z" fill="white"/>
<path d="M60.1529 18.24C58.7472 14.1591 59.5872 10.169 62.0292 9.32787C64.4711 8.4867 67.5902 11.113 68.996 15.1939C70.4017 19.2748 69.5617 23.2649 67.1197 24.1061C64.6778 24.9472 61.5586 22.3209 60.1529 18.24Z" fill="#9EA0A3"/>
</svg>
