<svg width="135" height="341" viewBox="0 0 135 341" fill="none" xmlns="http://www.w3.org/2000/svg">
<path d="M98.5522 340.218H134.752C134.752 332.178 128.232 325.658 120.192 325.658H113.112C105.072 325.658 98.5522 332.178 98.5522 340.218Z" fill="#503294"/>
<path d="M113.752 67.9987L114.562 327.489L118.492 327.339L117.682 67.8486L113.752 67.9987Z" fill="#503294"/>
<path d="M44.7023 0.0484217L43.6523 0.0884302L38.9224 7.78841L42.2723 9.84841L45.8923 3.95843C82.0823 3.18843 112.412 31.7084 113.752 67.9984L117.682 67.8584C116.262 29.0384 83.5223 -1.38158 44.7023 0.0484217Z" fill="#503294"/>
<path d="M26.9522 36.7088C30.4222 38.5788 34.7522 37.2788 36.6222 33.8088L45.1622 17.9388C47.0322 14.4688 45.7322 10.1388 42.2622 8.27881C38.7922 6.40881 34.4622 7.7088 32.6022 11.1788L24.0621 27.0488C22.1821 30.5188 23.4822 34.8488 26.9522 36.7088Z" fill="#503294"/>
<path d="M0.132324 44.2381L44.3823 63.0181L51.1823 46.8381C56.3722 34.4881 50.5723 20.2781 38.2223 15.0781C25.8723 9.88807 11.6623 15.6881 6.46228 28.0381L0.132324 44.2381Z" fill="#1D375C"/>
<path d="M38.222 15.0889C36.632 14.4189 35.0221 13.9389 33.3921 13.6289C41.5521 20.2489 44.742 31.6789 40.462 41.8589L33.6621 58.0389L0.272095 43.8689L0.12207 44.2489L44.3721 63.0289L51.1721 46.8489C56.3721 34.4989 50.572 20.2789 38.222 15.0889Z" fill="#EBD6C4"/>
<path d="M18.5721 59.4484C30.7921 64.9584 43.2521 65.6084 44.3621 63.0884C45.3221 60.9484 38.8821 55.8884 29.3621 51.0284C29.2121 50.9584 29.0722 50.8884 28.9222 50.8084C27.4522 50.0684 25.8922 49.3183 24.2822 48.5983C21.5222 47.3683 18.8421 46.2683 16.3321 45.3783C16.2921 45.3583 16.2621 45.3384 16.2121 45.3284C7.60211 42.2584 0.982135 41.2484 0.112135 43.1884C-1.00787 45.6884 6.3421 53.9484 18.5721 59.4484Z" fill="#DB6300"/>
<path d="M16.9621 49.2489C18.6421 52.8289 22.9122 54.3789 26.5022 52.6989C27.4722 52.2489 28.2921 51.5889 28.9321 50.8089C27.4621 50.0689 25.9022 49.3189 24.2922 48.5989C21.5322 47.3689 18.8521 46.2689 16.3421 45.3789C16.1821 46.6589 16.3721 47.9889 16.9621 49.2489Z" fill="white"/>
<path d="M29.9203 31.7886C32.3702 24.6766 30.9062 17.7229 26.6505 16.2569C22.3948 14.791 16.9589 19.368 14.5091 26.48C12.0592 33.592 13.5232 40.5458 17.7789 42.0117C22.0346 43.4777 27.4705 38.9006 29.9203 31.7886Z" fill="#9EA0A3"/>
</svg>
