<svg width="486" height="405" viewBox="0 0 486 405" fill="none" xmlns="http://www.w3.org/2000/svg">
<path d="M286.971 191.302C266.829 187.892 257.046 204.617 254.385 214.546C251.724 224.476 225.654 321.761 225.654 321.761C217.458 349.38 267.672 359.589 275.894 334.933C275.894 334.933 300.769 246.316 304.516 227.887C308.263 209.457 307.113 194.712 286.971 191.302Z" fill="white"/>
<path d="M252.902 349.58C249.189 349.58 245.382 349.008 241.765 347.869C235.689 345.955 230.655 342.578 227.59 338.361C224.078 333.528 223.184 327.725 225.006 321.578L253.735 214.372C256.532 203.933 266.705 187.187 287.085 190.637C294.707 191.927 299.973 194.831 303.185 199.513C307.34 205.569 307.954 214.361 305.177 228.021C301.468 246.264 276.793 334.229 276.544 335.115C276.541 335.126 276.538 335.136 276.535 335.146C275.441 338.426 273.585 341.24 271.021 343.51C268.66 345.598 265.753 347.183 262.379 348.221C259.429 349.128 256.202 349.58 252.902 349.58ZM281.826 191.53C265.733 191.53 257.474 205.626 255.037 214.721L226.306 321.936C226.304 321.942 226.303 321.947 226.301 321.953C222.369 335.204 232.392 343.503 242.17 346.583C255.123 350.664 271.034 347.347 275.25 334.734C275.705 333.115 300.172 245.869 303.856 227.752C306.554 214.48 306.004 206.006 302.073 200.275C299.079 195.91 294.103 193.192 286.859 191.966C285.103 191.669 283.425 191.53 281.826 191.53Z" fill="#212121"/>
<path d="M249.45 216.779L238.66 253.775L233.167 272.566L294.361 289.396L299.531 271.972L310.204 235.955C313.207 226.656 315.875 199.316 292.274 190.417C268.68 181.503 253.021 204.53 249.45 216.779Z" fill="#1D375C"/>
<path d="M237.706 300.514C229.763 303.288 197.217 314.731 173.563 324.14C154.799 331.604 150.697 355.943 160.27 368.136C169.843 380.329 186.164 382.407 197.767 377.029C214.103 369.457 250.868 353.289 258.324 349.761C269.049 344.686 278.54 334.154 276.581 321.049" fill="white"/>
<path d="M184.776 380.503C182.559 380.503 180.327 380.281 178.123 379.832C170.703 378.319 164.346 374.419 159.74 368.552C154.841 362.31 153.314 352.805 155.756 343.746C158.298 334.315 164.698 326.941 173.315 323.513C196.675 314.221 228.337 303.072 237.484 299.877C237.836 299.754 238.221 299.94 238.343 300.291C238.466 300.642 238.281 301.027 237.929 301.15C228.788 304.343 197.148 315.484 173.813 324.766C165.595 328.035 159.488 335.081 157.058 344.097C154.724 352.754 156.158 361.806 160.801 367.719C167.118 375.766 176.136 379.158 184.662 379.158C189.244 379.158 193.682 378.179 197.484 376.417C206.343 372.31 221.112 365.72 234.143 359.905C245.135 355 254.628 350.763 258.036 349.151C267.542 344.652 277.929 334.619 275.915 321.148C275.86 320.78 276.114 320.437 276.482 320.382C276.85 320.327 277.193 320.581 277.249 320.949C278.178 327.164 276.625 333.338 272.76 338.805C269.422 343.525 264.398 347.632 258.612 350.37C255.191 351.988 245.692 356.228 234.693 361.136C221.666 366.949 206.901 373.538 198.051 377.64C193.964 379.534 189.405 380.503 184.776 380.503Z" fill="#212121"/>
<path d="M180.997 324.016C155.577 324.54 121.592 336.452 110.421 372.083C109.152 378.228 112.41 384.404 118.202 386.82C127.177 390.564 144.18 396.011 155.529 399.959C161.785 402.135 168.564 399.231 171.574 393.332C182.263 372.388 196.443 391.09 211.898 369.763C212.758 368.576 213.554 367.359 214.278 366.119" fill="white"/>
<path d="M159.774 401.351C158.266 401.351 156.757 401.1 155.308 400.596C152.033 399.457 148.322 398.205 144.394 396.879C134.997 393.708 124.347 390.114 117.942 387.442C111.87 384.91 108.43 378.393 109.761 371.947C109.766 371.925 109.771 371.903 109.778 371.881C112.456 363.341 116.592 355.703 122.071 349.181C126.997 343.317 133.04 338.31 140.03 334.3C151.823 327.535 166.367 323.643 180.983 323.342C181.356 323.333 181.663 323.63 181.671 324.002C181.678 324.374 181.383 324.682 181.011 324.69C154.245 325.242 121.823 338.026 111.075 372.253C109.892 378.056 112.994 383.918 118.462 386.198C124.823 388.852 135.449 392.438 144.825 395.601C148.757 396.928 152.47 398.181 155.751 399.322C161.661 401.378 168.063 398.73 170.974 393.026C176.491 382.216 183.004 381.635 189.9 381.019C196.738 380.408 203.809 379.776 211.352 369.367C212.202 368.195 212.99 366.988 213.696 365.779C213.883 365.458 214.297 365.35 214.618 365.537C214.94 365.725 215.048 366.138 214.86 366.459C214.132 367.706 213.319 368.951 212.444 370.158C204.541 381.065 196.826 381.754 190.02 382.362C183.223 382.969 177.353 383.493 172.175 393.638C170.639 396.648 168.101 399.013 165.029 400.296C163.346 400.998 161.561 401.351 159.774 401.351Z" fill="#212121"/>
<path d="M147.849 392.534C147.849 392.534 149.874 371.381 169.183 359.34L147.849 392.534Z" fill="white"/>
<path d="M147.85 393.208C147.828 393.208 147.807 393.207 147.785 393.205C147.414 393.169 147.143 392.84 147.178 392.47C147.199 392.25 147.728 386.998 150.656 380.186C152.375 376.187 154.568 372.487 157.175 369.188C160.436 365.062 164.356 361.556 168.826 358.768C169.142 358.571 169.558 358.668 169.755 358.983C169.952 359.299 169.856 359.715 169.54 359.912C159.731 366.029 154.541 374.578 151.914 380.673C149.058 387.3 148.525 392.546 148.52 392.599C148.487 392.947 148.193 393.208 147.85 393.208Z" fill="#212121"/>
<path d="M125.918 384.876C125.918 384.876 127.822 363.511 145.974 350.204L125.918 384.876Z" fill="white"/>
<path d="M125.918 385.551C125.898 385.551 125.878 385.55 125.858 385.548C125.487 385.515 125.213 385.188 125.246 384.817C125.266 384.595 125.763 379.299 128.511 372.285C130.125 368.167 132.184 364.319 134.631 360.847C137.694 356.503 141.376 352.739 145.575 349.661C145.876 349.441 146.298 349.506 146.518 349.806C146.738 350.106 146.673 350.528 146.372 350.748C137.126 357.526 132.239 366.469 129.767 372.777C127.088 379.612 126.594 384.884 126.589 384.937C126.558 385.287 126.264 385.551 125.918 385.551Z" fill="#212121"/>
<path d="M355.563 179.11H324.701C315.114 179.11 306.761 180.3 299.39 182.465C275.436 189.499 259.352 211.987 259.578 236.952L260.696 360.38C260.696 395.144 416.514 392.351 416.514 360.38L421.006 247.125C422.464 210.38 393.368 179.453 356.596 179.115C356.253 179.112 355.909 179.11 355.563 179.11Z" fill="white"/>
<path d="M336.162 386.091C316.053 386.091 297.508 383.902 283.943 379.928C276.528 377.755 270.732 375.09 266.716 372.007C262.274 368.597 260.022 364.685 260.022 360.38L258.904 236.958C258.847 230.74 259.786 224.593 261.693 218.688C263.561 212.906 266.312 207.489 269.871 202.589C273.445 197.667 277.741 193.393 282.64 189.888C287.68 186.28 293.252 183.565 299.2 181.818C306.841 179.574 315.421 178.437 324.701 178.437H355.563C355.911 178.437 356.257 178.438 356.602 178.441C365.629 178.524 374.354 180.411 382.536 184.05C390.42 187.556 397.457 192.526 403.453 198.822C409.501 205.172 414.163 212.527 417.311 220.683C420.571 229.131 422.041 238.036 421.68 247.152L417.188 360.394C417.178 368.303 408.27 374.967 391.426 379.668C376.798 383.75 356.656 386.091 336.162 386.091ZM324.701 179.785C315.55 179.785 307.097 180.904 299.58 183.112C276.199 189.978 260.027 212.115 260.252 236.946L261.37 360.374C261.37 369.909 273.852 375.566 284.322 378.634C297.767 382.573 316.178 384.743 336.162 384.743C356.538 384.743 376.549 382.42 391.063 378.369C398.856 376.194 404.945 373.589 409.161 370.626C413.592 367.511 415.839 364.064 415.839 360.38C415.839 360.372 415.839 360.363 415.84 360.354L420.332 247.098C421.034 229.394 414.693 212.579 402.477 199.751C390.371 187.039 374.074 179.95 356.589 179.789C356.249 179.786 355.907 179.785 355.563 179.785L324.701 179.785Z" fill="#1D375C"/>
<path d="M390.025 185.092C379.143 179.858 362.8 178.55 345.916 178.55C345.916 178.55 346.021 191.283 328.293 191.283C310.565 191.283 312.464 179.183 312.464 179.183C301.848 180.35 279.331 185.483 272.446 189.33C260.242 196.15 253.936 206.536 253.654 218.21L249.583 398.894C249.608 400.721 250.317 402.393 251.621 403.923H420.438L423.05 230.601C423.05 210.429 407.805 193.645 390.025 185.092Z" fill="#1D375C"/>
<path d="M252.311 278.506C252.306 278.506 252.301 278.506 252.296 278.506C251.923 278.497 251.628 278.189 251.637 277.816L252.98 218.194C252.988 217.822 253.298 217.529 253.669 217.535C254.041 217.544 254.336 217.852 254.328 218.224L252.985 277.847C252.977 278.214 252.676 278.506 252.311 278.506Z" fill="white"/>
<path d="M313.765 182.172V162.569H344.38V181.415" fill="white"/>
<path d="M313.765 182.848C313.392 182.848 313.091 182.546 313.091 182.173L313.091 162.571C313.091 162.198 313.393 161.896 313.765 161.896H344.38C344.752 161.896 345.054 162.198 345.054 162.571V181.416C345.054 181.788 344.752 182.09 344.38 182.09C344.007 182.09 343.705 181.788 343.705 181.416V163.245H314.439L314.439 182.173C314.439 182.546 314.137 182.848 313.765 182.848ZM340.077 151.763L351.202 153.299L361.922 154.778C370.243 155.926 377.919 150.112 379.068 141.791L383.34 110.836L346.429 105.742L340.077 151.763Z" fill="#212121"/>
<path d="M340.054 168.182C330.073 168.677 319.98 167.249 310.907 164.272C299.491 160.526 292.367 149.179 294.01 137.277L299.424 98.049C300.919 87.2149 310.914 79.6442 321.748 81.1395L352.007 85.3156C362.841 86.8109 370.412 96.8058 368.917 107.64L363.515 146.779C361.879 158.636 352.009 167.588 340.054 168.182Z" fill="white"/>
<path d="M336.138 168.953C327.527 168.953 318.809 167.575 310.697 164.913C298.955 161.06 291.656 149.399 293.342 137.186L298.756 97.9574C300.3 86.7723 310.655 78.9284 321.84 80.4722L352.099 84.6483C357.518 85.3961 362.32 88.2091 365.623 92.5691C368.925 96.9292 370.332 102.314 369.584 107.733L364.183 146.872C362.509 159 352.375 168.246 340.087 168.856C338.775 168.921 337.457 168.953 336.138 168.953ZM319.028 81.6267C309.63 81.6267 301.412 88.5758 300.091 98.1417L294.678 137.37C293.081 148.938 299.995 159.983 311.117 163.632C319.093 166.249 327.669 167.605 336.136 167.605C337.435 167.605 338.729 167.573 340.02 167.509C351.662 166.931 361.262 158.174 362.847 146.688L368.249 107.548C368.947 102.487 367.633 97.4562 364.548 93.3832C361.463 89.3103 356.976 86.6825 351.915 85.984L321.656 81.8079C320.773 81.686 319.895 81.6267 319.028 81.6267Z" fill="#212121"/>
<path d="M310.128 122.046C312.7 122.046 314.786 119.961 314.786 117.388C314.786 114.816 312.7 112.73 310.128 112.73C307.555 112.73 305.47 114.816 305.47 117.388C305.47 119.961 307.555 122.046 310.128 122.046Z" fill="#212121"/>
<path d="M338.475 125.959C341.047 125.959 343.133 123.874 343.133 121.301C343.133 118.729 341.047 116.644 338.475 116.644C335.902 116.644 333.817 118.729 333.817 121.301C333.817 123.874 335.902 125.959 338.475 125.959Z" fill="#212121"/>
<path d="M339.381 135.277C339.251 135.277 339.119 135.239 339.003 135.161C338.695 134.952 338.615 134.533 338.824 134.225L341.784 129.858C341.993 129.55 342.412 129.47 342.721 129.679C343.029 129.888 343.109 130.307 342.9 130.615L339.94 134.981C339.809 135.173 339.597 135.277 339.381 135.277Z" fill="#212121"/>
<path d="M342.276 135.676C342.146 135.676 342.014 135.639 341.898 135.56C341.59 135.351 341.509 134.932 341.718 134.624L344.679 130.258C344.888 129.95 345.307 129.869 345.615 130.078C345.923 130.287 346.004 130.706 345.795 131.015L342.834 135.381C342.704 135.573 342.492 135.676 342.276 135.676Z" fill="#212121"/>
<path d="M345.17 136.076C345.04 136.076 344.908 136.038 344.793 135.96C344.484 135.751 344.404 135.331 344.613 135.023L347.574 130.657C347.782 130.349 348.202 130.269 348.51 130.478C348.818 130.687 348.898 131.106 348.689 131.414L345.729 135.78C345.599 135.972 345.386 136.076 345.17 136.076Z" fill="#212121"/>
<path d="M307.281 130.846C306.999 130.846 306.736 130.668 306.642 130.385L304.975 125.38C304.857 125.027 305.048 124.645 305.401 124.528C305.754 124.41 306.136 124.601 306.254 124.954L307.921 129.959C308.039 130.312 307.848 130.694 307.495 130.812C307.424 130.835 307.352 130.846 307.281 130.846Z" fill="#212121"/>
<path d="M304.387 130.447C304.104 130.447 303.841 130.268 303.747 129.986L302.08 124.981C301.962 124.628 302.153 124.246 302.507 124.128C302.86 124.011 303.242 124.202 303.359 124.555L305.027 129.56C305.144 129.913 304.953 130.295 304.6 130.412C304.529 130.436 304.457 130.447 304.387 130.447Z" fill="#212121"/>
<path d="M301.492 130.048C301.21 130.048 300.947 129.869 300.853 129.586L299.185 124.582C299.068 124.228 299.259 123.847 299.612 123.729C299.965 123.612 300.347 123.802 300.465 124.156L302.132 129.16C302.25 129.513 302.059 129.895 301.705 130.013C301.635 130.036 301.563 130.048 301.492 130.048Z" fill="#212121"/>
<path d="M347.305 112.659L333.236 110.717C331.502 110.478 330.29 108.879 330.53 107.145C330.769 105.411 332.368 104.2 334.102 104.439L348.172 106.381C349.906 106.62 351.117 108.219 350.878 109.953C350.638 111.687 349.039 112.898 347.305 112.659ZM314.985 112.916L302.288 106.55C300.724 105.766 300.091 103.862 300.876 102.297C301.66 100.733 303.565 100.1 305.129 100.885L317.825 107.251C319.39 108.035 320.022 109.939 319.238 111.504C318.453 113.068 316.549 113.701 314.985 112.916Z" fill="#212121"/>
<path d="M322.826 120.606C322.826 120.606 319.043 127.562 317.922 135.685L323.784 136.494" fill="white"/>
<path d="M323.785 137.168C323.754 137.168 323.723 137.166 323.692 137.162L317.83 136.353C317.461 136.302 317.203 135.961 317.254 135.593C318.379 127.441 322.077 120.572 322.234 120.284C322.412 119.957 322.821 119.836 323.148 120.014C323.475 120.191 323.596 120.601 323.418 120.928C323.382 120.994 319.886 127.494 318.688 135.11L323.876 135.826C324.245 135.877 324.503 136.217 324.452 136.586C324.406 136.924 324.117 137.168 323.785 137.168Z" fill="#212121"/>
<path d="M330.703 142.514C327.239 142.529 324.31 143.055 322.107 143.622L330.703 142.514Z" fill="white"/>
<path d="M322.106 144.297C321.806 144.297 321.532 144.095 321.454 143.791C321.361 143.43 321.578 143.062 321.939 142.97C324.802 142.233 327.749 141.853 330.7 141.84C331.068 141.84 331.376 142.139 331.378 142.511C331.379 142.883 331.079 143.187 330.706 143.188C327.867 143.201 325.03 143.567 322.275 144.276C322.219 144.29 322.162 144.297 322.106 144.297Z" fill="#212121"/>
<path d="M362.938 141.533L371.084 142.478C377.688 143.389 383.783 138.773 384.694 132.169C385.606 125.564 380.989 119.473 374.385 118.562L366.239 117.617" fill="white"/>
<path d="M372.761 143.268C372.176 143.268 371.588 143.228 370.999 143.147L362.861 142.203C362.491 142.16 362.226 141.826 362.269 141.456C362.312 141.086 362.646 140.821 363.016 140.864L371.162 141.808C371.167 141.809 371.172 141.81 371.176 141.81C374.192 142.226 377.19 141.443 379.617 139.605C382.044 137.766 383.61 135.093 384.027 132.077C384.885 125.855 380.523 120.094 374.3 119.231L366.161 118.287C365.792 118.244 365.526 117.91 365.569 117.54C365.612 117.17 365.949 116.905 366.317 116.948L374.462 117.893C374.467 117.893 374.472 117.894 374.477 117.894C381.44 118.855 386.323 125.3 385.362 132.261C384.897 135.634 383.145 138.623 380.431 140.679C378.193 142.375 375.52 143.268 372.761 143.268Z" fill="#212121"/>
<path d="M372.702 137.228C372.388 137.228 372.07 137.206 371.751 137.16L370.718 137.013C370.35 136.96 370.093 136.619 370.146 136.25C370.198 135.882 370.54 135.626 370.909 135.678L371.941 135.825C372.196 135.862 372.45 135.879 372.701 135.879C375.325 135.879 377.624 133.945 378.005 131.274C378.206 129.86 377.843 128.45 376.983 127.304C376.122 126.157 374.869 125.415 373.454 125.213C373.453 125.213 373.453 125.213 373.452 125.213L372.421 125.066C372.053 125.014 371.797 124.672 371.849 124.304C371.902 123.935 372.245 123.679 372.612 123.731L373.643 123.878C373.643 123.878 373.643 123.878 373.644 123.878C375.415 124.131 376.984 125.06 378.061 126.494C379.138 127.928 379.592 129.694 379.34 131.464C378.863 134.808 375.985 137.228 372.702 137.228Z" fill="#212121"/>
<path d="M373.775 79.3008L371.135 78.9364C371.86 70.1324 365.602 62.1932 356.744 60.9708L332.646 57.645C313.527 55.0062 306.67 70.5892 302.51 70.0152C300.445 69.0997 299.155 66.8919 299.511 64.5476L300.289 59.4387C292.016 58.297 284.14 65.8441 282.999 74.1168L282.881 74.9665C281.36 85.9921 288.466 96.0722 299.492 97.5938C300.419 90.8757 310.438 81.0717 325.178 83.1061L352.235 86.8403C358.635 87.7234 363.107 93.6273 362.223 100.027L361.408 105.935C360.533 112.277 364.964 118.127 371.306 119.002L382.009 120.479L385.547 94.8423C386.588 87.3 381.318 80.3418 373.775 79.3008Z" fill="#212121"/>
<path d="M417.131 228.268L411.816 324.365C410.391 344.885 401.787 352.544 387.853 352.2C373.919 351.856 358.69 342.641 360.092 318.85L365.285 223.165C368.469 199.694 379.126 195.924 391.713 196.594C404.548 197.277 417.349 203.898 417.131 228.268Z" fill="white"/>
<path d="M388.75 352.885C388.448 352.885 388.144 352.881 387.836 352.873C383.96 352.778 380.1 351.996 376.672 350.612C372.857 349.072 369.575 346.825 366.915 343.933C364.272 341.06 362.289 337.583 361.02 333.6C359.635 329.254 359.097 324.278 359.419 318.81L364.612 223.128C364.613 223.11 364.615 223.091 364.617 223.073C366.121 211.988 369.369 204.54 374.546 200.304C376.823 198.441 379.45 197.197 382.575 196.503C385.195 195.922 388.196 195.731 391.748 195.92C399.392 196.327 405.464 198.733 409.794 203.072C415.211 208.499 417.906 216.978 417.805 228.273C417.804 228.283 417.804 228.294 417.804 228.304L412.489 324.401C411.78 334.612 409.338 341.858 405.022 346.562C401.123 350.812 395.793 352.885 388.75 352.885ZM365.957 223.228L360.765 318.886C360.164 329.095 362.567 337.214 367.908 343.02C372.771 348.308 379.86 351.328 387.87 351.526C402.432 351.883 409.83 343.239 411.143 324.318L416.457 228.246C416.629 208.573 408.292 198.151 391.677 197.266C380.235 196.657 369.2 199.381 365.957 223.228Z" fill="#212121"/>
<path d="M359.597 224.891L356.987 263.339L355.649 282.872L419.028 286.196L420.344 268.069L423.05 230.6C423.99 220.875 420.737 193.598 395.776 189.964C370.82 186.313 360.461 212.162 359.597 224.891Z" fill="#1D375C"/>
<path d="M359.597 224.891L356.987 263.339L355.649 282.871" fill="#212121"/>
<path d="M355.65 283.545C355.635 283.545 355.619 283.545 355.603 283.544C355.232 283.518 354.952 283.197 354.977 282.825L356.315 263.293L358.925 224.845C358.95 224.474 359.274 224.193 359.643 224.218C360.014 224.244 360.295 224.565 360.27 224.937L357.66 263.385L356.322 282.917C356.298 283.273 356.002 283.545 355.65 283.545Z" fill="white"/>
<path d="M411.691 325.922C411.691 340.323 403.551 350.788 388.641 354.521C388.641 354.521 337.658 368.512 295.117 375.908C286.254 377.449 277.117 376.626 268.726 373.382C249.583 367.542 235.494 333.316 269.15 323.469C293.214 318.158 340.934 309.204 364.245 304.932" fill="white"/>
<path d="M286.432 377.334C280.283 377.334 274.204 376.219 268.506 374.019C263.119 372.369 258.023 368.548 254.156 363.257C250.245 357.908 248.11 351.741 248.144 345.892C248.173 340.867 249.844 336.206 252.978 332.416C256.536 328.112 261.914 324.884 268.961 322.822C268.975 322.818 268.99 322.814 269.005 322.811C297.777 316.46 357.417 305.497 364.123 304.268C364.49 304.201 364.841 304.444 364.908 304.81C364.975 305.176 364.732 305.527 364.366 305.594C357.665 306.823 298.075 317.776 269.317 324.122C256.591 327.852 249.551 335.585 249.492 345.9C249.427 357.214 258.325 369.504 268.923 372.737C268.938 372.742 268.954 372.747 268.969 372.753C277.159 375.919 286.161 376.781 295.001 375.244C337.023 367.938 387.953 354.01 388.462 353.87C388.467 353.869 388.472 353.868 388.477 353.866C402.801 350.28 411.017 340.095 411.017 325.921C411.017 325.549 411.319 325.247 411.691 325.247C412.063 325.247 412.365 325.549 412.365 325.921C412.365 333.29 410.319 339.589 406.284 344.642C402.208 349.746 396.33 353.289 388.812 355.173C387.954 355.408 337.172 369.281 295.232 376.572C292.305 377.081 289.36 377.334 286.432 377.334Z" fill="#212121"/>
<path d="M299.391 370.867C298.459 371.958 297.412 373.045 296.245 374.124C286.265 381.721 277.587 373.078 268.258 380.863C264.142 384.297 260.633 389.343 257.996 393.91C254.396 400.144 246.909 402.977 240.048 400.797C230.261 397.688 216.623 393.169 205.919 388.907C198.303 385.875 194.256 377.429 196.941 369.683C203.39 351.077 222.383 323.153 264.353 323.153C268.061 323.153 271.923 323.748 275.731 324.839" fill="white"/>
<path d="M244.734 402.195C243.084 402.195 241.432 401.944 239.844 401.44C230.201 398.377 216.444 393.824 205.67 389.534C201.813 387.998 198.718 385.092 196.957 381.35C195.185 377.584 194.953 373.362 196.304 369.462C198.666 362.648 204.481 349.62 216.887 338.93C222.76 333.87 229.454 329.915 236.785 327.176C245.124 324.06 254.399 322.479 264.353 322.479C268.06 322.479 271.95 323.055 275.917 324.191C276.274 324.294 276.481 324.667 276.379 325.025C276.277 325.383 275.904 325.589 275.545 325.487C271.699 324.386 267.934 323.828 264.353 323.828C217.212 323.828 201.325 359.095 197.578 369.904C195.024 377.274 198.797 385.346 206.168 388.281C216.906 392.557 230.63 397.098 240.253 400.155C246.794 402.233 254.01 399.465 257.412 393.573C260.768 387.763 264.271 383.312 267.826 380.346C272.715 376.265 277.49 376.513 282.107 376.753C286.706 376.992 291.051 377.218 295.811 373.607C296.931 372.571 297.963 371.502 298.878 370.429C299.12 370.146 299.545 370.113 299.829 370.354C300.112 370.596 300.146 371.022 299.904 371.305C298.948 372.425 297.87 373.54 296.702 374.619C296.687 374.634 296.67 374.648 296.653 374.661C291.49 378.591 286.685 378.341 282.037 378.1C277.479 377.863 273.173 377.639 268.69 381.381C265.257 384.246 261.856 388.574 258.58 394.247C256.765 397.39 253.891 399.838 250.486 401.139C248.645 401.842 246.691 402.195 244.734 402.195Z" fill="#212121"/>
<path d="M301.807 367.643C301.108 368.72 300.305 369.796 299.391 370.867L301.807 367.643Z" fill="white"/>
<path d="M299.39 371.54C299.236 371.54 299.08 371.487 298.953 371.379C298.67 371.137 298.636 370.712 298.878 370.428C299.758 369.397 300.554 368.336 301.242 367.275C301.444 366.963 301.862 366.874 302.174 367.076C302.487 367.279 302.576 367.697 302.373 368.009C301.653 369.119 300.822 370.228 299.904 371.304C299.77 371.46 299.581 371.54 299.39 371.54Z" fill="#212121"/>
<path d="M196.941 369.683C203.39 351.077 222.383 323.153 264.353 323.153C268.955 323.153 273.793 324.07 278.472 325.712" fill="white"/>
<path d="M196.941 370.358C196.868 370.358 196.794 370.345 196.72 370.32C196.369 370.198 196.182 369.814 196.304 369.462C198.666 362.648 204.481 349.62 216.887 338.93C222.759 333.87 229.454 329.915 236.785 327.176C245.124 324.06 254.399 322.479 264.353 322.479C268.895 322.479 273.855 323.377 278.695 325.076C279.046 325.2 279.231 325.584 279.108 325.936C278.984 326.287 278.6 326.472 278.248 326.348C273.55 324.699 268.745 323.828 264.353 323.828C217.212 323.828 201.325 359.095 197.578 369.904C197.482 370.183 197.22 370.358 196.941 370.358Z" fill="#212121"/>
<path d="M232.846 394.481C232.846 394.481 234.413 371.632 254.662 359.289L232.846 394.481Z" fill="white"/>
<path d="M232.847 395.155C232.831 395.155 232.815 395.155 232.799 395.153C232.428 395.128 232.148 394.806 232.173 394.435C232.19 394.197 232.606 388.533 235.535 381.262C237.255 376.992 239.49 373.063 242.177 369.583C245.539 365.229 249.622 361.572 254.311 358.714C254.629 358.52 255.044 358.621 255.238 358.939C255.432 359.257 255.331 359.671 255.013 359.865C244.728 366.134 239.434 375.211 236.804 381.721C233.944 388.801 233.522 394.471 233.518 394.528C233.494 394.883 233.197 395.155 232.847 395.155Z" fill="#212121"/>
<path d="M211.249 385.925C211.249 385.925 212.573 364.798 231.09 351.045L211.249 385.925Z" fill="white"/>
<path d="M211.25 386.6C211.236 386.6 211.221 386.599 211.207 386.598C210.835 386.575 210.553 386.255 210.576 385.883C210.59 385.664 210.944 380.419 213.595 373.404C215.151 369.288 217.179 365.421 219.625 361.912C222.683 357.523 226.405 353.685 230.687 350.504C230.986 350.282 231.408 350.344 231.63 350.643C231.853 350.942 231.79 351.365 231.491 351.587C222.074 358.581 217.257 367.546 214.874 373.835C212.284 380.67 211.925 385.916 211.922 385.968C211.899 386.325 211.603 386.6 211.25 386.6Z" fill="#212121"/>
<path d="M212.188 389.99H31.4675C30.4726 389.99 29.6157 389.289 29.4193 388.313L8.03599 282.171C6.86372 276.353 11.3127 270.918 17.2482 270.918H183.059C187.533 270.918 191.387 274.073 192.271 278.459L214.236 387.488C214.496 388.782 213.507 389.99 212.188 389.99Z" fill="white"/>
<path d="M212.188 390.665H31.4674C30.1564 390.665 29.0171 389.732 28.7583 388.447L7.37502 282.305C6.77619 279.332 7.53435 276.282 9.45485 273.936C11.3755 271.59 14.2159 270.244 17.248 270.244H183.059C187.836 270.244 191.988 273.643 192.932 278.327L214.897 387.355C215.061 388.171 214.853 389.008 214.326 389.652C213.799 390.296 213.02 390.665 212.188 390.665ZM17.248 271.593C14.6219 271.593 12.1616 272.758 10.4982 274.79C8.83481 276.822 8.1782 279.464 8.69669 282.038L30.08 388.181C30.2126 388.839 30.7961 389.316 31.4674 389.316H212.188C212.614 389.316 213.013 389.127 213.283 388.798C213.553 388.468 213.659 388.039 213.575 387.622L191.61 278.593C190.793 274.537 187.197 271.593 183.059 271.593L17.248 271.593Z" fill="#212121"/>
<path d="M205.013 389.99H24.2928C23.2979 389.99 22.441 389.289 22.2446 388.313L0.861306 282.171C-0.310961 276.353 4.13794 270.918 10.0735 270.918H175.884C180.359 270.918 184.213 274.073 185.096 278.459L207.061 387.488C207.322 388.782 206.333 389.99 205.013 389.99Z" fill="white"/>
<path d="M205.013 390.665H24.2928C22.9818 390.665 21.8426 389.732 21.5838 388.447L0.200335 282.305C-0.398494 279.332 0.359674 276.282 2.28017 273.936C4.20079 271.59 7.04137 270.244 10.0734 270.244H175.884C180.661 270.244 184.814 273.643 185.757 278.327L207.722 387.355C207.886 388.171 207.678 389.008 207.151 389.652C206.624 390.296 205.845 390.665 205.013 390.665ZM10.0734 271.593C7.44725 271.593 4.98704 272.758 3.32352 274.79C1.66 276.822 1.00352 279.464 1.52201 282.038L22.9054 388.181C23.038 388.839 23.6215 389.316 24.2928 389.316H205.013C205.439 389.316 205.838 389.127 206.108 388.798C206.378 388.468 206.484 388.039 206.4 387.622L184.436 278.593C183.618 274.537 180.022 271.593 175.884 271.593L10.0734 271.593Z" fill="#212121"/>
<path d="M95.1488 283.489H84.735C84.3627 283.489 84.0609 283.187 84.0609 282.815C84.0609 282.443 84.3627 282.141 84.735 282.141H95.1488C95.521 282.141 95.8229 282.443 95.8229 282.815C95.8229 283.187 95.521 283.489 95.1488 283.489ZM73.9596 283.489H29.7291C29.3568 283.489 29.0549 283.187 29.0549 282.815C29.0549 282.443 29.3568 282.141 29.7291 282.141H73.9596C74.3319 282.141 74.6338 282.443 74.6338 282.815C74.6338 283.187 74.3319 283.489 73.9596 283.489ZM19.2512 283.489H18.4919C18.1196 283.489 17.8177 283.187 17.8177 282.815C17.8177 282.443 18.1196 282.141 18.4919 282.141H19.2512C19.6234 282.141 19.9253 282.443 19.9253 282.815C19.9253 283.187 19.6234 283.489 19.2512 283.489Z" fill="#212121"/>
<path d="M261.089 403.922H24.6746C23.5206 403.922 22.5852 402.987 22.5852 401.833V392.08C22.5852 390.926 23.5206 389.99 24.6746 389.99H261.089C262.243 389.99 263.178 390.926 263.178 392.08V401.833C263.178 402.987 262.243 403.922 261.089 403.922Z" fill="white"/>
<path d="M261.089 404.597H24.6746C23.1507 404.597 21.9111 403.357 21.9111 401.833V392.08C21.9111 390.556 23.1507 389.316 24.6746 389.316H261.089C262.613 389.316 263.852 390.556 263.852 392.08V401.833C263.852 403.357 262.612 404.597 261.089 404.597ZM24.6746 390.665C23.8943 390.665 23.2594 391.3 23.2594 392.08V401.833C23.2594 402.614 23.8943 403.248 24.6746 403.248H261.089C261.869 403.248 262.504 402.614 262.504 401.833V392.08C262.504 391.3 261.869 390.665 261.089 390.665H24.6746Z" fill="#212121"/>
<path d="M485.158 29.1652C483.79 23.1353 480.909 17.7767 476.518 13.0886C472.128 8.40067 466.362 4.87688 459.223 2.52069C450.676 -0.300501 442.667 -0.752874 435.199 1.16014C427.728 3.07242 421.317 6.68527 415.966 11.9944L427.05 32.3908C430.426 29.0663 434.157 26.7579 438.242 25.4677C442.327 24.1774 446.316 24.1725 450.211 25.4582C452.915 26.3507 455.054 27.5984 456.626 29.1962C458.198 30.7938 459.239 32.6388 459.75 34.727C460.261 36.815 460.105 39.1035 459.284 41.5903C458.499 43.9697 457.27 45.8746 455.598 47.3029C453.927 48.7311 451.903 49.5935 449.526 49.8881C447.15 50.1826 444.608 49.8829 441.904 48.9904L434.926 46.6871L425.995 78.109L445.63 84.5902L450.968 71.8523C454.278 71.7569 457.501 71.2979 460.636 70.4708C466.09 69.0321 470.829 66.4878 474.853 62.8355C478.876 59.1852 481.962 54.1148 484.104 47.6232C486.176 41.3479 486.525 35.1949 485.158 29.1652ZM431.501 94.6836C427.172 93.2546 423.129 93.5115 419.37 95.4486C415.611 97.3859 413.019 100.52 411.591 104.847C410.234 108.957 410.478 112.937 412.327 116.786C414.176 120.635 417.263 123.275 421.592 124.704C425.919 126.132 429.944 125.84 433.667 123.83C437.389 121.82 439.93 118.759 441.287 114.649C442.715 110.322 442.522 106.269 440.71 102.493C438.897 98.7162 435.828 96.1118 431.501 94.6836Z" fill="#1D375C"/>
<path d="M83.0171 321.112C82.7389 321.2 82.5261 321.342 82.3897 321.527C82.1332 321.854 82.0896 322.127 82.0896 323.295V324.359L82.2969 324.168C82.7225 323.764 83.0389 323.666 83.4263 323.813C83.5573 323.868 83.6937 323.944 83.7264 323.988C83.9119 324.206 83.961 323.993 83.9992 322.809C84.021 321.98 84.0428 321.8 84.1029 321.8C84.1465 321.8 84.2338 321.882 84.2938 321.985C84.4411 322.242 84.4684 322.842 84.3866 324.282C84.3375 325.128 84.332 326.143 84.3647 327.927L84.4084 330.393L84.8612 330.169C85.4014 329.897 85.4723 329.918 85.3141 330.328C85.1995 330.617 85.014 331.506 84.954 332.019C84.9376 332.183 84.8994 332.477 84.8721 332.674C84.8449 332.875 84.8176 333.225 84.8176 333.454C84.8176 333.694 84.7903 333.901 84.7521 333.95C84.6921 334.032 83.6882 334.55 82.7389 334.998C82.5697 335.074 82.3624 335.194 82.286 335.254L82.1442 335.363V337.54C82.1442 338.921 82.166 339.821 82.2042 340.006C82.286 340.41 82.5206 340.869 82.908 341.414C83.7155 342.543 83.6227 342.396 84.9649 344.906C85.5269 345.953 85.6905 346.204 86.0234 346.554C86.4435 346.985 86.3125 346.919 89.346 348.261C90.1426 348.611 91.0101 348.998 91.2829 349.118C91.8231 349.358 92.0959 349.423 92.1559 349.331C92.2213 349.216 92.1341 349.009 91.9213 348.801C91.7249 348.605 91.4193 348.447 90.3281 347.961C89.2969 347.503 88.1621 346.755 87.1909 345.888C86.9509 345.675 86.5417 345.315 86.2798 345.086C85.7396 344.611 85.7778 344.72 85.7015 343.564L85.6524 342.789L85.2159 342.347C84.4793 341.611 84.1902 341.218 84.0701 340.814C83.9665 340.465 83.961 340.459 83.7482 340.432L83.5354 340.405V339.886C83.5354 339.384 83.5409 339.368 83.6664 339.352L83.7973 339.33L83.77 338.102L83.7482 336.875L83.9392 336.749C84.0483 336.678 84.5557 336.204 85.0631 335.691L85.9906 334.758L85.9797 334.25C85.9688 333.978 85.9361 333.557 85.9088 333.323C85.8542 332.957 85.8597 332.875 85.9361 332.761C86.0124 332.641 86.0561 332.63 86.3998 332.63H86.7817V332.166V331.702H86.4216C85.8215 331.702 85.8542 331.784 85.8542 330.338C85.8542 329.596 85.876 329.084 85.9033 329.084C85.9306 329.084 86.0179 329.105 86.0943 329.138L86.2361 329.193V330.202V331.211H86.5417C86.8527 331.211 87.0327 331.277 87.1473 331.424C87.1909 331.484 87.2128 331.752 87.2182 332.226C87.2182 333.066 87.2128 333.077 86.7163 333.11L86.3889 333.137L86.4271 333.765C86.4653 334.343 86.4762 334.398 86.6017 334.507C86.8418 334.714 86.7272 335.14 86.4326 335.14C86.3562 335.14 86.0015 335.456 85.385 336.078C84.8721 336.596 84.4084 337.082 84.3593 337.158C84.2884 337.268 84.272 337.459 84.272 338.288V339.286L84.4084 339.341C84.5393 339.39 84.5448 339.412 84.5448 339.876C84.5448 340.137 84.523 340.377 84.4957 340.405C84.4684 340.437 84.4739 340.563 84.5121 340.716C84.5666 340.918 84.6812 341.087 85.0631 341.496C85.325 341.785 85.5869 342.042 85.6469 342.074C85.8215 342.167 85.8706 342.063 85.7942 341.774C85.6524 341.207 85.8542 340.656 86.2962 340.427L86.5199 340.317L86.4817 339.324C86.4598 338.779 86.4216 338.304 86.3944 338.277C86.2852 338.135 86.2962 337.911 86.4271 337.78C86.498 337.709 86.5908 337.649 86.6344 337.649C86.7108 337.649 86.9454 337.366 87.7584 336.285L88.1457 335.767V335.216C88.1457 334.523 88.113 334.36 87.9657 334.294C87.8566 334.245 87.8457 334.19 87.8293 333.787C87.8184 333.497 87.8347 333.301 87.8784 333.252C87.9602 333.154 88.7459 333.143 88.8441 333.241C88.8823 333.279 88.9096 333.476 88.9096 333.748C88.9096 334.207 88.8605 334.321 88.6804 334.321C88.5877 334.321 88.5822 334.392 88.5822 335.183V336.045L88.304 336.395C87.7802 337.044 87.0709 338.004 86.9945 338.168C86.9127 338.342 86.9072 338.419 86.9727 339.559L87.0109 340.296L87.2782 340.416C87.4746 340.503 87.5838 340.601 87.7038 340.792C88.0093 341.267 87.9821 341.752 87.6274 342.162C87.4092 342.418 87.4037 342.483 87.4965 343.225C87.5456 343.613 87.5838 343.727 87.6765 343.793C87.7365 343.837 88.0966 344.098 88.4731 344.377L89.1551 344.879V345.315V345.752L88.9532 345.768L88.7459 345.784V345.484V345.184L88.424 344.922C88.2494 344.78 87.8838 344.502 87.611 344.311L87.12 343.967L87.0545 343.269L86.9891 342.571L86.749 342.538C86.6126 342.522 86.4326 342.467 86.3398 342.418C86.2471 342.374 86.1488 342.353 86.1216 342.38C86.0997 342.402 86.0997 342.669 86.127 342.969C86.1543 343.269 86.1925 343.722 86.2089 343.978L86.2471 344.442L86.7435 344.879C87.0163 345.119 87.4637 345.512 87.7311 345.752C88.7404 346.652 89.477 347.083 92.0631 348.294C92.6742 348.578 92.7506 348.594 92.887 348.458C93.1161 348.229 92.9688 347.367 92.6033 346.832C92.5051 346.69 91.9485 346.095 91.3702 345.522C90.7482 344.895 90.2845 344.388 90.2299 344.268C90.1426 344.077 90.1372 343.618 90.1263 338.642C90.1153 332.625 90.1317 332.892 89.7498 332.379C89.3624 331.861 89.2424 331.752 87.7147 330.524C86.4271 329.498 85.5323 328.276 85.1886 327.081C85.0849 326.727 85.0631 326.53 85.0686 325.892C85.0686 325.352 85.0958 325.063 85.1559 324.91L85.2377 324.697L85.2704 325.384C85.325 326.312 85.5596 327.125 86.0015 327.878L86.1434 328.123L86.2907 327.943C86.4271 327.785 86.438 327.741 86.4107 327.398C86.3725 326.814 86.6071 326.416 87.1091 326.214C87.3601 326.11 87.7911 326.121 88.0748 326.241C88.3203 326.339 89.0678 326.487 89.1169 326.443C89.1933 326.367 88.6913 325.717 88.3749 325.483C88.2658 325.401 87.2782 324.43 86.1816 323.328C85.0849 322.231 84.0974 321.282 83.9883 321.222C83.7591 321.102 83.2244 321.041 83.0171 321.112ZM87.158 325.647C87.2617 325.724 87.311 325.537 87.2455 325.51C87.1855 325.494 87.0545 325.461 86.9618 325.444C86.7817 325.412 86.7217 325.303 86.8527 325.243C86.8854 325.221 86.8636 325.221 86.7927 325.232C86.6944 325.248 86.6726 325.237 86.6944 325.172C86.7108 325.128 86.7272 325.063 86.7272 325.03C86.7272 324.992 86.2371 325.604 86.319 325.697C86.3954 325.784 87.0653 325.576 87.158 325.647ZM89.226 339.352C89.2697 339.395 89.2915 339.603 89.2915 339.914C89.2915 340.225 89.2697 340.432 89.226 340.476C89.1878 340.514 88.986 340.541 88.6913 340.541C88.3967 340.541 88.1948 340.514 88.1566 340.476C88.113 340.432 88.0912 340.225 88.0912 339.914C88.0912 339.603 88.113 339.395 88.1566 339.352C88.1948 339.314 88.3967 339.286 88.6913 339.286C88.986 339.286 89.1878 339.314 89.226 339.352Z" fill="#1D375C"/>
<path d="M109.626 321.119C109.511 321.152 109.353 321.206 109.271 321.25C109.086 321.348 104.334 326.117 104.241 326.297L104.176 326.428L104.536 326.389C104.732 326.368 104.999 326.297 105.125 326.231C105.66 325.964 106.374 326.188 106.642 326.711C106.751 326.935 106.778 327.05 106.767 327.366C106.762 327.726 106.767 327.759 106.942 327.961L107.122 328.179L107.291 327.912C107.482 327.606 107.771 326.935 107.875 326.548C107.989 326.138 108.033 325.675 108.022 325.118C108.011 324.665 107.969 324.572 107.789 324.217C107.68 323.999 107.646 323.852 107.684 323.874C107.76 323.923 108.098 324.643 108.202 324.987C108.393 325.626 108.317 326.64 108.011 327.448C107.858 327.862 107.395 328.659 107.062 329.085C106.745 329.488 105.878 330.334 105.43 330.683C104.274 331.573 103.848 331.976 103.521 332.495C103.215 332.986 103.232 332.664 103.204 338.633C103.183 343.499 103.166 344.187 103.09 344.323C103.046 344.405 102.501 344.983 101.884 345.605C100.869 346.631 100.744 346.773 100.553 347.166C100.362 347.553 100.34 347.646 100.34 348.006C100.34 348.344 100.356 348.421 100.449 348.486C100.591 348.59 100.684 348.562 101.415 348.23C103.892 347.1 104.754 346.571 105.96 345.453C106.172 345.256 106.522 344.934 106.734 344.738L107.122 344.383L107.154 343.592C107.176 343.161 107.204 342.73 107.214 342.643C107.258 342.37 107.187 342.326 106.909 342.446C106.778 342.512 106.593 342.561 106.5 342.561H106.325L106.26 343.27L106.189 343.974L105.501 344.47C104.525 345.174 104.579 345.12 104.557 345.458L104.541 345.753H104.35H104.159L104.148 345.316L104.137 344.88L104.945 344.29L105.747 343.707L105.812 343.145C105.9 342.408 105.9 342.43 105.72 342.223C105.447 341.906 105.37 341.704 105.398 341.35C105.43 340.93 105.638 340.619 106.014 340.433L106.292 340.297L106.358 339.304L106.429 338.311L106.276 338.076C106.047 337.716 105.572 337.078 105.13 336.527L104.732 336.03V335.179C104.732 334.388 104.727 334.322 104.634 334.322C104.448 334.322 104.405 334.208 104.405 333.744C104.405 333.428 104.426 333.28 104.481 333.237C104.53 333.193 104.727 333.177 105.016 333.188L105.469 333.204L105.485 333.711C105.501 334.202 105.496 334.213 105.359 334.279C105.223 334.339 105.223 334.339 105.223 335.081V335.823L105.872 336.696C106.336 337.318 106.587 337.601 106.729 337.678C106.974 337.809 107.056 338.027 106.947 338.245C106.898 338.338 106.86 338.731 106.833 339.353L106.794 340.318L107.013 340.428C107.482 340.668 107.689 341.153 107.542 341.699C107.471 341.961 107.476 341.993 107.553 342.059C107.602 342.092 107.662 342.124 107.684 342.124C107.7 342.124 107.951 341.857 108.24 341.53C108.649 341.066 108.775 340.886 108.819 340.7C108.851 340.564 108.851 340.439 108.824 340.406C108.797 340.373 108.769 340.144 108.759 339.887C108.742 339.44 108.748 339.424 108.884 339.358C109.015 339.293 109.026 339.26 109.059 338.791C109.13 337.798 109.113 337.503 108.955 337.225C108.748 336.865 107.16 335.266 106.898 335.157C106.565 335.021 106.489 334.742 106.718 334.513C106.833 334.399 106.854 334.317 106.887 333.755L106.925 333.122H106.625C106.412 333.122 106.287 333.095 106.2 333.018C106.08 332.92 106.069 332.866 106.052 332.32C106.02 331.393 106.14 331.212 106.783 331.212H107.078V330.258C107.078 329.374 107.089 329.292 107.187 329.194C107.318 329.063 107.438 329.052 107.482 329.172C107.536 329.308 107.52 331.507 107.465 331.589C107.427 331.643 107.275 331.682 106.985 331.698L106.56 331.731L106.543 332.178L106.527 332.631H106.909C107.258 332.631 107.302 332.642 107.384 332.767C107.46 332.887 107.465 332.958 107.405 333.378C107.367 333.646 107.335 334.06 107.335 334.306L107.329 334.748L108.278 335.725C108.868 336.33 109.288 336.718 109.391 336.75C109.615 336.821 109.686 337.029 109.588 337.318C109.539 337.47 109.528 337.776 109.544 338.409C109.566 339.227 109.577 339.287 109.692 339.38C109.801 339.467 109.812 339.516 109.795 339.942L109.779 340.406L109.588 340.433C109.408 340.46 109.391 340.482 109.288 340.793C109.222 340.973 109.091 341.235 108.988 341.366C108.688 341.748 108.164 342.348 107.913 342.577C107.733 342.741 107.678 342.839 107.656 343.014C107.624 343.27 107.575 344.05 107.569 344.389C107.569 344.607 107.542 344.634 106.838 345.273C105.229 346.74 104.257 347.428 103.15 347.908C101.715 348.524 101.197 348.863 101.169 349.195C101.147 349.495 101.327 349.441 103.095 348.661C103.499 348.481 104.028 348.246 104.268 348.142C104.716 347.946 106.14 347.313 106.478 347.155C106.756 347.029 107.182 346.702 107.422 346.44C107.684 346.151 107.907 345.796 108.289 345.071C108.453 344.754 108.639 344.41 108.699 344.307C108.759 344.203 108.999 343.745 109.233 343.297C109.49 342.801 109.861 342.201 110.172 341.781C110.712 341.044 110.935 340.646 111.094 340.16C111.176 339.904 111.192 339.555 111.214 337.667C111.225 336.276 111.214 335.441 111.181 335.381C111.154 335.326 110.543 334.988 109.828 334.628L108.524 333.968L108.458 333.171C108.371 332.031 108.24 331.032 108.115 330.569C108 330.149 107.978 329.958 108.049 329.958C108.077 329.958 108.229 330.029 108.393 330.116C108.966 330.421 108.917 330.492 108.922 329.292C108.928 328.714 108.949 327.301 108.966 326.155C108.993 324.725 108.988 324.049 108.944 324C108.911 323.956 108.895 323.596 108.895 323.056C108.906 322.281 108.917 322.161 109.02 321.992C109.08 321.888 109.168 321.801 109.211 321.801C109.271 321.801 109.293 321.986 109.315 322.876C109.331 323.574 109.364 323.972 109.402 324.011C109.451 324.06 109.522 324.038 109.692 323.929C110.133 323.634 110.504 323.689 110.979 324.125L111.214 324.338L111.252 323.345C111.296 322.205 111.236 321.861 110.941 321.523C110.63 321.168 110.095 321.004 109.626 321.119ZM105.158 339.353C105.201 339.396 105.223 339.604 105.223 339.915C105.223 340.226 105.201 340.433 105.158 340.477C105.119 340.515 104.918 340.542 104.623 340.542C104.328 340.542 104.126 340.515 104.088 340.477C104.045 340.433 104.023 340.226 104.023 339.915C104.023 339.604 104.045 339.396 104.088 339.353C104.126 339.315 104.328 339.287 104.623 339.287C104.918 339.287 105.119 339.315 105.158 339.353Z" fill="#1D375C"/>
<path d="M82.0896 326.558V327.753L82.4388 327.731C82.908 327.698 83.2572 327.851 83.3772 328.129C83.4809 328.386 83.4645 328.909 83.3445 329.188C83.1535 329.602 82.6734 329.771 82.2696 329.564L82.0896 329.477V330.612V331.752L82.4333 331.517C82.8043 331.255 83.7646 330.721 83.8519 330.721C83.8901 330.721 83.8955 330.47 83.8737 329.973C83.8519 329.564 83.8355 328.391 83.8355 327.371V325.51L83.6937 325.712C83.5082 325.974 83.2299 326.105 82.9462 326.067C82.6843 326.029 82.5043 325.909 82.2696 325.598L82.0896 325.363V326.558Z" fill="#1D375C"/>
<path d="M111.045 325.641C110.892 325.859 110.521 326.083 110.308 326.083C110.101 326.083 109.839 325.947 109.653 325.734L109.479 325.532V326.994C109.479 327.796 109.462 328.947 109.44 329.553L109.408 330.65L109.921 330.928C110.204 331.081 110.608 331.315 110.815 331.452C111.028 331.588 111.214 331.681 111.235 331.659C111.257 331.637 111.263 331.135 111.241 330.546L111.208 329.471L111.066 329.542C110.788 329.684 110.63 329.689 110.379 329.58C110.095 329.455 109.997 329.318 109.915 328.904C109.822 328.451 109.915 328.036 110.15 327.872C110.297 327.769 110.395 327.747 110.777 327.747H111.225V326.585C111.225 325.952 111.219 325.428 111.214 325.428C111.203 325.428 111.132 325.526 111.045 325.641Z" fill="#1D375C"/>
<path d="M88.4787 327.022C88.7133 327.824 87.7039 328.604 86.9128 328.228L86.7164 328.13L86.5582 328.315L86.4054 328.501L86.5254 328.67C86.8255 329.096 87.6057 329.859 88.2932 330.405C88.555 330.612 88.9479 330.929 89.1607 331.109C89.3789 331.283 89.5699 331.431 89.5917 331.431C89.6135 331.431 89.7772 331.365 89.9518 331.289L90.2737 331.141V330.836C90.2791 330.323 90.4974 329.963 90.9502 329.728C91.2012 329.597 91.6159 329.614 91.9105 329.767C92.0742 329.848 92.3797 329.848 92.527 329.756C92.587 329.723 92.036 329.096 91.9105 329.057C91.8559 329.041 91.6322 328.812 91.4085 328.55C90.2137 327.137 89.8263 326.875 88.8442 326.853L88.4241 326.842L88.4787 327.022Z" fill="#1D375C"/>
<path d="M103.995 326.885C103.455 326.956 103.39 327.005 102.069 328.369C101.371 329.089 100.804 329.684 100.804 329.7C100.804 329.711 100.875 329.755 100.967 329.793C101.109 329.853 101.169 329.842 101.426 329.739C101.884 329.553 102.271 329.624 102.62 329.951C102.866 330.181 102.948 330.382 102.953 330.786L102.959 331.152L103.341 331.315L103.723 331.474L103.864 331.354C105.605 329.935 106.407 329.198 106.745 328.713L106.876 328.527L106.652 328.309L106.434 328.085L106.194 328.206C105.899 328.347 105.594 328.353 105.305 328.216C105.032 328.091 104.879 327.927 104.737 327.605C104.645 327.398 104.634 327.305 104.672 327.098L104.716 326.847L104.437 326.852C104.285 326.858 104.088 326.874 103.995 326.885Z" fill="#1D375C"/>
<path d="M99.6576 330.814C98.8392 331.643 98.5555 332.052 98.2118 332.931C98.0699 333.291 97.748 334.104 97.497 334.737C96.9896 336.03 96.9078 336.313 96.9569 336.668C97.006 337.006 97.3497 337.334 97.748 337.432C98.3973 337.59 99.1611 337.345 99.6194 336.832C99.9086 336.51 100.247 335.839 100.296 335.49C100.334 335.195 100.307 335.157 99.6685 334.693L99.2047 334.355L99.2429 333.929C99.292 333.356 99.303 333.329 99.543 333.351L99.7394 333.367L99.7667 333.782L99.794 334.197L100.143 334.48C100.334 334.633 100.514 334.758 100.541 334.758C100.618 334.758 103.144 332.243 103.264 332.047C103.395 331.834 103.384 331.807 103.04 331.681L102.789 331.589L102.467 331.78C102.206 331.943 102.091 331.976 101.845 331.976C101.087 331.976 100.58 331.376 100.711 330.628C100.76 330.339 100.754 330.317 100.634 330.225C100.563 330.17 100.471 330.121 100.427 330.121C100.383 330.121 100.04 330.432 99.6576 330.814Z" fill="#1D375C"/>
<path d="M92.6196 330.224C92.5432 330.251 92.4887 330.301 92.505 330.344C92.565 330.595 92.5705 331.059 92.5105 331.234C92.3632 331.681 91.9431 331.976 91.4466 331.976C91.1574 331.976 90.8028 331.839 90.6336 331.676C90.5409 331.577 90.5245 331.577 90.2408 331.676C90.0771 331.73 89.9462 331.806 89.9462 331.845C89.9462 331.965 90.4372 332.505 91.6048 333.667L92.7287 334.78L93.1215 334.507L93.5198 334.229L93.5362 333.907C93.558 333.372 93.5744 333.34 93.8199 333.34C94.0654 333.34 94.0654 333.34 94.1145 333.978L94.1473 334.365L93.6944 334.665C93.067 335.085 92.9797 335.189 93.0179 335.467C93.0561 335.751 93.3343 336.346 93.5908 336.684C94.1309 337.393 95.1621 337.683 95.8659 337.317C96.2642 337.115 96.3951 336.864 96.3679 336.368C96.3515 336.046 96.2751 335.806 95.8823 334.813C95.6258 334.169 95.3039 333.345 95.1621 332.985C94.802 332.063 94.5401 331.676 93.7708 330.917C93.4107 330.557 93.0834 330.246 93.0452 330.224C92.9633 330.17 92.8106 330.17 92.6196 330.224Z" fill="#1D375C"/>
<path d="M83.7537 331.272C83.3063 331.512 82.7498 331.845 82.5152 332.014L82.0951 332.32L82.0787 333.514C82.0678 334.175 82.0787 334.726 82.1006 334.736C82.1224 334.753 82.6298 334.518 83.23 334.218L84.3157 333.673L84.3484 333.302C84.3975 332.789 84.6267 331.168 84.6867 330.95C84.7085 330.868 84.6976 330.83 84.6485 330.83C84.6049 330.83 84.2066 331.026 83.7537 331.272ZM83.8683 332.156C83.9065 332.259 83.8028 333.285 83.7483 333.34C83.721 333.367 83.6337 333.405 83.5519 333.422C83.4264 333.454 83.3991 333.438 83.3664 333.318C83.3118 333.094 83.4427 332.232 83.5464 332.15C83.6664 332.063 83.8301 332.063 83.8683 332.156ZM82.9572 333.149C82.9462 333.738 82.8808 333.885 82.6298 333.885C82.4497 333.885 82.4443 333.847 82.5098 333.16C82.537 332.832 82.5589 332.778 82.6844 332.712C82.9517 332.565 82.9681 332.587 82.9572 333.149Z" fill="#1D375C"/>
<path d="M108.66 330.895C108.66 330.938 108.682 331.108 108.715 331.271C108.764 331.533 108.988 333.432 108.988 333.596C108.988 333.656 110.875 334.643 111.159 334.73L111.29 334.769L111.257 333.579C111.224 332.57 111.208 332.373 111.132 332.286C110.946 332.09 110.313 331.67 109.599 331.282C108.769 330.835 108.66 330.791 108.66 330.895ZM109.806 332.166C109.844 332.215 109.904 332.499 109.931 332.799C109.991 333.421 109.964 333.503 109.719 333.383C109.571 333.317 109.555 333.279 109.489 332.777C109.446 332.483 109.429 332.21 109.446 332.166C109.484 332.057 109.719 332.062 109.806 332.166ZM110.673 332.723C110.761 332.799 110.799 332.924 110.843 333.301C110.875 333.563 110.886 333.803 110.87 333.83C110.826 333.896 110.624 333.901 110.521 333.836C110.433 333.781 110.357 333.388 110.357 332.941C110.352 332.673 110.362 332.63 110.455 332.63C110.51 332.63 110.608 332.673 110.673 332.723Z" fill="#1D375C"/>
<circle cx="83.0124" cy="324.908" r="0.54291" fill="#1D375C"/>
<circle cx="82.6174" cy="328.658" r="0.54291" fill="#1D375C"/>
<circle cx="87.454" cy="327.178" r="0.54291" fill="#1D375C"/>
<circle cx="91.4026" cy="330.83" r="0.54291" fill="#1D375C"/>
<circle cx="86.862" cy="341.392" r="0.54291" fill="#1D375C"/>
<circle cx="101.866" cy="330.83" r="0.54291" fill="#1D375C"/>
<circle cx="105.715" cy="327.276" r="0.54291" fill="#1D375C"/>
<circle cx="110.355" cy="324.908" r="0.54291" fill="#1D375C"/>
<circle cx="110.651" cy="328.658" r="0.54291" fill="#1D375C"/>
<circle cx="106.505" cy="341.392" r="0.54291" fill="#1D375C"/>
</svg>
